<?xml version="1.0" encoding="UTF-8"?><svg id="Layer_2" xmlns="http://www.w3.org/2000/svg" viewBox="0 0 77.28 37.7"><defs><style>.cls-1{fill:#075f94;}</style></defs><g id="Layer_1-2"><path class="cls-1" d="m60.11,0L25.83,25.6c-1.81,1.35-3.93,1.98-6.03,1.94-2.94-.05-5.82-1.41-7.71-3.93-1.57-2.11-2.23-4.69-1.85-7.29.38-2.6,1.74-4.89,3.84-6.46L27.28,0H10.39l-2.34,1.73C-.79,8.31-2.63,20.8,3.94,29.65c6.55,8.82,19,10.67,27.84,4.17L77.28,0h-17.17ZM14.9,17c-.19,1.35.15,2.7.97,3.79,1.68,2.26,4.89,2.71,7.14,1.04L52.23,0h-17.07l-18.26,13.63c-1.09.82-1.8,2.01-2,3.36m38.21,6.68l10.41,13.39h13.02l-14.85-19.8-8.58,6.41Zm-12.29,9.18l3.15,4.21h13.45l-8.04-10.6-8.56,6.39Z"/></g></svg>