<svg xmlns="http://www.w3.org/2000/svg" xmlns:xlink="http://www.w3.org/1999/xlink" viewBox="0 0 24 24">
  <path d="m7,3h10c2.2,0,4,1.8,4,4v10c0,2.2-1.8,4-4,4H7c-2.2,0-4-1.8-4-4V7c0-2.2,1.8-4,4-4Z" fill="#f2c94c" stroke-width="0"></path>
  <path d="m8.5,7.5h-2.8v1.2h1.6v7.8h1.2V7.5Zm11,7h-6c-.2,0-.5-.1-.7-.3-.8-.4-1.3-1.2-1.3-2.1-.1-1.3.9-2.5,2.2-2.7,1.5-.2,2.8,1.2,2.8,2.7h-1.2c0-.6-.3-1.3-.9-1.5-.3-.1-.7-.1-1.1.1-.4.2-.7.7-.7,1.2,0,.4.1.7.3.9s.4.3.7.4h5.8v1.3h.1Zm0,1.9h-5.9c-.1,0-.3,0-.4-.1-.6-.1-1.2-.4-1.7-.7-.9-.6-1.5-1.7-1.7-2.8-.2-1.6.4-3.3,1.6-4.3s2.8-1.2,4.2-.7c1.8.7,2.8,2.4,2.8,4.3h-1.2c0-1.3-.7-2.6-1.8-3.1-.6-.3-1.4-.3-2-.2-1.3.3-2.3,1.5-2.4,2.8-.2,1.2.4,2.4,1.5,3.1.4.2.8.4,1.2.4h6l-.2,1.3h0Zm-12.7-7h-2.3v1.2h1.2v5.9h1.2l-.1-7.1h0Z" fill="#eb5757" fill-rule="evenodd" stroke-width="0"></path>
</svg>