<svg width="24" height="24" viewBox="0 0 24 24" fill="none" xmlns="http://www.w3.org/2000/svg">
<rect x="3" y="3" width="18" height="17.9999" rx="4" fill="#F2C94C"/>
<path fill-rule="evenodd" clip-rule="evenodd" d="M8.51128 7.49976H5.68562V8.69634H7.33554L7.34665 16.4997H8.51128V7.49976ZM19.4998 14.4807H14.0013C13.9371 14.4785 13.8091 14.4742 13.7455 14.4667C13.683 14.459 13.5587 14.4427 13.4972 14.4289C13.2638 14.3796 13.0201 14.2905 12.8107 14.1747C12.0571 13.7641 11.5491 12.9454 11.5133 12.076C11.4349 10.7311 12.4054 9.52886 13.7306 9.38995C15.27 9.22647 16.526 10.5671 16.5127 12.0987H15.3484C15.3535 11.4756 15.0519 10.8474 14.4432 10.6407C14.1018 10.5306 13.7103 10.5515 13.3917 10.723C12.9533 10.9565 12.7127 11.4532 12.6802 11.9421C12.6434 12.2979 12.7542 12.6133 13.0017 12.8673C13.1911 13.0615 13.4399 13.1953 13.7007 13.2587C13.7775 13.2761 13.8704 13.29 13.949 13.293C13.999 13.2994 19.4425 13.2926 19.4998 13.295V14.4807V14.4807ZM19.4998 16.3564H14.0112C13.9015 16.3543 13.6831 16.3481 13.5742 16.3349C13.4666 16.3227 13.2527 16.2964 13.147 16.273C12.5388 16.1549 11.9372 15.896 11.4313 15.5325C10.5322 14.8902 9.89209 13.8706 9.72674 12.7631C9.48466 11.1677 10.1305 9.46212 11.3717 8.45375C12.5261 7.49415 14.1582 7.25921 15.5472 7.78782C17.303 8.4534 18.3663 10.2209 18.3578 12.0987H17.1931C17.1812 10.8184 16.5223 9.52869 15.3472 8.98699C14.7148 8.69483 13.9764 8.63966 13.2999 8.78356C11.9556 9.07785 11.0436 10.2671 10.8714 11.6239C10.69 12.863 11.3083 14.0248 12.3352 14.6793C12.6896 14.8994 13.1013 15.0573 13.5121 15.1211C13.5939 15.1321 13.7597 15.1525 13.8424 15.1567L14.0113 15.1601H19.5V16.3565L19.4998 16.3564ZM6.82899 9.35462H4.5V10.551H5.67574V16.4996H6.84019L6.82899 9.35453V9.35462Z" fill="#EB5757"/>
</svg>
