<svg xmlns="http://www.w3.org/2000/svg" xmlns:xlink="http://www.w3.org/1999/xlink" viewBox="0 0 24 24" fill="none">
  <path d="M19.976 22.575C19.7985 22.575 19.6112 22.555 19.4337 22.515C16.4464 21.855 10.8366 20.155 6.94219 16.195C3.20557 12.405 1.9436 7.13505 1.52952 4.33505C1.42107 3.60505 1.61825 2.89505 2.09149 2.33505C2.58445 1.75505 3.30417 1.42505 4.08304 1.42505H7.78022C8.08586 1.42505 8.36191 1.61505 8.47036 1.91505L9.9098 5.78505C9.95909 5.91505 9.96895 6.05505 9.94924 6.18505L9.22952 10.095C10.0873 12.145 11.5366 13.595 13.9915 14.895L17.807 14.145C17.945 14.115 18.083 14.135 18.2112 14.185L22.0366 15.665C22.3225 15.775 22.5098 16.055 22.5098 16.365V19.945C22.5098 20.765 22.1549 21.525 21.5436 22.025C21.0999 22.385 20.5478 22.585 19.9859 22.585L19.976 22.575ZM4.08304 2.92505C3.73797 2.92505 3.42248 3.06505 3.21543 3.31505C3.02811 3.53505 2.94924 3.81505 2.98867 4.11505C3.38304 6.73505 4.54642 11.655 7.98726 15.155C11.6253 18.845 16.9197 20.435 19.7492 21.065C20.0647 21.135 20.3605 21.065 20.607 20.865C20.8732 20.645 21.0211 20.315 21.0211 19.955V16.885L17.8661 15.665L14.0112 16.425C13.8535 16.455 13.6859 16.425 13.538 16.355C10.5112 14.815 8.78586 13.055 7.7605 10.465C7.71121 10.335 7.69149 10.185 7.72107 10.045L8.44079 6.12505L7.25769 2.93505H4.07318L4.08304 2.92505Z" fill="currentColor"></path>
</svg>