<svg xmlns="http://www.w3.org/2000/svg" xmlns:xlink="http://www.w3.org/1999/xlink" viewBox="0 0 24 24" fill="none">
  <path d="M20.5 20.5H3.5V22.5H20.5V20.5Z" fill="#2C77B1" stroke="#333238" stroke-linejoin="round"/>
  <path d="M20.5 11.5V8.5H14.5V1.5H3.5V11.5H20.5Z" fill="#2C77B1" stroke="#333238" stroke-linejoin="round"/>
  <path d="M22.5 11.5H1.5V20.5H22.5V11.5Z" stroke="#333238" stroke-linejoin="round"/>
  <path d="M20.5 8.5L14.5 1.5V8.5H20.5Z" stroke="#333238" stroke-linejoin="round"/>
  <path d="M4.52226 19V13.3305H6.66426C8.33026 13.3305 9.31626 14.461 9.31626 16.161C9.31626 17.8695 8.33876 19 6.67276 19H4.52226ZM6.12876 17.5975H6.66426C7.29326 17.5975 7.68426 17.062 7.68426 16.161C7.68426 15.2005 7.32726 14.733 6.66426 14.733H6.12876V17.5975ZM9.62126 16.1695C9.62126 14.4355 10.6243 13.237 12.2053 13.237C13.7863 13.237 14.7893 14.4355 14.7893 16.1695C14.7893 17.895 13.7863 19.102 12.2053 19.102C10.6243 19.102 9.62126 17.895 9.62126 16.1695ZM13.1573 16.1695C13.1573 15.2855 12.8173 14.6565 12.2053 14.6565C11.5933 14.6565 11.2618 15.2855 11.2618 16.1695C11.2618 17.045 11.5933 17.6825 12.2053 17.6825C12.8173 17.6825 13.1573 17.045 13.1573 16.1695ZM17.667 19.102C16.0945 19.102 15.0915 17.9035 15.0915 16.1695C15.0915 14.427 16.0945 13.237 17.667 13.237C18.993 13.237 19.5455 14.121 19.8175 14.852L18.483 15.413C18.3725 14.971 18.092 14.6565 17.667 14.6565C17.072 14.6565 16.732 15.2855 16.732 16.1695C16.732 17.0535 17.072 17.6825 17.667 17.6825C18.1005 17.6825 18.3895 17.317 18.4915 16.875L19.8175 17.4275C19.571 18.15 19.01 19.102 17.667 19.102Z" fill="#333238"/>
</svg>