<svg xmlns="http://www.w3.org/2000/svg" xmlns:xlink="http://www.w3.org/1999/xlink" viewBox="0 0 24 24" fill="none">
  <path d="M17.2778 2.5H6.72222C4.4 2.5 2.5 4.4 2.5 6.72222V17.2778C2.5 19.6 4.4 21.5 6.72222 21.5H17.2778C19.6 21.5 21.5 19.6 21.5 17.2778V6.72222C21.5 4.4 19.6 2.5 17.2778 2.5ZM12.95 12.8444C13.1611 13.0556 13.3722 13.1611 13.6889 13.2667H19.8111V14.6389H13.5833C13.3722 14.6389 13.0556 14.5333 12.8444 14.3222C12 13.9 11.4722 13.0556 11.4722 12.1056C11.3667 10.7333 12.4222 9.46667 13.7944 9.25556C15.3778 9.04444 16.75 10.5222 16.75 12.1056H15.4833C15.4833 11.4722 15.1667 10.7333 14.5333 10.5222C14.2167 10.4167 13.7944 10.4167 13.3722 10.6278C12.95 10.8389 12.6333 11.3667 12.6333 11.8944C12.6333 12.3167 12.7389 12.6333 12.95 12.8444ZM5.35 16.75V10.5222H4.08333V9.25556H6.51111L6.61667 16.75H5.35ZM8.30556 16.75H7.03889V8.51667H5.35V7.25H8.30556V16.75ZM19.9167 16.6444H13.6889C13.5833 16.6444 13.3722 16.6444 13.2667 16.5389C12.6333 16.4333 12 16.1167 11.4722 15.8C10.5222 15.1667 9.88889 14.0056 9.67778 12.8444C9.46667 11.1556 10.1 9.36111 11.3667 8.30556C12.6333 7.25 14.3222 7.03889 15.8 7.56667C17.7 8.30556 18.7556 10.1 18.7556 12.1056H17.4889C17.4889 10.7333 16.75 9.36111 15.5889 8.83333C14.9556 8.51667 14.1111 8.51667 13.4778 8.62222C12.1056 8.93889 11.05 10.2056 10.9444 11.5778C10.7333 12.8444 11.3667 14.1111 12.5278 14.85C12.95 15.0611 13.3722 15.2722 13.7944 15.2722H20.1278L19.9167 16.6444Z" fill="currentColor"/>
</svg>