<svg xmlns="http://www.w3.org/2000/svg" xmlns:xlink="http://www.w3.org/1999/xlink" viewBox="0 0 24 24" fill="none">
  <path d="M20.5 20.5H3.5V22.5H20.5V20.5Z" fill="#D73B41" stroke="#333238" stroke-linejoin="round"/>
  <path d="M20.5 11.5V8.5H14.5V1.5H3.5V11.5H20.5Z" fill="#D73B41" stroke="#333238" stroke-linejoin="round"/>
  <path d="M22.5 11.5H1.5V20.5H22.5V11.5Z" stroke="#333238" stroke-linejoin="round"/>
  <path d="M20.5 8.5L14.5 1.5V8.5H20.5Z" stroke="#333238" stroke-linejoin="round"/>
  <path d="M5.16142 19V13.3305H7.61792C8.91842 13.3305 9.56442 14.223 9.56442 15.2515C9.56442 16.2715 8.91842 17.147 7.61792 17.147H6.76792V19H5.16142ZM7.93242 15.2345C7.93242 14.903 7.71992 14.699 7.42242 14.699H6.76792V15.7785H7.42242C7.71992 15.7785 7.93242 15.5745 7.93242 15.2345ZM10.0838 19V13.3305H12.2258C13.8918 13.3305 14.8778 14.461 14.8778 16.161C14.8778 17.8695 13.9003 19 12.2343 19H10.0838ZM11.6903 17.5975H12.2258C12.8548 17.5975 13.2458 17.062 13.2458 16.161C13.2458 15.2005 12.8888 14.733 12.2258 14.733H11.6903V17.5975ZM15.4378 19V13.3305H19.0163V14.699H17.0443V15.447H18.9568V16.8155H17.0443V19H15.4378Z" fill="#333238"/>
</svg>