<svg xmlns="http://www.w3.org/2000/svg" xmlns:xlink="http://www.w3.org/1999/xlink" viewBox="0 0 24 24" fill="none">
  <path d="M21.0765 17.2451C19.3868 20.1656 16.3784 22.08 13.0575 22.4219C13.0184 22.4219 12.9891 22.4414 12.95 22.4414C12.9207 22.4414 12.9012 22.4414 12.8719 22.4316C12.5691 22.4609 12.2761 22.4902 11.9733 22.4902C11.6705 22.4902 11.3677 22.4512 11.0747 22.4316C11.0454 22.4316 11.0258 22.4414 10.9965 22.4414C10.9575 22.4414 10.9282 22.4219 10.8891 22.4219C7.56816 22.0702 4.56956 20.1656 2.87002 17.2451C2.6649 16.8935 2.79188 16.4442 3.13374 16.2488C3.48537 16.0437 3.93467 16.1707 4.13979 16.5126C5.33142 18.5637 7.26537 20.0386 9.49235 20.6735C9.03328 19.8042 8.47653 18.593 8.037 17.0791C7.92956 16.6884 8.15421 16.2879 8.53514 16.1707C8.91607 16.0633 9.3263 16.2879 9.44351 16.6688C10.0686 18.8665 10.9868 20.3902 11.3677 20.986C11.563 20.9958 11.7584 21.0251 11.9537 21.0251C12.1491 21.0251 12.3444 20.9958 12.5398 20.986C12.9305 20.3902 13.8389 18.8665 14.464 16.6688C14.5714 16.2781 14.9816 16.0535 15.3723 16.1707C15.763 16.2781 15.9877 16.6884 15.8705 17.0791C15.4407 18.593 14.884 19.8042 14.4151 20.6735C16.6421 20.0386 18.5858 18.5637 19.7677 16.5126C19.9728 16.1609 20.4221 16.0437 20.764 16.2488C21.1156 16.454 21.2328 16.9033 21.0277 17.2451H21.0765ZM3.15328 7.7414C3.27049 7.80977 3.39746 7.83907 3.52444 7.83907C3.77839 7.83907 4.02258 7.71209 4.15932 7.47767C5.35095 5.42651 7.28491 3.95163 9.51188 3.31674C9.05281 4.18605 8.49607 5.39721 8.05653 6.91116C7.94909 7.30186 8.17374 7.70233 8.55467 7.81953C8.62304 7.83907 8.69142 7.84884 8.75979 7.84884C9.08211 7.84884 9.37514 7.64372 9.46304 7.32139C10.0882 5.12372 11.0063 3.6 11.3872 3.00419C11.5826 2.99442 11.7779 2.96512 11.9733 2.96512C12.1686 2.96512 12.364 2.99442 12.5593 3.00419C12.95 3.6 13.8584 5.12372 14.4835 7.32139C14.5714 7.64372 14.8644 7.84884 15.1868 7.84884C15.2551 7.84884 15.3235 7.84884 15.3919 7.81953C15.7826 7.71209 16.0072 7.30186 15.89 6.91116C15.4603 5.39721 14.9035 4.18605 14.4347 3.31674C16.6616 3.95163 18.6054 5.42651 19.7872 7.47767C19.9923 7.8293 20.4319 7.94651 20.7835 7.7414C21.1351 7.53628 21.2523 7.08698 21.0472 6.74512C19.3965 3.83442 16.4175 1.92977 13.1258 1.56837C13.0575 1.54884 12.9891 1.54884 12.9207 1.5586C12.6082 1.5293 12.2956 1.5 11.983 1.5C11.6705 1.5 11.3579 1.53907 11.0454 1.5586C10.977 1.5586 10.9086 1.5586 10.8403 1.56837C7.54863 1.92977 4.56956 3.83442 2.88956 6.73535C2.68444 7.08698 2.81142 7.53628 3.15328 7.73163V7.7414ZM15.1184 9.33349C14.7277 9.21628 14.3175 9.44093 14.21 9.82186L13.4482 12.3712L12.6863 9.82186C12.5886 9.5093 12.3054 9.30419 11.983 9.30419C11.6607 9.30419 11.3775 9.51907 11.2798 9.82186L10.5179 12.3712L9.75607 9.82186C9.63886 9.43116 9.23839 9.21628 8.8477 9.33349C8.457 9.4507 8.24211 9.86093 8.35932 10.2419L9.82444 15.1256C9.92211 15.4381 10.2054 15.6433 10.5277 15.6433C10.85 15.6433 11.1333 15.4284 11.231 15.1256L11.9928 12.5763L12.7547 15.1256C12.8523 15.4381 13.1356 15.6433 13.4579 15.6433C13.7803 15.6433 14.0635 15.4284 14.1612 15.1256L15.6263 10.2419C15.7435 9.85116 15.5189 9.4507 15.1379 9.33349H15.1184ZM3.40723 15.1353L4.16909 12.586L4.93095 15.1353C5.02863 15.4479 5.31188 15.653 5.63421 15.653C5.95653 15.653 6.23979 15.4381 6.33746 15.1353L7.80258 10.2516C7.91979 9.86093 7.69514 9.46046 7.31421 9.34326C6.92351 9.22605 6.51328 9.4507 6.40583 9.83163L5.64397 12.3809L4.88211 9.83163C4.78444 9.51907 4.50118 9.31395 4.17886 9.31395C3.85653 9.31395 3.57328 9.52884 3.4756 9.83163L2.71374 12.3809L1.95188 9.83163C1.83467 9.44093 1.42444 9.22605 1.04351 9.34326C0.652811 9.46046 0.437927 9.8707 0.555137 10.2516L2.02025 15.1353C2.11793 15.4479 2.40118 15.653 2.72351 15.653C3.04583 15.653 3.32909 15.4381 3.42676 15.1353H3.40723ZM22.9421 9.34326C22.5514 9.22605 22.1412 9.4507 22.0337 9.83163L21.2719 12.3809L20.51 9.83163C20.4123 9.51907 20.1291 9.31395 19.8068 9.31395C19.4844 9.31395 19.2012 9.52884 19.1035 9.83163L18.3416 12.3809L17.5798 9.83163C17.4626 9.44093 17.0523 9.22605 16.6714 9.34326C16.2807 9.46046 16.0658 9.8707 16.183 10.2516L17.6482 15.1353C17.7458 15.4479 18.0291 15.653 18.3514 15.653C18.6737 15.653 18.957 15.4381 19.0547 15.1353L19.8165 12.586L20.5784 15.1353C20.6761 15.4479 20.9593 15.653 21.2817 15.653C21.604 15.653 21.8872 15.4381 21.9849 15.1353L23.45 10.2516C23.5672 9.86093 23.3426 9.46046 22.9616 9.34326H22.9421Z" fill="currentColor"></path>
</svg>