<svg xmlns="http://www.w3.org/2000/svg" xmlns:xlink="http://www.w3.org/1999/xlink" viewBox="0 0 24 24" fill="none">
  <path d="M20.5 20.5H3.5V22.5H20.5V20.5Z" fill="#E99F00" stroke="#333238" stroke-linejoin="round"/>
  <path d="M20.5 11.5V8.5H14.5V1.5H3.5V11.5H20.5Z" fill="#E99F00" stroke="#333238" stroke-linejoin="round"/>
  <path d="M22.5 11.5H1.5V20.5H22.5V11.5Z" stroke="#333238" stroke-linejoin="round"/>
  <path d="M20.5 8.5L14.5 1.5V8.5H20.5Z" stroke="#333238" stroke-linejoin="round"/>
  <path d="M5.35649 19V13.3305H7.81299C9.11349 13.3305 9.75949 14.223 9.75949 15.2515C9.75949 16.2715 9.11349 17.147 7.81299 17.147H6.96299V19H5.35649ZM8.12749 15.2345C8.12749 14.903 7.91499 14.699 7.61749 14.699H6.96299V15.7785H7.61749C7.91499 15.7785 8.12749 15.5745 8.12749 15.2345ZM10.2788 19V13.3305H12.7353C14.0358 13.3305 14.6818 14.223 14.6818 15.2515C14.6818 16.2715 14.0358 17.147 12.7353 17.147H11.8853V19H10.2788ZM13.0498 15.2345C13.0498 14.903 12.8373 14.699 12.5398 14.699H11.8853V15.7785H12.5398C12.8373 15.7785 13.0498 15.5745 13.0498 15.2345ZM16.1192 19V14.733H14.9462V13.3305H18.8987V14.733H17.7342V19H16.1192Z" fill="#333238"/>
</svg>