<svg xmlns="http://www.w3.org/2000/svg" xmlns:xlink="http://www.w3.org/1999/xlink" viewBox="0 0 24 24" fill="none">
  <path d="M20.5 20.5H3.5V22.5H20.5V20.5Z" fill="#38ABA4" stroke="#333238" stroke-linejoin="round"/>
  <path d="M20.5 11.5V8.5H14.5V1.5H3.5V11.5H20.5Z" fill="#39ABA4" stroke="#333238" stroke-linejoin="round"/>
  <path d="M22.5 11.5H1.5V20.5H22.5V11.5Z" stroke="#333238" stroke-linejoin="round"/>
  <path d="M20.5 8.5L14.5 1.5V8.5H20.5Z" stroke="#333238" stroke-linejoin="round"/>
  <path d="M6.85508 19H5.24858V13.3305H6.85508V19ZM13.5544 19H11.9564V15.9315L10.9194 19H10.3074L9.2789 15.9315V19H7.6724V13.3305H9.7889L10.6134 15.8295L11.4549 13.3305H13.5544V19ZM16.7171 19.102C15.9295 19.102 15.2976 18.8357 14.8216 18.303C14.3513 17.7647 14.1161 17.0535 14.1161 16.1695C14.1161 15.2798 14.3541 14.5687 14.8301 14.036C15.3061 13.5033 15.9351 13.237 16.7171 13.237C17.2441 13.237 17.6833 13.3815 18.0346 13.6705C18.3916 13.9595 18.6466 14.325 18.7996 14.767L17.4821 15.3535C17.4198 15.1552 17.3235 14.9908 17.1931 14.8605C17.0628 14.7245 16.9041 14.6565 16.7171 14.6565C16.4281 14.6565 16.1958 14.784 16.0201 15.039C15.8445 15.2883 15.7566 15.6652 15.7566 16.1695C15.7566 16.6738 15.8445 17.0535 16.0201 17.3085C16.1958 17.5578 16.4281 17.6825 16.7171 17.6825C16.9948 17.6825 17.2101 17.6117 17.3631 17.47V17.0875H16.5811V15.6765H18.8761V18.116C18.2811 18.7733 17.5615 19.102 16.7171 19.102Z" fill="#333238"/>
</svg>