<svg xmlns="http://www.w3.org/2000/svg" xmlns:xlink="http://www.w3.org/1999/xlink" viewBox="0 0 24 24" fill="none">
  <path d="M20.5 20.5H3.5V22.5H20.5V20.5Z" fill="#AC5FBD" stroke="#333238" stroke-linejoin="round"/>
  <path d="M20.5 11.5V8.5H14.5V1.5H3.5V11.5H20.5Z" fill="#AC5FBD" stroke="#333238" stroke-linejoin="round"/>
  <path d="M22.5 11.5H1.5V20.5H22.5V11.5Z" stroke="#333238" stroke-linejoin="round"/>
  <path d="M20.5 8.5L14.5 1.5V8.5H20.5Z" stroke="#333238" stroke-linejoin="round"/>
  <path d="M6.4405 19V17.691L8.1745 14.733H6.4405V13.3305H10.155V14.6055L8.404 17.5975H10.2145V19H6.4405ZM10.8848 19V13.3305H12.4913V19H10.8848ZM13.3086 19V13.3305H15.7651C17.0656 13.3305 17.7116 14.223 17.7116 15.2515C17.7116 16.2715 17.0656 17.147 15.7651 17.147H14.9151V19H13.3086ZM16.0796 15.2345C16.0796 14.903 15.8671 14.699 15.5696 14.699H14.9151V15.7785H15.5696C15.8671 15.7785 16.0796 15.5745 16.0796 15.2345Z" fill="#333238"/>
</svg>