<svg xmlns="http://www.w3.org/2000/svg" xmlns:xlink="http://www.w3.org/1999/xlink" viewBox="0 0 24 24" fill="none">
  <path d="M20.5 20.5H3.5V22.5H20.5V20.5Z" fill="#54B51E" stroke="#333238" stroke-linejoin="round"/>
  <path d="M20.5 11.5V8.5H14.5V1.5H3.5V11.5H20.5Z" fill="#54B51E" stroke="#333238" stroke-linejoin="round"/>
  <path d="M22.5 11.5H1.5V20.5H22.5V11.5Z" stroke="#333238" stroke-linejoin="round"/>
  <path d="M20.5 8.5L14.5 1.5V8.5H20.5Z" stroke="#333238" stroke-linejoin="round"/>
  <path d="M8.59196 19L7.78446 17.317L6.98546 19H5.14946L6.77296 16.093L5.24296 13.3305H7.07896L7.78446 14.903L8.48147 13.3305H10.326L8.80446 16.0845L10.428 19H8.59196ZM10.7312 19V13.3305H12.3377V17.5975H14.0887V19H10.7312ZM14.3167 18.3455L15.0647 17.1215C15.4047 17.4785 15.9232 17.7165 16.4587 17.7165C16.7647 17.7165 16.9942 17.5805 16.9942 17.368C16.9942 17.1215 16.7392 16.9855 16.2887 16.841C15.5577 16.603 14.4867 16.3055 14.4867 15.039C14.4867 14.1125 15.2007 13.237 16.5947 13.237C17.3427 13.237 18.0227 13.4665 18.5242 13.8915L17.7932 15.0815C17.4192 14.767 16.9602 14.6225 16.5947 14.6225C16.2377 14.6225 16.1272 14.7755 16.1272 14.9455C16.1272 15.1835 16.3737 15.3025 16.8497 15.4555C17.5807 15.6935 18.6177 16.0335 18.6177 17.215C18.6177 18.371 17.8017 19.102 16.4842 19.102C15.5067 19.102 14.8267 18.8215 14.3167 18.3455Z" fill="#333238"/>
</svg>