<svg xmlns="http://www.w3.org/2000/svg" xmlns:xlink="http://www.w3.org/1999/xlink" viewBox="0 0 24 24" fill="none">
  <path d="M20.5 20.5H3.5V22.5H20.5V20.5Z" fill="#7EAB34" stroke="#333238" stroke-linejoin="round"/>
  <path d="M20.5 11.5V8.5H14.5V1.5H3.5V11.5H20.5Z" fill="#7EAB34" stroke="#333238" stroke-linejoin="round"/>
  <path d="M22.5 11.5H1.5V20.5H22.5V11.5Z" stroke="#333238" stroke-linejoin="round"/>
  <path d="M20.5 8.5L14.5 1.5V8.5H20.5Z" stroke="#333238" stroke-linejoin="round"/>
  <path d="M7.47724 19L6.83974 17.147H6.43174V19H4.82524V13.3305H7.32424C8.49724 13.3305 9.22824 14.172 9.22824 15.2175C9.22824 16.1695 8.75224 16.654 8.37824 16.8665L9.25374 19H7.47724ZM7.59624 15.2345C7.59624 14.8945 7.35824 14.699 7.06924 14.699H6.43174V15.7785H7.06924C7.35824 15.7785 7.59624 15.5745 7.59624 15.2345ZM12.9831 19L12.8131 18.235H11.1896L11.0196 19H9.36211L11.0281 13.3305H12.9746L14.6406 19H12.9831ZM12.0056 14.733L11.4956 16.8665H12.5071L12.0056 14.733ZM17.5959 19L16.9584 17.147H16.5504V19H14.9439V13.3305H17.4429C18.6159 13.3305 19.3469 14.172 19.3469 15.2175C19.3469 16.1695 18.8709 16.654 18.4969 16.8665L19.3724 19H17.5959ZM17.7149 15.2345C17.7149 14.8945 17.4769 14.699 17.1879 14.699H16.5504V15.7785H17.1879C17.4769 15.7785 17.7149 15.5745 17.7149 15.2345Z" fill="#333238"/>
</svg>