<svg xmlns="http://www.w3.org/2000/svg" xmlns:xlink="http://www.w3.org/1999/xlink" viewBox="0 0 24 24" fill="none">
  <path d="M17.2778 2.5H6.72222C4.38944 2.5 2.5 4.38944 2.5 6.72222V17.2778C2.5 19.6106 4.38944 21.5 6.72222 21.5H17.2778C19.6106 21.5 21.5 19.6106 21.5 17.2778V6.72222C21.5 4.38944 19.6106 2.5 17.2778 2.5ZM13.6256 17.8056H10.3744V9.97333H13.6256V17.8056ZM13.33 8.92833C13.0344 9.13944 12.5911 9.23444 12 9.23444C11.4089 9.23444 10.9656 9.12889 10.67 8.92833C10.3744 8.70667 10.2267 8.42167 10.2267 8.05222C10.2267 7.68278 10.3744 7.39778 10.67 7.19722C10.9656 6.97556 11.4089 6.87 12 6.87C12.5911 6.87 13.0344 6.97556 13.33 7.19722C13.6256 7.40833 13.7733 7.69333 13.7733 8.05222C13.7733 8.41111 13.6256 8.70667 13.33 8.92833Z" fill="currentColor"></path>
</svg>