<svg xmlns="http://www.w3.org/2000/svg" xmlns:xlink="http://www.w3.org/1999/xlink" viewBox="0 0 24 24" fill="none">
  <path d="M12.6632 11.6684C12.6632 12.2211 12.5526 12.6632 12.2211 13.1053C12 13.4368 11.6684 13.5474 11.1158 13.5474H10.7842V10.0105H11.2263C12.2211 10.0105 12.6632 10.5632 12.6632 11.6684ZM22.5 12C22.5 17.8026 17.8026 22.5 12 22.5C6.19737 22.5 1.5 17.8026 1.5 12C1.5 6.19737 6.19737 1.5 12 1.5C17.8026 1.5 22.5 6.19737 22.5 12ZM7.91053 8.57368H6.1421V14.2105C6.1421 14.6526 6.03158 14.8737 5.92105 15.0947C5.81053 15.3158 5.58947 15.4263 5.25789 15.4263H4.59474V16.7526C4.70526 16.8632 4.81579 16.8632 4.92632 16.8632H5.47895C5.92105 16.8632 6.36316 16.7526 6.80526 16.5316C7.13684 16.4211 7.35789 16.0895 7.57895 15.7579C7.8 15.3158 7.91053 14.8737 7.91053 14.2105V8.57368ZM14.4316 11.5579C14.4316 10.5632 14.2105 9.9 13.6579 9.34737C13.1053 8.79474 12.3316 8.57368 11.3368 8.57368H9.12632V14.8737H11.1158C11.7789 14.8737 12.4421 14.7632 12.8842 14.5421C13.3263 14.3211 13.7684 13.8789 13.9895 13.4368C14.3211 12.8842 14.4316 12.3316 14.4316 11.5579ZM19.4053 8.57368H15.6474V14.8737H19.4053V13.4368H17.4158V12.2211H19.2947V10.8947H17.4158V9.9H19.4053V8.57368Z" fill="currentColor"></path>
</svg>