<svg xmlns="http://www.w3.org/2000/svg" xmlns:xlink="http://www.w3.org/1999/xlink" viewBox="0 0 24 24" fill="none">
  <path d="M19.4701 4.02994C19.1701 3.73994 19.1701 3.25994 19.4701 2.96994L20.4701 1.96994C20.7601 1.67994 21.2301 1.67994 21.5301 1.96994C21.8201 2.25994 21.8201 2.73994 21.5301 3.02994L20.5301 4.02994C20.3801 4.17994 20.1901 4.24994 20.0001 4.24994C19.8001 4.24994 19.6101 4.17994 19.4701 4.02994ZM20.5301 14.9699C20.2301 14.6799 19.7601 14.6799 19.4701 14.9699C19.1701 15.2599 19.1701 15.7399 19.4701 16.0299L20.4701 17.0299C20.6101 17.1799 20.8001 17.2499 21.0001 17.2499C21.2001 17.2499 21.3801 17.1799 21.5301 17.0299C21.8201 16.7399 21.8201 16.2599 21.5301 15.9699L20.5301 14.9699ZM15.0001 17.7499H9.00012C8.58012 17.7499 8.25012 18.0899 8.25012 18.4999C8.25012 18.9099 8.58012 19.2499 9.00012 19.2499H15.0001C15.4101 19.2499 15.7501 18.9099 15.7501 18.4999C15.7501 18.0899 15.4101 17.7499 15.0001 17.7499ZM14.0001 20.7499H10.0001C9.58012 20.7499 9.25012 21.0899 9.25012 21.4999C9.25012 21.9099 9.58012 22.2499 10.0001 22.2499H14.0001C14.4101 22.2499 14.7501 21.9099 14.7501 21.4999C14.7501 21.0899 14.4101 20.7499 14.0001 20.7499ZM12.0101 2.74994C9.70012 2.74994 7.87012 3.37994 6.70012 4.55994C5.73012 5.54994 5.23012 6.91994 5.26012 8.50994C5.28012 10.1499 5.80012 11.3499 6.98012 12.5299C7.93012 13.4899 8.26012 13.8099 8.26012 15.4999C8.26012 15.9099 8.59012 16.2499 9.01012 16.2499H15.0101C15.4201 16.2499 15.7601 15.9099 15.7601 15.4999C15.7601 13.8099 16.0801 13.4899 17.0401 12.5299C18.2201 11.3499 18.7301 10.1499 18.7601 8.50994C18.7801 6.91994 18.2801 5.54994 17.3101 4.55994C16.1401 3.37994 14.3101 2.74994 12.0101 2.74994ZM3.53012 1.96994C3.24012 1.67994 2.76012 1.67994 2.47012 1.96994C2.18012 2.25994 2.18012 2.73994 2.47012 3.02994L3.47012 4.02994C3.61012 4.17994 3.80012 4.24994 4.00012 4.24994C4.20012 4.24994 4.38012 4.17994 4.53012 4.02994C4.82012 3.73994 4.82012 3.25994 4.53012 2.96994L3.53012 1.96994ZM3.47012 14.9699L2.47012 15.9699C2.17012 16.2599 2.17012 16.7399 2.47012 17.0299C2.61012 17.1799 2.80012 17.2499 3.00012 17.2499C3.20012 17.2499 3.38012 17.1799 3.53012 17.0299L4.53012 16.0299C4.82012 15.7399 4.82012 15.2599 4.53012 14.9699C4.23012 14.6799 3.76012 14.6799 3.47012 14.9699Z" fill="currentColor"></path>
</svg>