<svg xmlns="http://www.w3.org/2000/svg" xmlns:xlink="http://www.w3.org/1999/xlink" viewBox="0 0 24 24" fill="none">
  <path d="M23 4.8499V1.8499C23 1.4499 22.7 1.1499 22.3 1.1499H18.6C15.3 1.1499 12.4 3.4499 11.6 6.4499C10.3 4.3499 8 2.9499 5.4 2.9499H3.7C3.3 2.9499 3 3.2499 3 3.5499V5.7499C3 8.2499 4.4 10.4499 6.4 11.6499C3.3 12.6499 1 15.6499 1 19.1499V22.1499C1 22.5499 1.3 22.8499 1.7 22.8499H5.4C8.7 22.8499 11.6 20.5499 12.4 17.5499C13.7 19.6499 16 21.0499 18.7 21.0499H20.4C20.8 21.0499 21.1 20.7499 21.1 20.3499V18.1499C21.1 15.6499 19.7 13.4499 17.7 12.2499C20.7 11.2499 23 8.3499 23 4.8499ZM4.3 5.8499V4.2499H5.3C8.6 4.2499 11.3 6.9499 11.3 10.2499V11.3499H9.9C6.8 11.3499 4.3 8.8499 4.3 5.8499ZM11.3 15.5499C11.3 18.8499 8.6 21.5499 5.3 21.5499H2.3V19.2499C2.3 15.6499 5.2 12.7499 8.8 12.7499H11.3V15.5499ZM19.7 18.2499V19.8499H18.7C15.4 19.8499 12.7 17.1499 12.7 13.8499V12.7499H14.2C17.2 12.6499 19.7 15.1499 19.7 18.2499ZM15.1 11.3499H12.6V8.4499C12.6 5.1499 15.3 2.4499 18.6 2.4499H21.6V4.7499C21.7 8.4499 18.7 11.3499 15.1 11.3499ZM17.8 6.9499C17.8 7.3499 17.5 7.6499 17.1 7.6499H14.4C14 7.6499 13.7 7.3499 13.7 6.9499C13.7 6.5499 14 6.2499 14.4 6.2499H17.1C17.5 6.3499 17.8 6.6499 17.8 6.9499ZM17.8 9.4499C17.8 9.8499 17.5 10.1499 17.1 10.1499H14.4C14 10.1499 13.7 9.8499 13.7 9.4499C13.7 9.0499 14 8.7499 14.4 8.7499H17.1C17.5 8.8499 17.8 9.1499 17.8 9.4499ZM9.5 13.9499C9.9 13.9499 10.2 14.2499 10.2 14.6499C10.2 15.0499 9.9 15.3499 9.5 15.3499H6.8C6.4 15.3499 6.1 15.0499 6.1 14.6499C6.1 14.2499 6.4 13.9499 6.8 13.9499H9.5ZM10.2 17.0499C10.2 17.4499 9.9 17.7499 9.5 17.7499H6.8C6.4 17.7499 6.1 17.4499 6.1 17.0499C6.1 16.6499 6.4 16.3499 6.8 16.3499H9.5C9.9 16.4499 10.2 16.7499 10.2 17.0499Z" fill="currentColor"></path>
</svg>