<svg xmlns="http://www.w3.org/2000/svg" xmlns:xlink="http://www.w3.org/1999/xlink" viewBox="0 0 24 24" fill="none">
  <path d="M17.5882 2.5H6.41176C4.25471 2.5 2.5 4.25471 2.5 6.41176V17.5882C2.5 19.7453 4.25471 21.5 6.41176 21.5H17.5882C19.7453 21.5 21.5 19.7453 21.5 17.5882V6.41176C21.5 4.25471 19.7453 2.5 17.5882 2.5ZM8.36765 16.4706C8.36765 16.9288 7.98765 17.3088 7.52941 17.3088C7.07118 17.3088 6.69118 16.9288 6.69118 16.4706V13.1176C6.69118 12.6594 7.07118 12.2794 7.52941 12.2794C7.98765 12.2794 8.36765 12.6594 8.36765 13.1176V16.4706ZM12.8382 16.4706C12.8382 16.9288 12.4582 17.3088 12 17.3088C11.5418 17.3088 11.1618 16.9288 11.1618 16.4706V10.8824C11.1618 10.4241 11.5418 10.0441 12 10.0441C12.4582 10.0441 12.8382 10.4241 12.8382 10.8824V16.4706ZM17.3088 16.4706C17.3088 16.9288 16.9288 17.3088 16.4706 17.3088C16.0124 17.3088 15.6324 16.9288 15.6324 16.4706V7.52941C15.6324 7.07118 16.0124 6.69118 16.4706 6.69118C16.9288 6.69118 17.3088 7.07118 17.3088 7.52941V16.4706Z" fill="currentColor"></path>
</svg>