<svg xmlns="http://www.w3.org/2000/svg" xmlns:xlink="http://www.w3.org/1999/xlink" viewBox="0 0 24 24" fill="none">
  <path d="M20.75 3.6C20.75 2.86 20.14 2.25 19.4 2.25H6C4.48 2.25 3.25 3.48 3.25 5V19C3.25 20.52 4.48 21.75 6 21.75H20C20.41 21.75 20.75 21.41 20.75 21C20.75 20.59 20.41 20.25 20 20.25H6C5.31 20.25 4.75 19.69 4.75 19C4.75 18.31 5.31 17.75 6 17.75H20C20.41 17.75 20.75 17.41 20.75 17C20.75 16.95 20.73 16.91 20.72 16.86C20.72 16.81 20.75 16.77 20.75 16.72V3.6ZM8.75 3.75H12.25V9.63L10.9 8.77C10.65 8.61 10.34 8.61 10.09 8.77L8.74 9.63V3.75H8.75ZM4.75 16.56V5C4.75 4.31 5.31 3.75 6 3.75H7.25V11C7.25 11.27 7.4 11.53 7.64 11.66C7.88 11.79 8.17 11.78 8.4 11.63L10.5 10.29L12.6 11.63C12.72 11.71 12.86 11.75 13 11.75C13.12 11.75 13.25 11.72 13.36 11.66C13.6 11.53 13.75 11.28 13.75 11V3.75H19.25V16.25H6C5.55 16.25 5.13 16.37 4.75 16.56Z" fill="currentColor"></path>
</svg>