<svg xmlns="http://www.w3.org/2000/svg" xmlns:xlink="http://www.w3.org/1999/xlink" viewBox="0 0 24 24">
    <path d="m12,2C6.49,2,2,6.49,2,12s4.49,10,10,10,10-4.49,10-10S17.51,2,12,2Zm2.57,10c0,1.42-1.15,2.57-2.57,2.57s-2.57-1.15-2.57-2.57,1.15-2.57,2.57-2.57,2.57,1.15,2.57,2.57Z" fill="#f3f5f9" stroke-width="0"/>
    <path d="m3,12c0,1.18.23,2.35.69,3.44.45,1.09,1.12,2.08,1.95,2.92.84.84,1.83,1.5,2.92,1.95,1.09.45,2.26.69,3.44.69v-5.43c-.47,0-.93-.09-1.37-.27-.43-.18-.83-.44-1.16-.77-.33-.33-.59-.73-.77-1.16s-.27-.9-.27-1.37H3Z" fill="#eb5757" stroke-width="0"/>
    <path d="m21,12c0-1.18-.23-2.35-.69-3.44-.45-1.09-1.12-2.08-1.95-2.92-.84-.84-1.83-1.5-2.92-1.95-1.09-.45-2.26-.69-3.44-.69v5.43c.47,0,.93.09,1.37.27s.83.44,1.16.77c.33.33.59.73.77,1.16.18.43.27.9.27,1.37h5.43Z" fill="#eb5757" stroke-width="0"/>
</svg>