<svg xmlns="http://www.w3.org/2000/svg" xmlns:xlink="http://www.w3.org/1999/xlink" viewBox="0 0 24 24" fill="none">
  <path d="M12 1.5C6.2145 1.5 1.5 6.2145 1.5 12C1.5 17.7855 6.2145 22.5 12 22.5C17.7855 22.5 22.5 17.7855 22.5 12C22.5 6.2145 17.7855 1.5 12 1.5ZM12 21.45C10.761 21.45 9.5325 21.2085 8.388 20.7255C7.2435 20.253 6.204 19.5495 5.322 18.678C4.44 17.796 3.747 16.7565 3.2745 15.612C2.802 14.4675 2.55 13.239 2.55 12H8.2515C8.2515 12.4935 8.346 12.9765 8.535 13.4385C8.724 13.89 8.997 14.31 9.3435 14.6565C9.69 15.003 10.11 15.276 10.5615 15.465C11.013 15.654 11.5065 15.7485 12 15.7485V21.45ZM12 14.6985C10.509 14.6985 9.3015 13.491 9.3015 12C9.3015 10.509 10.509 9.3015 12 9.3015C13.491 9.3015 14.6985 10.509 14.6985 12C14.6985 13.491 13.491 14.6985 12 14.6985ZM15.7485 12C15.7485 11.5065 15.654 11.0235 15.465 10.5615C15.276 10.0995 15.003 9.69 14.6565 9.3435C14.31 8.997 13.89 8.724 13.4385 8.535C12.987 8.346 12.4935 8.2515 12 8.2515V2.55C13.239 2.55 14.4675 2.7915 15.612 3.2745C16.7565 3.747 17.796 4.4505 18.678 5.322C19.56 6.204 20.253 7.2435 20.7255 8.388C21.198 9.5325 21.45 10.761 21.45 12H15.7485Z" fill="currentColor"></path>
</svg>