<?xml version="1.0" encoding="UTF-8"?>
<svg id="a" data-name="Layer 1" xmlns="http://www.w3.org/2000/svg" viewBox="0 0 24 24">
  <g>
    <path d="m19.47,2.47l1-1c.29-.29.76-.29,1.06,0,.29.29.29.77,0,1.06l-1,1c-.15.15-.34.22-.53.22-.2,0-.39-.07-.53-.22-.3-.29-.3-.77,0-1.06Z" fill="#f2c94c" stroke-width="0"/>
    <path d="m19.47,15.53c-.3-.29-.3-.77,0-1.06.29-.29.76-.29,1.06,0l1,1c.29.29.29.77,0,1.06-.15.15-.34.22-.53.22-.2,0-.39-.07-.53-.22l-1-1Z" fill="#f2c94c" stroke-width="0"/>
    <path d="m16.23,5.11c.69.71,1.03,1.68,1.02,2.88-.02,1.24-.38,2.08-1.28,2.98-1,.99-1.57,1.65-1.7,3.28h-4.55c-.13-1.63-.7-2.29-1.69-3.28-.91-.9-1.27-1.74-1.28-2.98-.02-1.2.32-2.17,1.01-2.88.88-.89,2.35-1.36,4.24-1.36s3.35.47,4.23,1.36Z" fill="#f2c94c" stroke-width="0"/>
    <path d="m15,17.25c.41,0,.75.34.75.75s-.34.75-.75.75h-6c-.42,0-.75-.34-.75-.75s.33-.75.75-.75h6Z" fill="#f2c94c" stroke-width="0"/>
    <path d="m14,20.25c.41,0,.75.34.75.75s-.34.75-.75.75h-4c-.42,0-.75-.34-.75-.75s.33-.75.75-.75h4Z" fill="#f2c94c" stroke-width="0"/>
    <path d="m7.5,11.5c1,1,1.5,1.5,1.5,3.5h6c0-1,.12-1.62.38-2.12.24-.5.62-.88,1.12-1.38,1-1,1.47-2.01,1.5-3.5.04-3.05-2-5-6-5s-6.05,1.95-6,5c.02,1.49.5,2.5,1.5,3.5Zm.75,3.5c0-1.69-.33-2.01-1.28-2.97-1.18-1.18-1.7-2.38-1.72-4.02-.03-1.59.47-2.96,1.44-3.95,1.17-1.18,3-1.81,5.31-1.81s4.13.63,5.3,1.81c.97.99,1.47,2.36,1.45,3.95-.03,1.64-.54,2.84-1.72,4.02-.96.96-1.28,1.28-1.28,2.97,0,.41-.34.75-.75.75h-6c-.42,0-.75-.34-.75-.75Z" fill="#f2c94c" stroke-width="0"/>
    <path d="m4.53,2.47c.29.29.29.77,0,1.06-.15.15-.34.22-.53.22-.2,0-.39-.07-.53-.22l-1-1c-.3-.29-.3-.77,0-1.06.29-.29.76-.29,1.06,0l1,1Z" fill="#f2c94c" stroke-width="0"/>
    <path d="m4.53,14.47c.29.29.29.77,0,1.06l-1,1c-.15.15-.34.22-.53.22-.2,0-.39-.07-.53-.22-.3-.29-.3-.77,0-1.06l1-1c.29-.29.76-.29,1.06,0Z" fill="#f2c94c" stroke-width="0"/>
  </g>
  <path d="m12,3.75c-1.89,0-3.36.47-4.24,1.36-.69.71-1.03,1.68-1.01,2.88.01,1.24.37,2.08,1.28,2.98.99.99,1.56,1.65,1.69,3.28h4.55c.13-1.63.7-2.29,1.7-3.28.9-.9,1.26-1.74,1.28-2.98.01-1.2-.33-2.17-1.02-2.88-.88-.89-2.34-1.36-4.23-1.36Zm-3,11.25c0-2-.5-2.5-1.5-3.5s-1.48-2.01-1.5-3.5c-.05-3.05,2-5,6-5s6.04,1.95,6,5c-.03,1.49-.5,2.5-1.5,3.5-.5.5-.88.88-1.12,1.38-.26.5-.38,1.12-.38,2.12h-6Z" fill="#f2c94c" stroke-width="0"/>
</svg>