<?xml version="1.0" encoding="UTF-8"?>
<svg id="a" data-name="Layer 1" xmlns="http://www.w3.org/2000/svg" viewBox="0 0 24 24">
  <g>
    <path d="m3,17V7c0-2.2,1.8-4,4-4h10c2.2,0,4,1.8,4,4v10c0,2.2-1.8,4-4,4H7c-2.2,0-4-1.8-4-4Z" fill="#eb5757" stroke-width="0"/>
    <path d="m17,21.5H7c-2.48,0-4.5-2.02-4.5-4.5V7c0-2.48,2.02-4.5,4.5-4.5h10c2.48,0,4.5,2.02,4.5,4.5v10c0,2.48-2.02,4.5-4.5,4.5ZM7,3.5c-1.93,0-3.5,1.57-3.5,3.5v10c0,1.93,1.57,3.5,3.5,3.5h10c1.93,0,3.5-1.57,3.5-3.5V7c0-1.93-1.57-3.5-3.5-3.5H7Z" fill="#f3f5f9" stroke-width="0"/>
  </g>
  <path d="m16,16.75c-.41,0-.75-.34-.75-.75v-8c0-.41.34-.75.75-.75s.75.34.75.75v8c0,.41-.34.75-.75.75Z" fill="#f3f5f9" stroke-width="0"/>
  <path d="m12,16.75c-.41,0-.75-.34-.75-.75v-5c0-.41.34-.75.75-.75s.75.34.75.75v5c0,.41-.34.75-.75.75Z" fill="#f3f5f9" stroke-width="0"/>
  <path d="m8,16.75c-.41,0-.75-.34-.75-.75v-3c0-.41.34-.75.75-.75s.75.34.75.75v3c0,.41-.34.75-.75.75Z" fill="#f3f5f9" stroke-width="0"/>
</svg>