<?xml version="1.0" encoding="utf-8"?>
<!-- Generator: Adobe Illustrator 28.1.0, SVG Export Plug-In . SVG Version: 6.00 Build 0)  -->
<svg version="1.1" id="Layer_1" xmlns="http://www.w3.org/2000/svg" xmlns:xlink="http://www.w3.org/1999/xlink" x="0px" y="0px"
	 viewBox="0 0 882.1 419" style="enable-background:new 0 0 882.1 419;" xml:space="preserve">
<style type="text/css">
	.st0{fill:url(#SVGID_1_);stroke:#F3F5F9;stroke-miterlimit:10;}
	.st1{fill:url(#SVGID_00000018931190980754350640000002010441304121085875_);stroke:#F3F5F9;stroke-miterlimit:10;}
	.st2{fill:#F9FAFC;stroke:#F3F5F9;stroke-miterlimit:10;}
	.st3{fill:#F3F5F9;stroke:#F3F5F9;stroke-miterlimit:10;}
	.st4{fill:url(#SVGID_00000069394810752810293660000015903937510038662284_);stroke:#F3F5F9;stroke-miterlimit:10;}
	.st5{fill:url(#SVGID_00000114788903569367811790000005081756314344419736_);stroke:#F3F5F9;stroke-miterlimit:10;}
	.st6{fill:url(#SVGID_00000152969541877571165820000000465226816182221725_);stroke:#F3F5F9;stroke-miterlimit:10;}
	.st7{fill:url(#SVGID_00000090996229060510167380000003718634905769519752_);stroke:#F3F5F9;stroke-miterlimit:10;}
	.st8{fill:url(#SVGID_00000078008635614761218650000006659490598846906795_);stroke:#F3F5F9;stroke-miterlimit:10;}
	.st9{fill:url(#SVGID_00000137836063316592116580000005342167869530933949_);stroke:#F3F5F9;stroke-miterlimit:10;}
	.st10{fill:url(#SVGID_00000115476787339913568390000004056590986371442365_);stroke:#F3F5F9;stroke-miterlimit:10;}
	.st11{fill:url(#SVGID_00000003786488091218490500000006980452803986638991_);stroke:#F3F5F9;stroke-miterlimit:10;}
	.st12{fill:#FFFFFF;stroke:#F3F5F9;stroke-miterlimit:10;}
	.st13{fill:url(#SVGID_00000036225012706841074060000007539949036825016714_);stroke:#F3F5F9;stroke-miterlimit:10;}
	.st14{fill:url(#SVGID_00000134956342412115610500000000534568908243529368_);stroke:#F3F5F9;stroke-miterlimit:10;}
	.st15{fill:url(#SVGID_00000127034058024195700900000016670754802387225499_);stroke:#F3F5F9;stroke-miterlimit:10;}
	.st16{fill:url(#SVGID_00000169549537224181986050000012780590729050710970_);stroke:#F3F5F9;stroke-miterlimit:10;}
	.st17{fill:url(#SVGID_00000031929593728081721810000004474094037234802861_);stroke:#F3F5F9;stroke-miterlimit:10;}
	.st18{fill:url(#SVGID_00000131359767621976118090000000621731951253104546_);stroke:#F3F5F9;stroke-miterlimit:10;}
	.st19{fill:url(#SVGID_00000016057995141681483270000001176705352815986080_);stroke:#F3F5F9;stroke-miterlimit:10;}
	.st20{fill:url(#SVGID_00000062893713642700230160000006722169627898006950_);stroke:#F3F5F9;stroke-miterlimit:10;}
	.st21{fill:url(#SVGID_00000144308136876196438630000007069521494927233412_);stroke:#F3F5F9;stroke-miterlimit:10;}
	.st22{fill:url(#SVGID_00000068664280325930704170000013852205008042626956_);stroke:#F3F5F9;stroke-miterlimit:10;}
	.st23{fill:url(#SVGID_00000079444526362301287390000000272872377099636371_);stroke:#F3F5F9;stroke-miterlimit:10;}
	.st24{fill:url(#SVGID_00000022535084021949783560000004524729949331705739_);stroke:#F3F5F9;stroke-miterlimit:10;}
	.st25{fill:url(#SVGID_00000139257540083569864660000010277964890845612938_);stroke:#F3F5F9;stroke-miterlimit:10;}
	.st26{fill:url(#SVGID_00000089569977921803084080000001337138548267186084_);stroke:#F3F5F9;stroke-miterlimit:10;}
	.st27{fill:url(#SVGID_00000008149229694394964750000007723693157714713989_);stroke:#F3F5F9;stroke-miterlimit:10;}
	.st28{fill:url(#SVGID_00000149376719565215609350000001077021306120119473_);stroke:#F3F5F9;stroke-miterlimit:10;}
	.st29{fill:#005B94;}
</style>
<g id="_x31_MeRhO_00000008829545946040109320000000880812326053749677_">
	
		<image style="overflow:visible;" width="2428" height="1540" id="_x31_MeRhO_00000013899196480323083530000011826733412006365107_" xlink:href="8E0F569643D8BBB.png"  transform="matrix(0.5 0 0 0.5 -177.5661 840.4442)">
	</image>
</g>
<g id="PTIUTq_00000029046482276011221320000009800654885407381400_">
	
		<image style="overflow:visible;" width="2378" height="1604" id="PTIUTq_00000077287530017295249030000005650564475656128918_" xlink:href="8E0F569643D8BB9.png"  transform="matrix(0.5 0 0 0.5 -1452.3339 356.7734)">
	</image>
</g>
<linearGradient id="SVGID_1_" gradientUnits="userSpaceOnUse" x1="-396.493" y1="-338.7768" x2="-357.4268" y2="-420.4076">
	<stop  offset="0" style="stop-color:#50E8D3"/>
	<stop  offset="0.3438" style="stop-color:#49E8C9"/>
	<stop  offset="0.6458" style="stop-color:#47EAC1"/>
	<stop  offset="1" style="stop-color:#44EDB9"/>
</linearGradient>
<path class="st0" d="M-390.7-306.6l-61.9-111.5c18.9-10.5,40.2-16,61.9-16c42.9,0,83,21.6,106.6,57.5L-390.7-306.6z"/>
<linearGradient id="SVGID_00000080910978960801504850000000368140936506901183_" gradientUnits="userSpaceOnUse" x1="-364.1003" y1="-330.174" x2="-266.5857" y2="-338.1343">
	<stop  offset="0" style="stop-color:#72C6EF"/>
	<stop  offset="1" style="stop-color:#004E8F"/>
</linearGradient>
<path style="fill:url(#SVGID_00000080910978960801504850000000368140936506901183_);stroke:#F3F5F9;stroke-miterlimit:10;" d="
	M-390.7-306.6l89.3-58.7c5.7,8.7,10.1,18.1,13.1,28.1c3,9.9,4.5,20.3,4.5,30.7H-390.7z"/>
<path class="st2" d="M-390.7-306.6l97.9,0c0,20.1-6.2,39.7-17.7,56.1c-11.5,16.4-27.8,29-46.7,35.8L-390.7-306.6z"/>
<path class="st3" d="M-390.7-306.6l38.8,106.5c-12.4,4.5-25.6,6.8-38.8,6.8c-62.2,0-113.4-51.2-113.4-113.4H-390.7z"/>
<linearGradient id="SVGID_00000022561976598769760050000003786656973099310468_" gradientUnits="userSpaceOnUse" x1="-399.9197" y1="-308.0832" x2="-475.5432" y2="-399.6275">
	<stop  offset="0" style="stop-color:#E36432"/>
	<stop  offset="0.2" style="stop-color:#E05D45"/>
	<stop  offset="0.4" style="stop-color:#DD5556"/>
	<stop  offset="0.6" style="stop-color:#DA4D66"/>
	<stop  offset="0.8" style="stop-color:#D64575"/>
	<stop  offset="1" style="stop-color:#D13C84"/>
</linearGradient>
<path style="fill:url(#SVGID_00000022561976598769760050000003786656973099310468_);stroke:#F3F5F9;stroke-miterlimit:10;" d="
	M-390.7-306.6l-88.1-57.2c4.7-7.2,10.2-13.8,16.4-19.6s13.2-10.9,20.7-15L-390.7-306.6z"/>
<linearGradient id="SVGID_00000155851949709341539200000014097115528488574341_" gradientUnits="userSpaceOnUse" x1="-419.565" y1="-312.5439" x2="-537.6439" y2="-351.019">
	<stop  offset="0" style="stop-color:#FFE259"/>
	<stop  offset="1" style="stop-color:#FFA751"/>
</linearGradient>
<path style="fill:url(#SVGID_00000155851949709341539200000014097115528488574341_);stroke:#F3F5F9;stroke-miterlimit:10;" d="
	M-390.7-306.6h-127.4c0-12.2,1.8-24.4,5.2-36.2c3.5-11.7,8.6-22.9,15.3-33.2L-390.7-306.6z"/>
<linearGradient id="SVGID_00000041265073196656432100000017728719333156671376_" gradientUnits="userSpaceOnUse" x1="-95.2273" y1="-338.7768" x2="-56.1611" y2="-420.4076">
	<stop  offset="0" style="stop-color:#50E8D3"/>
	<stop  offset="0.3438" style="stop-color:#49E8C9"/>
	<stop  offset="0.6458" style="stop-color:#47EAC1"/>
	<stop  offset="1" style="stop-color:#44EDB9"/>
</linearGradient>
<path style="fill:url(#SVGID_00000041265073196656432100000017728719333156671376_);stroke:#F3F5F9;stroke-miterlimit:10;" d="
	M-89.5-306.6l-61.9-111.5c18.9-10.5,40.2-16,61.9-16c42.9,0,83,21.6,106.6,57.5L-89.5-306.6z"/>
<linearGradient id="SVGID_00000005951319926207623350000013382134571067888785_" gradientUnits="userSpaceOnUse" x1="-62.8346" y1="-330.174" x2="34.68" y2="-338.1343">
	<stop  offset="0" style="stop-color:#72C6EF"/>
	<stop  offset="1" style="stop-color:#004E8F"/>
</linearGradient>
<path style="fill:url(#SVGID_00000005951319926207623350000013382134571067888785_);stroke:#F3F5F9;stroke-miterlimit:10;" d="
	M-89.5-306.6l89.3-58.7c5.7,8.7,10.1,18.1,13.1,28.1c3,9.9,4.5,20.3,4.5,30.7H-89.5z"/>
<path class="st2" d="M-89.5-306.6H8.4c0,17.5-4.7,34.6-13.5,49.6c-8.9,15-21.6,27.4-36.8,35.9L-89.5-306.6z"/>
<path class="st3" d="M-89.5-306.6l42,75.6c-12.8,7.1-27.3,10.9-42,10.9c-47.4,0-86.5-39-86.5-86.5H-89.5z"/>
<linearGradient id="SVGID_00000134218574890204783000000000248619728813238151_" gradientUnits="userSpaceOnUse" x1="-98.654" y1="-308.0832" x2="-174.2775" y2="-399.6275">
	<stop  offset="0" style="stop-color:#E36432"/>
	<stop  offset="0.2" style="stop-color:#E05D45"/>
	<stop  offset="0.4" style="stop-color:#DD5556"/>
	<stop  offset="0.6" style="stop-color:#DA4D66"/>
	<stop  offset="0.8" style="stop-color:#D64575"/>
	<stop  offset="1" style="stop-color:#D13C84"/>
</linearGradient>
<path style="fill:url(#SVGID_00000134218574890204783000000000248619728813238151_);stroke:#F3F5F9;stroke-miterlimit:10;" d="
	M-89.5-306.6l-88.1-57.2c4.7-7.2,10.2-13.8,16.4-19.6c6.3-5.8,13.2-10.9,20.7-15L-89.5-306.6z"/>
<linearGradient id="SVGID_00000116205305185414357040000014511654558518248329_" gradientUnits="userSpaceOnUse" x1="-115.4536" y1="-311.9603" x2="-221.8737" y2="-346.6365">
	<stop  offset="0" style="stop-color:#FFE259"/>
	<stop  offset="1" style="stop-color:#FFA751"/>
</linearGradient>
<path style="fill:url(#SVGID_00000116205305185414357040000014511654558518248329_);stroke:#F3F5F9;stroke-miterlimit:10;" d="
	M-89.5-306.6h-114.8c0-11,1.6-22,4.7-32.6c3.1-10.6,7.8-20.7,13.8-29.9L-89.5-306.6z"/>
<linearGradient id="SVGID_00000060734561466588348650000000038896216146159755_" gradientUnits="userSpaceOnUse" x1="106.9602" y1="-633.7753" x2="146.0264" y2="-715.4061">
	<stop  offset="0" style="stop-color:#50E8D3"/>
	<stop  offset="0.3438" style="stop-color:#49E8C9"/>
	<stop  offset="0.6458" style="stop-color:#47EAC1"/>
	<stop  offset="1" style="stop-color:#44EDB9"/>
</linearGradient>
<path style="fill:url(#SVGID_00000060734561466588348650000000038896216146159755_);stroke:#F3F5F9;stroke-miterlimit:10;" d="
	M112.6-601.7L55-705.5c-2.4-4.3-0.6-9.8,3.9-11.9c16.8-7.8,35.2-11.9,53.8-11.9c39.8,0,77.3,18.7,101.3,50c3,3.9,2.1,9.6-2.1,12.3
	L112.6-601.7z"/>
<linearGradient id="SVGID_00000154415781110046196750000005364720879920994218_" gradientUnits="userSpaceOnUse" x1="139.1984" y1="-625.5784" x2="236.7119" y2="-633.5387">
	<stop  offset="0" style="stop-color:#72C6EF"/>
	<stop  offset="1" style="stop-color:#004E8F"/>
</linearGradient>
<path style="fill:url(#SVGID_00000154415781110046196750000005364720879920994218_);stroke:#F3F5F9;stroke-miterlimit:10;" d="
	M112.6-601.7l89.3-58.7c5.7,8.7,10.1,18.1,13.1,28.1c2.1,7,3.5,14.2,4.1,21.4c0.4,5-3.5,9.2-8.5,9.2H112.6z"/>
<path class="st2" d="M112.6-601.7l97.9,0c0,20.1-6.2,39.7-17.7,56.1c-9.7,13.9-22.9,25-38.1,32.2c-4.5,2.1-9.9-0.1-11.6-4.8
	L112.6-601.7z"/>
<path class="st12" d="M112.6-601.7l29.6,81.2c-9.5,3.4-19.5,5.2-29.6,5.2c-47.4,0-86.5-39-86.5-86.5H112.6z"/>
<linearGradient id="SVGID_00000101091987832032837910000005004210306112493970_" gradientUnits="userSpaceOnUse" x1="103.4076" y1="-603.142" x2="27.784" y2="-694.6863">
	<stop  offset="0" style="stop-color:#E36432"/>
	<stop  offset="0.2" style="stop-color:#E05D45"/>
	<stop  offset="0.4" style="stop-color:#DD5556"/>
	<stop  offset="0.6" style="stop-color:#DA4D66"/>
	<stop  offset="0.8" style="stop-color:#D64575"/>
	<stop  offset="1" style="stop-color:#D13C84"/>
</linearGradient>
<path style="fill:url(#SVGID_00000101091987832032837910000005004210306112493970_);stroke:#F3F5F9;stroke-miterlimit:10;" d="
	M112.6-601.7l-88.1-57.2c4.7-7.2,10.2-13.8,16.4-19.6c6.3-5.8,13.2-10.9,20.7-15L112.6-601.7z"/>
<linearGradient id="SVGID_00000160876682775295819720000005177650966645659805_" gradientUnits="userSpaceOnUse" x1="87.0885" y1="-607.0765" x2="-17.5577" y2="-641.1747">
	<stop  offset="0" style="stop-color:#FFE259"/>
	<stop  offset="1" style="stop-color:#FFA751"/>
</linearGradient>
<path style="fill:url(#SVGID_00000160876682775295819720000005177650966645659805_);stroke:#F3F5F9;stroke-miterlimit:10;" d="
	M112.6-601.7H8c-4.7,0-8.3-4-7.9-8.6c0.6-7.9,2.1-15.8,4.3-23.4c2.3-7.6,5.3-15,9.1-22c2.2-4.1,7.5-5.5,11.4-2.9L112.6-601.7z"/>
<linearGradient id="SVGID_00000143589499170018837010000010732178644065314706_" gradientUnits="userSpaceOnUse" x1="-702.6237" y1="-341.8798" x2="-640.0766" y2="-444.1201">
	<stop  offset="0" style="stop-color:#50E8D3"/>
	<stop  offset="0.3438" style="stop-color:#49E8C9"/>
	<stop  offset="0.6458" style="stop-color:#47EAC1"/>
	<stop  offset="1" style="stop-color:#44EDB9"/>
</linearGradient>
<path style="fill:url(#SVGID_00000143589499170018837010000010732178644065314706_);stroke:#F3F5F9;stroke-miterlimit:10;" d="
	M-686.6-306.6l-66.2-119.2c-2.4-4.3-0.7-9.7,3.7-11.8c19.5-9.3,40.8-14.1,62.5-14.1c45.8,0,88.8,21.7,116.1,58
	c2.9,3.9,1.9,9.5-2.2,12.1L-686.6-306.6z"/>
<linearGradient id="SVGID_00000064343971109916042890000012355783537365329575_" gradientUnits="userSpaceOnUse" x1="-673.7896" y1="-314.0902" x2="-548.6954" y2="-347.7694">
	<stop  offset="0" style="stop-color:#72C6EF"/>
	<stop  offset="1" style="stop-color:#004E8F"/>
</linearGradient>
<path style="fill:url(#SVGID_00000064343971109916042890000012355783537365329575_);stroke:#F3F5F9;stroke-miterlimit:10;" d="
	M-686.6-306.6l89.3-58.7c5.7,8.7,10.1,18.1,13.1,28.1c2.1,7,3.5,14.2,4.1,21.4c0.4,5-3.5,9.2-8.5,9.2H-686.6z"/>
<path class="st2" d="M-686.6-306.6l97.9,0c0,20.1-6.2,39.7-17.7,56.1c-11.5,16.4-27.8,29-46.7,35.8L-686.6-306.6z"/>
<path class="st3" d="M-686.6-306.6l35.8,98.2c1.7,4.7-1,9.8-5.8,11.1c-9.7,2.7-19.8,4-30,4c-62.2,0-113.4-51.2-113.4-113.4H-686.6z"
	/>
<linearGradient id="SVGID_00000052097027959135937060000009711406086159952780_" gradientUnits="userSpaceOnUse" x1="-694.9443" y1="-311.7523" x2="-775.8773" y2="-403.5319">
	<stop  offset="0" style="stop-color:#E36432"/>
	<stop  offset="0.2" style="stop-color:#E05D45"/>
	<stop  offset="0.4" style="stop-color:#DD5556"/>
	<stop  offset="0.6" style="stop-color:#DA4D66"/>
	<stop  offset="0.8" style="stop-color:#D64575"/>
	<stop  offset="1" style="stop-color:#D13C84"/>
</linearGradient>
<path style="fill:url(#SVGID_00000052097027959135937060000009711406086159952780_);stroke:#F3F5F9;stroke-miterlimit:10;" d="
	M-686.6-306.6l-88.1-57.2c4.7-7.2,10.2-13.8,16.4-19.6c6.3-5.8,13.2-10.9,20.7-15L-686.6-306.6z"/>
<linearGradient id="SVGID_00000167398449007580810010000001559103940205169587_" gradientUnits="userSpaceOnUse" x1="-813.6874" y1="-339.6039" x2="-686.6051" y2="-339.6039">
	<stop  offset="0" style="stop-color:#FFE259"/>
	<stop  offset="1" style="stop-color:#FFA751"/>
</linearGradient>
<path style="fill:url(#SVGID_00000167398449007580810010000001559103940205169587_);stroke:#F3F5F9;stroke-miterlimit:10;" d="
	M-686.6-306.6h-118.6c-4.9,0-8.8-4.1-8.5-9c0.7-9.2,2.3-18.3,4.9-27.2c2.6-8.9,6.2-17.4,10.7-25.5c2.4-4.3,7.9-5.6,12-2.9
	L-686.6-306.6z"/>
<g>
	
		<linearGradient id="SVGID_00000049911706597122070760000009283414422352562341_" gradientUnits="userSpaceOnUse" x1="1233.207" y1="15.4583" x2="1323.902" y2="-150.541">
		<stop  offset="0" style="stop-color:#50E8D3"/>
		<stop  offset="0.3438" style="stop-color:#49E8C9"/>
		<stop  offset="0.6458" style="stop-color:#47EAC1"/>
		<stop  offset="1" style="stop-color:#B8FFE8"/>
	</linearGradient>
	<path style="fill:url(#SVGID_00000049911706597122070760000009283414422352562341_);stroke:#F3F5F9;stroke-miterlimit:10;" d="
		M1259.2,54l-102.9-185.5c-2.3-4.2-0.7-9.4,3.6-11.6c30.8-15.5,64.8-23.6,99.3-23.6c71.3,0,138.1,34.5,179.4,92.2
		c2.8,3.9,1.8,9.3-2.2,11.9L1259.2,54z"/>
	
		<linearGradient id="SVGID_00000143595494255286080260000004734533215563292293_" gradientUnits="userSpaceOnUse" x1="1389.5936" y1="77.049" x2="1316.5063" y2="-16.9204">
		<stop  offset="0" style="stop-color:#72C6EF"/>
		<stop  offset="1" style="stop-color:#004E8F"/>
	</linearGradient>
	<path style="fill:url(#SVGID_00000143595494255286080260000004734533215563292293_);stroke:#F3F5F9;stroke-miterlimit:10;" d="
		M1259.2,54L1408-43.9c9.5,14.5,16.9,30.2,21.8,46.8c4.2,13.9,6.6,28.2,7.3,42.7c0.2,4.6-3.5,8.4-8.1,8.4H1259.2z"/>
	<path class="st2" d="M1259.2,54h169.3c0,30.2-8.1,59.9-23.4,85.9c-13.8,23.5-33.1,43.3-56.2,57.7c-4.1,2.5-9.4,1.1-11.7-3.1
		L1259.2,54z"/>
	<path class="st2" d="M1259.2,54l72.6,130.8c-22.2,12.3-47.2,18.8-72.6,18.8c-82.1,0-149.6-67.5-149.6-149.6H1259.2z"/>
	
		<linearGradient id="SVGID_00000067227180734389018730000004584636384714670742_" gradientUnits="userSpaceOnUse" x1="1168.653" y1="10.2841" x2="1248.0221" y2="-53.6147">
		<stop  offset="0" style="stop-color:#E36432"/>
		<stop  offset="0.2" style="stop-color:#E05D45"/>
		<stop  offset="0.4" style="stop-color:#DD5556"/>
		<stop  offset="0.6" style="stop-color:#DA4D66"/>
		<stop  offset="0.8" style="stop-color:#D64575"/>
		<stop  offset="1" style="stop-color:#D13C84"/>
	</linearGradient>
	<path style="fill:url(#SVGID_00000067227180734389018730000004584636384714670742_);stroke:#F3F5F9;stroke-miterlimit:10;" d="
		M1259.2,54l-152.4-98.9c8.1-12.4,17.6-23.8,28.4-33.9s22.8-18.8,35.8-26L1259.2,54z"/>
	
		<linearGradient id="SVGID_00000049214566475708719450000018253993352610082461_" gradientUnits="userSpaceOnUse" x1="1048.5778" y1="-0.809" x2="1274.4266" y2="15.5353">
		<stop  offset="0" style="stop-color:#FFF7D4"/>
		<stop  offset="0.4838" style="stop-color:#FFE259"/>
		<stop  offset="1" style="stop-color:#FFA751"/>
	</linearGradient>
	<path style="fill:url(#SVGID_00000049214566475708719450000018253993352610082461_);stroke:#F3F5F9;stroke-miterlimit:10;" d="
		M1259.2,54h-190c-4.8,0-8.6-4-8.4-8.8c0.7-16.1,3.4-32.1,8-47.6s11.1-30.4,19.2-44.3c2.4-4.1,7.8-5.4,11.8-2.8L1259.2,54z"/>
</g>
<linearGradient id="SVGID_00000088114281986528559250000017545576729504718245_" gradientUnits="userSpaceOnUse" x1="342.0095" y1="-269.83" x2="-5.6735" y2="45.6601">
	<stop  offset="0" style="stop-color:#FFC787"/>
	<stop  offset="0.4" style="stop-color:#DD5556"/>
	<stop  offset="0.6" style="stop-color:#DA4D66"/>
	<stop  offset="0.8" style="stop-color:#D64575"/>
	<stop  offset="1" style="stop-color:#D13C84"/>
</linearGradient>
<circle style="fill:url(#SVGID_00000088114281986528559250000017545576729504718245_);stroke:#F3F5F9;stroke-miterlimit:10;" cx="218.3" cy="-157.6" r="113.7"/>
<linearGradient id="SVGID_00000086678825046292182400000014529712976503834261_" gradientUnits="userSpaceOnUse" x1="695.7156" y1="-332.8655" x2="473.5848" y2="-17.3754">
	<stop  offset="0" style="stop-color:#FFF7D4"/>
	<stop  offset="0.4838" style="stop-color:#FFE259"/>
	<stop  offset="1" style="stop-color:#FFA751"/>
</linearGradient>
<circle style="fill:url(#SVGID_00000086678825046292182400000014529712976503834261_);stroke:#F3F5F9;stroke-miterlimit:10;" cx="582.3" cy="-171.8" r="127.9"/>
<g id="anRqCC_00000166647377251437632670000012484418095933458094_">
	
		<image style="overflow:visible;" width="986" height="462" id="anRqCC" xlink:href="8E0F569643D8BBF.png"  transform="matrix(1 0 0 1 -33.3848 1053.1071)">
	</image>
</g>
<g>
	
		<linearGradient id="SVGID_00000012440190523282153540000009631646070496409485_" gradientUnits="userSpaceOnUse" x1="681.4491" y1="243.9494" x2="870.8828" y2="243.9494" gradientTransform="matrix(0.5137 -0.858 0.858 0.5137 80.5091 808.5378)">
		<stop  offset="0" style="stop-color:#FFC787"/>
		<stop  offset="0.4" style="stop-color:#DD5556"/>
		<stop  offset="0.6" style="stop-color:#DA4D66"/>
		<stop  offset="0.8" style="stop-color:#D64575"/>
		<stop  offset="1" style="stop-color:#D13C84"/>
	</linearGradient>
	
		<circle style="fill:url(#SVGID_00000012440190523282153540000009631646070496409485_);stroke:#F3F5F9;stroke-miterlimit:10;" cx="688.5" cy="268" r="94.7"/>
	
		<linearGradient id="SVGID_00000018207172242938337520000004939457900424424343_" gradientUnits="userSpaceOnUse" x1="138.6516" y1="73.7318" x2="327.2881" y2="245.4561">
		<stop  offset="0" style="stop-color:#50E8D3"/>
		<stop  offset="0.3438" style="stop-color:#49E8C9"/>
		<stop  offset="0.6458" style="stop-color:#47EAC1"/>
		<stop  offset="0.9759" style="stop-color:#B8FFE8"/>
	</linearGradient>
	
		<circle style="fill:url(#SVGID_00000018207172242938337520000004939457900424424343_);stroke:#F3F5F9;stroke-miterlimit:10;" cx="276.1" cy="198.9" r="96.6"/>
	
		<linearGradient id="SVGID_00000106146627570657594030000000076640130445896611_" gradientUnits="userSpaceOnUse" x1="213.6882" y1="196.3717" x2="107.4517" y2="358.9457">
		<stop  offset="0" style="stop-color:#72C6EF"/>
		<stop  offset="1" style="stop-color:#004E8F"/>
	</linearGradient>
	
		<circle style="fill:url(#SVGID_00000106146627570657594030000000076640130445896611_);stroke:#F3F5F9;stroke-miterlimit:10;" cx="157.7" cy="282" r="82.8"/>
	
		<linearGradient id="SVGID_00000173843073755036892510000000683584047817089169_" gradientUnits="userSpaceOnUse" x1="658.705" y1="18.0173" x2="460.1675" y2="299.9982">
		<stop  offset="0" style="stop-color:#FFF7D4"/>
		<stop  offset="0.4838" style="stop-color:#FFE259"/>
		<stop  offset="1" style="stop-color:#FFA751"/>
	</linearGradient>
	
		<circle style="fill:url(#SVGID_00000173843073755036892510000000683584047817089169_);stroke:#F3F5F9;stroke-miterlimit:10;" cx="557.4" cy="162" r="114.3"/>
	<g>
		<path class="st29" d="M395.6,182.6c-0.5,4.2,4.4,6.5,7.7,4.3c3.5-2.5,22.7-16.8,26-19.3c1.2-1-0.5-1.4-1.4-1.3
			c-2.5,0-8.1,0-10.9,0c-1.4,0.1-2-0.2-3,0.5c-3.1,2.3-13.4,10-16,11.9c-1.2,0.9-2.1,2-2.4,3.6L395.6,182.6z"/>
		<path class="st29" d="M431.7,188.8c0,0.4,0.5,1,1.2,1.9c2.3,3,5,6.4,7.3,9.4c0.9,1.2,1.1,1.3,2.8,1.3c0.9,0,1.7,0,2.6,0
			c1.9,0,4.4,0,6.2,0c1.4-0.1,1.5-0.7,0.9-1.5c-2.1-2.8-10.3-13.9-12.7-16.7c-0.8-0.6-1.3,0.1-2.4,0.7c-1.2,0.9-3.1,2.2-4.3,3.1
			C432.3,187.8,431.7,188.3,431.7,188.8L431.7,188.8z"/>
		<path class="st29" d="M420.2,197.7c0.1,0.4,0.5,1,1,1.6c0.7,0.8,1,1.6,1.9,1.9c2.4,0.2,6.2,0,8.9,0.1c1.5,0,4.2,0.3,2.6-1.7
			c-1.2-1.6-4.6-5.9-5.7-7.4c-1.1-1.5-2.1-0.2-3.4,0.7c-1.2,0.9-2.9,2.1-3.9,2.9C420.6,196.6,420.1,197,420.2,197.7L420.2,197.7z"/>
		<path class="st29" d="M405.3,190.7c-6.6,4.1-15.3-1.4-14-9.2c0.6-4,3.5-6.1,6.7-8.4c1.9-1.4,4.3-3.2,5.9-4.3
			c2.1-1.4,2.5-2.3,0.4-2.4c-2.3,0-8.2,0-10.9,0c-0.8,0-1.5,0.1-2.2,0.4c-10.1,5.4-12.6,19.7-5.2,28.3c6.4,7.8,18.3,8.7,26,2.7
			c3.9-2.9,35.3-26.1,40.6-30c1.5-1-0.4-1.5-1.5-1.4c-2.7,0-8.9,0-11.3,0c-1.2,0-1.6,0-2.4,0.6C433.8,169.6,412,186,405.3,190.7
			L405.3,190.7z"/>
	</g>
	<path class="st2" d="M365.6,257.8H471c5.6,0,9.9-4.9,9.2-10.5l-5.5-43.1c-0.6-4.6-4.5-8.1-9.2-8.1h-94.4c-4.7,0-8.6,3.5-9.2,8.1
		l-5.5,43.1C355.6,252.8,360,257.8,365.6,257.8z"/>
	<path class="st12" d="M336.8,283.4h163c5.9,0,10.4-5.5,9.1-11.3l-7.5-34c-0.9-4.3-4.7-7.3-9.1-7.3h-148c-4.4,0-8.2,3-9.1,7.3
		l-7.5,34C326.4,277.9,330.8,283.4,336.8,283.4z"/>
</g>
</svg>
