<svg id="ew3a956DATx1" xmlns="http://www.w3.org/2000/svg" xmlns:xlink="http://www.w3.org/1999/xlink" viewBox="50 0 782.1 419" shape-rendering="geometricPrecision" text-rendering="geometricPrecision">
<style><![CDATA[
#ew3a956DATx3_to {animation: ew3a956DATx3_to__to 1200ms linear 1 normal forwards}@keyframes ew3a956DATx3_to__to { 0% {transform: translate(901.280261px,446.165325px);animation-timing-function: cubic-bezier(0.165,0.84,0.44,1)} 75% {transform: translate(688.499969px,268.000008px)} 100% {transform: translate(688.499969px,268.000008px)}} #ew3a956DATx3 {animation: ew3a956DATx3_c_o 1200ms linear 1 normal forwards}@keyframes ew3a956DATx3_c_o { 0% {opacity: 0;animation-timing-function: cubic-bezier(0,0,0.58,1)} 66.666667% {opacity: 1} 100% {opacity: 1}} #ew3a956DATx4_to {animation: ew3a956DATx4_to__to 1200ms linear 1 normal forwards}@keyframes ew3a956DATx4_to__to { 0% {transform: translate(182.435954px,465.638932px);animation-timing-function: cubic-bezier(0.165,0.84,0.44,1)} 83.333333% {transform: translate(276.100006px,198.900002px)} 100% {transform: translate(276.100006px,198.900002px)}} #ew3a956DATx4 {animation: ew3a956DATx4_c_o 1200ms linear 1 normal forwards}@keyframes ew3a956DATx4_c_o { 0% {opacity: 0;animation-timing-function: cubic-bezier(0,0,0.58,1)} 66.666667% {opacity: 1} 100% {opacity: 1}} #ew3a956DATx5_to {animation: ew3a956DATx5_to__to 1200ms linear 1 normal forwards}@keyframes ew3a956DATx5_to__to { 0% {transform: translate(-39.808982px,411.297107px);animation-timing-function: cubic-bezier(0.165,0.84,0.44,1)} 83.333333% {transform: translate(157.699997px,281.999992px)} 100% {transform: translate(157.699997px,281.999992px)}} #ew3a956DATx5 {animation: ew3a956DATx5_c_o 1200ms linear 1 normal forwards}@keyframes ew3a956DATx5_c_o { 0% {opacity: 0;animation-timing-function: cubic-bezier(0,0,0.58,1)} 66.666667% {opacity: 1} 100% {opacity: 1}} #ew3a956DATx6_to {animation: ew3a956DATx6_to__to 1200ms linear 1 normal forwards}@keyframes ew3a956DATx6_to__to { 0% {transform: translate(594.574501px,478.825794px);animation-timing-function: cubic-bezier(0.165,0.84,0.44,1)} 83.333333% {transform: translate(557.400055px,161.999992px)} 100% {transform: translate(557.400055px,161.999992px)}} #ew3a956DATx6 {animation: ew3a956DATx6_c_o 1200ms linear 1 normal forwards}@keyframes ew3a956DATx6_c_o { 0% {opacity: 0;animation-timing-function: cubic-bezier(0,0,0.58,1)} 66.666667% {opacity: 1} 100% {opacity: 1}} #ew3a956DATx7 {animation: ew3a956DATx7_c_o 1200ms linear 1 normal forwards}@keyframes ew3a956DATx7_c_o { 0% {opacity: 0} 33.333333% {opacity: 0;animation-timing-function: cubic-bezier(0.42,0,1,1)} 66.666667% {opacity: 1} 100% {opacity: 1}} #ew3a956DATx9_to {animation: ew3a956DATx9_to__to 1200ms linear 1 normal forwards}@keyframes ew3a956DATx9_to__to { 0% {transform: translate(417.438599px,121.316269px)} 33.333333% {transform: translate(417.438599px,121.316269px);animation-timing-function: cubic-bezier(0.175,0.885,0.32,1.275)} 66.666667% {transform: translate(417.438599px,183.999077px)} 100% {transform: translate(417.438599px,183.999077px)}} #ew3a956DATx14_to {animation: ew3a956DATx14_to__to 1200ms linear 1 normal forwards}@keyframes ew3a956DATx14_to__to { 0% {transform: translate(418.290314px,256.949982px)} 33.333333% {transform: translate(418.290314px,256.949982px);animation-timing-function: cubic-bezier(0.39,0.575,0.565,1)} 58.333333% {transform: translate(418.290314px,226.949982px)} 100% {transform: translate(418.290314px,226.949982px)}}
]]></style>
<defs><linearGradient id="ew3a956DATx3-fill" x1="-48.621912" y1="81.171479" x2="48.69018" y2="-81.362636" spreadMethod="pad" gradientUnits="userSpaceOnUse" gradientTransform="translate(0 0)"><stop id="ew3a956DATx3-fill-0" offset="0%" stop-color="#ffc787"/><stop id="ew3a956DATx3-fill-1" offset="40%" stop-color="#dd5556"/><stop id="ew3a956DATx3-fill-2" offset="60%" stop-color="#da4d66"/><stop id="ew3a956DATx3-fill-3" offset="80%" stop-color="#d64575"/><stop id="ew3a956DATx3-fill-4" offset="100%" stop-color="#d13c84"/></linearGradient><linearGradient id="ew3a956DATx4-fill" x1="-137.4484" y1="-125.1682" x2="51.1881" y2="46.5561" spreadMethod="pad" gradientUnits="userSpaceOnUse" gradientTransform="translate(0 0)"><stop id="ew3a956DATx4-fill-0" offset="0%" stop-color="#50e8d3"/><stop id="ew3a956DATx4-fill-1" offset="34.38%" stop-color="#49e8c9"/><stop id="ew3a956DATx4-fill-2" offset="64.58%" stop-color="#47eac1"/><stop id="ew3a956DATx4-fill-3" offset="97.59%" stop-color="#b8ffe8"/></linearGradient><linearGradient id="ew3a956DATx5-fill" x1="55.9882" y1="-85.6283" x2="-50.2483" y2="76.9457" spreadMethod="pad" gradientUnits="userSpaceOnUse" gradientTransform="translate(0 0)"><stop id="ew3a956DATx5-fill-0" offset="0%" stop-color="#72c6ef"/><stop id="ew3a956DATx5-fill-1" offset="100%" stop-color="#004e8f"/></linearGradient><linearGradient id="ew3a956DATx6-fill" x1="101.305" y1="-143.9827" x2="-97.2325" y2="137.9982" spreadMethod="pad" gradientUnits="userSpaceOnUse" gradientTransform="translate(0 0)"><stop id="ew3a956DATx6-fill-0" offset="0%" stop-color="#fff7d4"/><stop id="ew3a956DATx6-fill-1" offset="48.38%" stop-color="#ffe259"/><stop id="ew3a956DATx6-fill-2" offset="100%" stop-color="#ffa751"/></linearGradient></defs><g><g id="ew3a956DATx3_to" transform="translate(901.280261,446.165325)"><circle id="ew3a956DATx3" r="94.7" transform="translate(0.000031,-0.000008)" opacity="0" fill="url(#ew3a956DATx3-fill)" stroke="#f3f5f9" stroke-miterlimit="10"/></g><g id="ew3a956DATx4_to" transform="translate(182.435954,465.638932)"><circle id="ew3a956DATx4" r="96.6" transform="translate(-0.000006,-0.000002)" opacity="0" fill="url(#ew3a956DATx4-fill)" stroke="#f3f5f9" stroke-miterlimit="10"/></g><g id="ew3a956DATx5_to" transform="translate(-39.808982,411.297107)"><circle id="ew3a956DATx5" r="82.8" transform="translate(0.000003,0.000008)" opacity="0" fill="url(#ew3a956DATx5-fill)" stroke="#f3f5f9" stroke-miterlimit="10"/></g><g id="ew3a956DATx6_to" transform="translate(594.574501,478.825794)"><circle id="ew3a956DATx6" r="114.3" transform="translate(-0.000055,0.000008)" opacity="0" fill="url(#ew3a956DATx6-fill)" stroke="#f3f5f9" stroke-miterlimit="10"/></g><g id="ew3a956DATx7" transform="translate(0 0.000001)" opacity="0"><g transform="matrix(.998529-.054225 0.054225 0.998529-10.882533 22.993626)"><g id="ew3a956DATx9_to" transform="translate(417.438599,121.316269)"><g transform="rotate(4.07854) translate(-417.438599,-183.999077)"><path d="M395.6,182.6c-.5,4.2,4.4,6.5,7.7,4.3c3.5-2.5,22.7-16.8,26-19.3c1.2-1-.5-1.4-1.4-1.3-2.5,0-8.1,0-10.9,0-1.4.1-2-.2-3,.5-3.1,2.3-13.4,10-16,11.9-1.2.9-2.1,2-2.4,3.6v.3Z" fill="#005b94"/><path d="M431.7,188.8c0,.4.5,1,1.2,1.9c2.3,3,5,6.4,7.3,9.4.9,1.2,1.1,1.3,2.8,1.3.9,0,1.7,0,2.6,0c1.9,0,4.4,0,6.2,0c1.4-.1,1.5-.7.9-1.5-2.1-2.8-10.3-13.9-12.7-16.7-.8-.6-1.3.1-2.4.7-1.2.9-3.1,2.2-4.3,3.1-1,.8-1.6,1.3-1.6,1.8v0Z" fill="#005b94"/><path d="M420.2,197.7c.1.4.5,1,1,1.6.7.8,1,1.6,1.9,1.9c2.4.2,6.2,0,8.9.1c1.5,0,4.2.3,2.6-1.7-1.2-1.6-4.6-5.9-5.7-7.4s-2.1-.2-3.4.7c-1.2.9-2.9,2.1-3.9,2.9s-1.5,1.2-1.4,1.9v0Z" fill="#005b94"/><path d="M405.3,190.7c-6.6,4.1-15.3-1.4-14-9.2.6-4,3.5-6.1,6.7-8.4c1.9-1.4,4.3-3.2,5.9-4.3c2.1-1.4,2.5-2.3.4-2.4-2.3,0-8.2,0-10.9,0-.8,0-1.5.1-2.2.4-10.1,5.4-12.6,19.7-5.2,28.3c6.4,7.8,18.3,8.7,26,2.7c3.9-2.9,35.3-26.1,40.6-30c1.5-1-.4-1.5-1.5-1.4-2.7,0-8.9,0-11.3,0-1.2,0-1.6,0-2.4.6-3.6,2.6-25.4,19-32.1,23.7v0Z" fill="#005b94"/></g></g><g id="ew3a956DATx14_to" transform="translate(418.290314,256.949982)"><path d="M365.6,257.8h105.4c5.6,0,9.9-4.9,9.2-10.5l-5.5-43.1c-.6-4.6-4.5-8.1-9.2-8.1h-94.4c-4.7,0-8.6,3.5-9.2,8.1l-5.5,43.1c-.8,5.5,3.6,10.5,9.2,10.5Z" transform="translate(-418.290314,-226.949982)" fill="#f9fafc" stroke="#f3f5f9" stroke-miterlimit="10"/></g></g><path d="M336.8,283.4h163c5.9,0,10.4-5.5,9.1-11.3l-7.5-34c-.9-4.3-4.7-7.3-9.1-7.3h-148c-4.4,0-8.2,3-9.1,7.3l-7.5,34c-1.3,5.8,3.1,11.3,9.1,11.3Z" fill="#fff" stroke="#f3f5f9" stroke-miterlimit="10"/></g></g></svg>
