<?xml version="1.0" encoding="UTF-8"?><svg id="Layer_2" xmlns="http://www.w3.org/2000/svg" viewBox="0 0 48.78 36.44"><defs><style>.cls-1{fill:aqua;}.cls-2{fill:#075f94;}</style></defs><g id="Layer_1-2"><path class="cls-1" d="m32.68,7.27l-15.81,20.66c-.83,1.09-1.97,1.81-3.2,2.14-1.73.46-3.64.14-5.16-1.02-1.27-.97-2.08-2.37-2.29-3.96-.21-1.58.21-3.15,1.18-4.42l6.09-7.96-9.88,2.8-1.08,1.4c-4.08,5.31-3.09,12.93,2.22,17.01,5.3,4.07,12.88,3.09,16.98-2.18L42.72,4.43l-10.04,2.85ZM9.05,24.71c.11.82.53,1.55,1.19,2.06,1.36,1.04,3.31.78,4.35-.58l13.47-17.61-9.99,2.83-8.42,11c-.5.66-.72,1.48-.61,2.3m23.46-2.43l8.31,6.11,7.61-2.16-11.97-9.12-3.96,5.17Zm-5.67,7.41l2.54,1.94,7.87-2.23-6.46-4.87-3.95,5.16Z"/><path class="cls-2" d="m30.76,4.09l-13.07,22.49c-.69,1.18-1.73,2.04-2.91,2.52-1.65.67-3.59.6-5.25-.36-1.38-.8-2.36-2.09-2.77-3.64-.41-1.54-.19-3.15.61-4.53l5.04-8.66L2.95,15.94l-.89,1.53c-3.38,5.78-1.43,13.21,4.35,16.59,5.77,3.37,13.17,1.44,16.57-4.31L40.37,0l-9.6,4.09ZM9.53,24.37c.21.8.73,1.47,1.44,1.89,1.48.86,3.38.35,4.24-1.12L26.36,5.97l-9.55,4.07-6.97,11.98c-.42.72-.53,1.55-.32,2.36m22.96-5.37l9.02,5.01,7.28-3.1-13.02-7.54-3.27,5.63Zm-4.69,8.06l2.76,1.6,7.52-3.21-7.02-4.01-3.26,5.61Z"/></g></svg>