<?xml version="1.0" encoding="utf-8"?>
<!-- Generator: Adobe Illustrator 27.7.0, SVG Export Plug-In . SVG Version: 6.00 Build 0)  -->
<svg version="1.1" id="Layer_1" xmlns="http://www.w3.org/2000/svg" xmlns:xlink="http://www.w3.org/1999/xlink" x="0px" y="0px"
	 viewBox="0 0 627.8 627.8" style="enable-background:new 0 0 627.8 627.8;" xml:space="preserve">
<style type="text/css">
	.st0{fill:#5CE5DF;stroke:#F3F5F9;stroke-miterlimit:10;}
	.st1{fill:#5CE5DF;stroke:#F3F5F9;stroke-width:0.9428;stroke-miterlimit:10;}
	.st2{fill:#62E5E5;stroke:#F3F5F9;stroke-miterlimit:10;}
	.st3{fill:#68E4EA;stroke:#F3F5F9;stroke-miterlimit:10;}
	.st4{fill:#43EFB6;}
	.st5{fill:none;stroke:#F3F5F9;stroke-miterlimit:10;}
	.st6{fill:#6EE4F0;stroke:#F3F5F9;stroke-miterlimit:10;}
	.st7{fill:#55E6D8;stroke:#F3F5F9;stroke-miterlimit:10;}
	.st8{fill:#45EBC3;stroke:#F3F5F9;stroke-miterlimit:10;}
	.st9{fill:#44EDBC;stroke:#F3F5F9;stroke-width:0.9267;stroke-miterlimit:10;}
	.st10{fill:#4DE8D0;stroke:#F3F5F9;stroke-miterlimit:10;}
	.st11{fill:#46E9C9;stroke:#F3F5F9;stroke-miterlimit:10;}
	.st12{fill:url(#SVGID_1_);}
	.st13{fill:url(#SVGID_00000013171216557471861800000016843355052199627681_);}
</style>
<g>
	<path class="st0" d="M78.2,175.8C56.1,214,43,258.2,41.9,305.3c-0.1,3.6,2.8,6.5,6.4,6.5h265.6L78.2,175.8z"/>
	<path class="st1" d="M57.4,311.8c0,46.7,12.5,90.5,34.3,128.3l222.2-128.3H57.4z"/>
	<path class="st2" d="M176.1,73.2c-1.1-1.9-3.6-2.6-5.5-1.4c-39.7,23.8-73.1,57.1-96.9,96.9c-1.1,1.9-0.5,4.3,1.4,5.5L301,304.4
		c3.5,2,7.5-1.9,5.5-5.5L176.1,73.2z"/>
	<path class="st3" d="M313.9,39.7c-49.6,0-96,13.3-136.1,36.4l136.1,235.7V39.7z"/>
	<g>
		<path class="st4" d="M549.6,175.8c-23.9-41.3-58.3-75.7-99.6-99.6L313.9,311.8L549.6,175.8z"/>
		<path class="st5" d="M549.6,175.8c-23.9-41.3-58.3-75.7-99.6-99.6L313.9,311.8L549.6,175.8z"/>
	</g>
	<path class="st6" d="M457.5,63.1c3.9-6.7,1.3-15.2-5.5-18.8C414.6,25,372.6,13.2,328.1,11.2c-7.7-0.4-14.2,5.8-14.2,13.5v272.2
		c0,4.1,5.4,5.5,7.5,2L457.5,63.1z"/>
	<path class="st7" d="M65.1,455.5c-1.9,1.1-2.6,3.6-1.4,5.5c24.8,41.5,59.6,76.4,101.2,101.2c1.9,1.1,4.3,0.5,5.5-1.4l136.2-235.9
		c2-3.5-1.9-7.5-5.5-5.5L65.1,455.5z"/>
	<path class="st8" d="M560.7,454.3c1.9,1.1,4.4,0.5,5.4-1.5c22.7-40.6,36-87.3,36.7-137c0-2.2-1.8-4-4-4h-270c-4.1,0-5.5,5.4-2,7.5
		L560.7,454.3z"/>
	<path class="st9" d="M313.9,311.8h252.1c0-45.9-12.3-89-33.7-126.1L313.9,311.8z"/>
	<path class="st7" d="M184.5,536c38.1,22,82.3,34.6,129.4,34.6V311.8L184.5,536z"/>
	<path class="st10" d="M325.3,583.7c45.3-1.9,87.8-14.8,124.7-36.2L313.9,311.8v260.9C313.9,578.9,319.1,583.9,325.3,583.7z"/>
	<path class="st11" d="M450,547.5c41.3-23.9,75.7-58.3,99.6-99.6L313.9,311.8L450,547.5z"/>
</g>
<radialGradient id="SVGID_1_" cx="313.922" cy="313.922" r="313.922" gradientUnits="userSpaceOnUse">
	<stop  offset="0.5934" style="stop-color:#00FFCD"/>
	<stop  offset="1" style="stop-color:#00FFCD;stop-opacity:0"/>
</radialGradient>
<circle class="st12" cx="313.9" cy="313.9" r="313.9"/>
<radialGradient id="SVGID_00000088845289037752675140000009959065909526518968_" cx="24.7108" cy="721.6182" r="1" gradientTransform="matrix(224.5965 -770.7812 -1072.9763 -312.6526 768912.5625 245331.7969)" gradientUnits="userSpaceOnUse">
	<stop  offset="0" style="stop-color:#032559"/>
	<stop  offset="1" style="stop-color:#1F649D"/>
</radialGradient>
<circle style="fill:url(#SVGID_00000088845289037752675140000009959065909526518968_);" cx="313.8" cy="311.7" r="209.7"/>
</svg>
