<?xml version="1.0" encoding="utf-8"?>
<!-- Generator: Adobe Illustrator 27.7.0, SVG Export Plug-In . SVG Version: 6.00 Build 0)  -->
<svg version="1.1" id="Layer_1" xmlns="http://www.w3.org/2000/svg" xmlns:xlink="http://www.w3.org/1999/xlink" x="0px" y="0px"
	 viewBox="0 0 419 419" style="enable-background:new 0 0 419 419;" xml:space="preserve">
<style type="text/css">
	.st0{fill:url(#SVGID_1_);}
	.st1{fill:url(#SVGID_00000134951299796089777860000011550805283495774897_);stroke:#F3F5F9;stroke-miterlimit:10;}
	.st2{fill:url(#SVGID_00000041999019534712922990000000978396440420480181_);stroke:#F3F5F9;stroke-miterlimit:10;}
	.st3{fill:url(#SVGID_00000140733883539305547060000010898478978988517550_);stroke:#F3F5F9;stroke-miterlimit:10;}
	.st4{fill:url(#SVGID_00000077287123685660320550000009403108734661345941_);stroke:#F3F5F9;stroke-miterlimit:10;}
	.st5{fill:url(#SVGID_00000060001186534515685320000010739077139263803793_);stroke:#F3F5F9;stroke-miterlimit:10;}
	.st6{fill:url(#SVGID_00000009583347812712246450000011094447538151206326_);stroke:#F3F5F9;stroke-miterlimit:10;}
</style>
<g>
	
		<radialGradient id="SVGID_1_" cx="209.5067" cy="203.2834" r="313.922" gradientTransform="matrix(0.6674 0 0 0.6674 69.6851 73.8384)" gradientUnits="userSpaceOnUse">
		<stop  offset="0.4379" style="stop-color:#1F649D"/>
		<stop  offset="0.4652" style="stop-color:#1C74A2;stop-opacity:0.934"/>
		<stop  offset="0.5587" style="stop-color:#12A5B1;stop-opacity:0.708"/>
		<stop  offset="0.6471" style="stop-color:#0ACCBD;stop-opacity:0.4944"/>
		<stop  offset="0.728" style="stop-color:#05E8C6;stop-opacity:0.2989"/>
		<stop  offset="0.7988" style="stop-color:#01F9CB;stop-opacity:0.1279"/>
		<stop  offset="0.8517" style="stop-color:#00FFCD;stop-opacity:0"/>
	</radialGradient>
	<circle class="st0" cx="209.5" cy="209.5" r="209.5"/>
	
		<linearGradient id="SVGID_00000168108857983556166040000001999264865990254509_" gradientUnits="userSpaceOnUse" x1="231.1087" y1="209.1826" x2="231.1087" y2="-181.9985">
		<stop  offset="0" style="stop-color:#50E8D3"/>
		<stop  offset="0.3438" style="stop-color:#49E8C9"/>
		<stop  offset="0.6458" style="stop-color:#47EAC1"/>
		<stop  offset="1" style="stop-color:#44EDB9"/>
	</linearGradient>
	<path style="fill:url(#SVGID_00000168108857983556166040000001999264865990254509_);stroke:#F3F5F9;stroke-miterlimit:10;" d="
		M208.2,209.2L79.4,73.8c-3.3-3.5-3.1-9.1,0.6-12.3c35.5-30.8,81-47.9,128.2-47.9c75.2,0,143.7,43.4,176.2,110.6
		c2.1,4.4,0.1,9.6-4.3,11.5L208.2,209.2z"/>
	
		<linearGradient id="SVGID_00000080181212278953510360000004762181721354975105_" gradientUnits="userSpaceOnUse" x1="34.9957" y1="164.0258" x2="383.5284" y2="173.4996">
		<stop  offset="0" style="stop-color:#FFE259"/>
		<stop  offset="1" style="stop-color:#FFA751"/>
	</linearGradient>
	<path style="fill:url(#SVGID_00000080181212278953510360000004762181721354975105_);stroke:#F3F5F9;stroke-miterlimit:10;" d="
		M208.2,209.2L46.9,246.7c-4.7,1.1-9.4-2-10.3-6.8c-1.8-10.1-2.7-20.4-2.7-30.7c0-47.7,19.6-93.4,54.2-126.3L208.2,209.2z"/>
	
		<linearGradient id="SVGID_00000023261936830843001050000017113627131491713962_" gradientUnits="userSpaceOnUse" x1="122.4078" y1="209.5411" x2="222.4523" y2="397.0276">
		<stop  offset="0" style="stop-color:#5B9EC8"/>
		<stop  offset="1" style="stop-color:#C2E8EB"/>
	</linearGradient>
	<path style="fill:url(#SVGID_00000023261936830843001050000017113627131491713962_);stroke:#F3F5F9;stroke-miterlimit:10;" d="
		M208.2,209.2L119,331.8c-14.6-10.6-27.2-23.8-37.2-38.9s-17.2-31.8-21.3-49.4L208.2,209.2z"/>
	
		<radialGradient id="SVGID_00000021112283786251057000000014969130503266674092_" cx="-61.9005" cy="194.3116" r="426.4165" gradientUnits="userSpaceOnUse">
		<stop  offset="0" style="stop-color:#1F649D"/>
		<stop  offset="1" style="stop-color:#032559"/>
	</radialGradient>
	<path style="fill:url(#SVGID_00000021112283786251057000000014969130503266674092_);stroke:#F3F5F9;stroke-miterlimit:10;" d="
		M208.2,209.2L276,361.8c2,4.5-0.2,9.7-4.7,11.4c-20.1,7.7-41.5,11.7-63.1,11.7c-34.2,0-67.5-10-96-28.6c-4.1-2.7-5.1-8.2-2.2-12.1
		L208.2,209.2z"/>
	
		<linearGradient id="SVGID_00000022538415522109210950000003348941934424505514_" gradientUnits="userSpaceOnUse" x1="278.3685" y1="166.1702" x2="340.4238" y2="465.6674">
		<stop  offset="0" style="stop-color:#E36432"/>
		<stop  offset="0.2" style="stop-color:#E05D45"/>
		<stop  offset="0.4" style="stop-color:#DD5556"/>
		<stop  offset="0.6" style="stop-color:#DA4D66"/>
		<stop  offset="0.8" style="stop-color:#D64575"/>
		<stop  offset="1" style="stop-color:#D13C84"/>
	</linearGradient>
	<path style="fill:url(#SVGID_00000022538415522109210950000003348941934424505514_);stroke:#F3F5F9;stroke-miterlimit:10;" d="
		M208.2,209.2l151.4,0.4c4.9,0,8.8,4.1,8.5,9c-1.6,27.8-10.5,54.7-25.7,78.1c-16.9,25.9-40.9,46.3-69.1,58.9L208.2,209.2z"/>
	
		<linearGradient id="SVGID_00000144321800056080878850000001054022009694118305_" gradientUnits="userSpaceOnUse" x1="91.9428" y1="186.5085" x2="324.3838" y2="186.5085">
		<stop  offset="0" style="stop-color:#72C6EF"/>
		<stop  offset="1" style="stop-color:#004E8F"/>
	</linearGradient>
	<path style="fill:url(#SVGID_00000144321800056080878850000001054022009694118305_);stroke:#F3F5F9;stroke-miterlimit:10;" d="
		M208.2,209.2L315,163.5c6.2,14.4,9.4,30,9.4,45.7c0,0.1,0,0.2,0,0.3L208.2,209.2z"/>
</g>
</svg>
