<?xml version="1.0" encoding="UTF-8"?>
<svg id="Layer_1" data-name="Layer 1" xmlns="http://www.w3.org/2000/svg" xmlns:xlink="http://www.w3.org/1999/xlink" viewBox="0 0 419 419">
  <defs>
    <style>
      .cls-1 {
        fill: url(#linear-gradient-4);
      }

      .cls-1, .cls-2, .cls-3, .cls-4, .cls-5, .cls-6 {
        stroke: #f3f5f9;
        stroke-miterlimit: 10;
      }

      .cls-2 {
        fill: url(#linear-gradient-2);
      }

      .cls-3 {
        fill: url(#linear-gradient-3);
      }

      .cls-4 {
        fill: #fff;
      }

      .cls-5 {
        fill: #f9fafc;
      }

      .cls-6 {
        fill: url(#linear-gradient);
      }
    </style>
    <linearGradient id="linear-gradient" x1="198.23" y1="183.6" x2="265.82" y2="42.38" gradientUnits="userSpaceOnUse">
      <stop offset="0" stop-color="#50e8d3"/>
      <stop offset=".34" stop-color="#49e8c9"/>
      <stop offset=".65" stop-color="#47eac1"/>
      <stop offset="1" stop-color="#44edb9"/>
    </linearGradient>
    <linearGradient id="linear-gradient-2" x1="254.14" y1="198.1" x2="422.84" y2="184.33" gradientUnits="userSpaceOnUse">
      <stop offset="0" stop-color="#72c6ef"/>
      <stop offset="1" stop-color="#004e8f"/>
    </linearGradient>
    <linearGradient id="linear-gradient-3" x1="192.2" y1="236.65" x2="61.37" y2="78.28" gradientUnits="userSpaceOnUse">
      <stop offset="0" stop-color="#e36432"/>
      <stop offset=".2" stop-color="#e05d45"/>
      <stop offset=".4" stop-color="#dd5556"/>
      <stop offset=".6" stop-color="#da4d66"/>
      <stop offset=".8" stop-color="#d64575"/>
      <stop offset="1" stop-color="#d13c84"/>
    </linearGradient>
    <linearGradient id="linear-gradient-4" x1="163.18" y1="229.79" x2="-20.92" y2="169.8" gradientUnits="userSpaceOnUse">
      <stop offset="0" stop-color="#ffe259"/>
      <stop offset="1" stop-color="#ffa751"/>
    </linearGradient>
  </defs>
  <g>
    <path class="cls-6" d="m208.07,239.16L105.13,53.68c-2.32-4.18-.67-9.42,3.59-11.57,30.77-15.52,64.8-23.63,99.35-23.63,71.26,0,138.1,34.52,179.4,92.17,2.78,3.88,1.8,9.29-2.19,11.92l-177.22,116.59Z"/>
    <path class="cls-2" d="m208.07,239.16l154.48-101.63c9.87,15.01,17.51,31.38,22.66,48.58,4.31,14.41,6.85,29.28,7.56,44.29.23,4.77-3.6,8.76-8.37,8.76h-176.33Z"/>
    <path class="cls-5" d="m208.07,239.16h169.28c0,30.2-8.08,59.85-23.4,85.88-13.83,23.5-33.12,43.27-56.17,57.67-4.06,2.54-9.42,1.12-11.74-3.06l-77.97-140.49Z"/>
    <path class="cls-4" d="m208.07,239.16l72.58,130.78c-22.2,12.32-47.19,18.79-72.58,18.79-82.05,0-149.57-67.52-149.57-149.57h149.57Z"/>
    <path class="cls-3" d="m208.07,239.16L55.68,140.23c8.06-12.42,17.61-23.81,28.44-33.91,10.82-10.1,22.84-18.84,35.79-26.03l88.17,158.86Z"/>
    <path class="cls-1" d="m208.07,239.16H18.03c-4.77,0-8.58-3.98-8.37-8.75.71-16.13,3.39-32.13,7.98-47.64,4.59-15.51,11.06-30.38,19.25-44.31,2.42-4.11,7.78-5.38,11.79-2.78l159.4,103.48Z"/>
  </g>
  <circle class="cls-4" cx="208.07" cy="239.16" r="26.31"/>
</svg>