<?xml version="1.0" encoding="UTF-8"?><svg id="Layer_1" xmlns="http://www.w3.org/2000/svg" viewBox="0 0 111 36.32"><defs><style>.cls-1{fill:none;stroke:#2d96c9;stroke-linecap:round;stroke-linejoin:round;stroke-width:2.52px;}.cls-2{fill:#273f84;}.cls-2,.cls-3,.cls-4{stroke-width:0px;}.cls-3{fill:#2d96c9;}.cls-4{fill:#fff;}</style></defs><path class="cls-3" d="m22,19.15c-4.83-1.25-10.85,3.22-15.04-.3-1.59-1.34-2.52-3.46-1.46-5.61-.11,1.44,2.33,3.28,3.77,3.82,3.72,1.4,8.23-1.92,12.98-.28-.2.83-.31,1.64-.24,2.37"/><path class="cls-2" d="m9.44,21.28l.25-.75c.91.2,1.98.15,3.02.02l-.91,2.46c-.3.66-.39.76-1.01.34-.36-.25-.69-.51-.99-.83-.6-.63-.61-.51-.35-1.24m1.59-4.33l2.04-5.54c.15-.41.5-.63.93-.63h2.63c.83,0,1-.06,1.28.68l1.6,4.41c-1.04-.04-2.03.11-2.92.28l-.95-2.57h-.37l-1.12,3.03c-1.01.2-1.93.34-3.12.34m10.32,5.04c-.25.44-.64.79-1.08,1.12-.62.49-.89.69-1.19-.11l-1.23-3.42c2.7-.5,3.09.34,3.54,1.57.17.48.14.54-.05.85"/><path class="cls-2" d="m6.51,11.31c.79-1.05,1.72-1.99,2.79-2.72,1.78-1.2,3.91-1.89,6.15-1.89,1.87,0,3.67.47,5.27,1.35,1.8.99,3.4,2.57,4.42,4.37-.63.13-1.69.78-1.93,1.38-.94-1.42-2.14-2.81-3.64-3.63-1.24-.68-2.65-1.05-4.12-1.05-1.75,0-3.42.54-4.79,1.47-1.39.94-2.5,2.29-3.15,3.92-.88-.3-1.94-1.89-.99-3.19"/><path class="cls-2" d="m22.71,22.27c.35-.56,1.1-.73,1.66-.37.56.36.73,1.1.38,1.67-1.01,1.6-2.39,2.88-3.99,3.77-1.6.89-3.43,1.37-5.32,1.37-2.35,0-4.57-.74-6.39-2.05-1.83-1.3-3.25-3.17-4.02-5.4-.21-.63.13-1.3.75-1.53.64-.21,1.31.13,1.53.77.6,1.74,1.72,3.19,3.14,4.21,1.41,1.01,3.15,1.6,4.99,1.6,1.48,0,2.9-.39,4.15-1.08,1.25-.69,2.33-1.69,3.12-2.94"/><path class="cls-2" d="m28.57,22.67c-.14.74-2.15,1.38-2.35,1.05-.04-.08-.08-.14-.05-.26l.51-2.68c.03-.06,0-.11-.05-.13-.05-.01-.14.01-.26.09-.09.06-.22.11-.43.16-.2.04-.36.06-.5.06-.44,0-.83-.06-1.15-.21-.34-.15-.6-.35-.81-.6-.21-.26-.35-.56-.43-.9-.24-1.14.21-2.82.61-3.93.13-.34.31-.65.55-.94.24-.29.54-.53.9-.7.38-.17.83-.26,1.36-.26.16,0,.36.02.6.07.22.05.44.15.62.3.05.02.09.05.11.09.02.03.05.04.07.04.06,0,.11-.02.15-.09.05-.08.11-.14.15-.19.05-.05.13-.09.23-.09h1.53c.13,0,.2.04.26.09.05.06.06.15.05.26l-1.69,8.77Zm-1.03-6.35c.05-.25.01-.46-.11-.64-.13-.19-.34-.28-.64-.28-.26,0-.51.09-.74.26-.23.17-.36.39-.41.65l-.34,1.79c-.06.26-.01.47.13.65.14.18.35.26.64.26s.53-.09.74-.26c.21-.17.34-.39.4-.65l.34-1.79Z"/><path class="cls-2" d="m59.21,16.02c0-.14-.05-.26-.14-.39-.1-.11-.26-.18-.5-.18-.46,0-.78.1-.96.3-.17.19-.31.45-.4.76-.02.08-.02.13-.02.18.01.04.06.05.17.04,1.24-.01,1.85-.26,1.85-.72m2.3-.31c0,.54-.15.99-.45,1.34-.3.34-.68.61-1.11.79-.45.19-.93.31-1.43.39-.51.06-.98.09-1.38.08-.11,0-.17.01-.2.04-.04.04-.06.09-.08.16-.13.58.14.88.76.88.16,0,.33-.04.46-.09.14-.05.28-.13.4-.2.12-.09.24-.18.34-.26.1-.1.19-.17.26-.25.07-.06.15-.11.21-.16.06-.05.16-.04.29.05l.88.76c.13.09.21.16.26.25.05.09.01.2-.11.35-.38.49-.84.84-1.38,1.08-.54.22-1.15.34-1.84.34-.98,0-1.69-.21-2.14-.62-.46-.43-.69-.97-.69-1.61,0-.17.03-.38.06-.63.05-.24.09-.49.13-.73l.17-.99c.1-.55.28-1.02.51-1.4.25-.39.55-.7.9-.95.35-.24.74-.41,1.16-.53.43-.1.88-.16,1.35-.16.29,0,.6.04.91.13.33.07.6.19.86.35.25.17.45.39.61.65.18.26.25.58.25.95"/><path class="cls-2" d="m56.03,12.35c-.09.31-.34.4-.74.28-.07-.01-.17-.04-.3-.05-.14-.01-.22-.02-.28-.02-.15,0-.29.04-.41.13-.14.09-.23.25-.26.46l-.14.43c-.01.06,0,.1.02.14.01.02.08.05.16.05h1.16c.25,0,.35.11.3.34l-.21,1.09c-.04.23-.17.35-.44.35h-1.06c-.15,0-.25.02-.29.09-.04.07-.06.13-.07.19l-1.21,6.15c-.13.66-.41,1.22-.86,1.63-.44.43-1.06.64-1.85.64-.26,0-.53-.01-.76-.04-.23-.01-.41-.05-.55-.07-.09-.02-.17-.06-.28-.14-.1-.06-.11-.19-.05-.39l.38-1.14c.06-.18.14-.29.25-.33.11-.05.28-.04.49.04.14.03.26.05.39.05.14,0,.28-.05.4-.14.14-.09.23-.24.26-.44l1.14-5.82c.02-.08.01-.15-.01-.2-.04-.05-.1-.08-.19-.08h-.44c-.24,0-.35-.13-.31-.35l.21-1.09c.05-.23.2-.34.44-.34h.5c.14,0,.22-.06.24-.2l.15-.75c.08-.3.19-.59.33-.86.14-.28.31-.51.54-.71.21-.21.49-.38.81-.5.31-.14.7-.2,1.15-.2.28,0,.55.02.83.05.28.04.47.07.6.1.09.02.19.08.29.14.09.06.11.2.05.39l-.36,1.15Z"/><path class="cls-2" d="m46.84,21.25c-.25,0-.51-.01-.78-.05-.26-.04-.53-.11-.78-.21-.26-.09-.51-.22-.75-.4-.24-.17-.46-.41-.65-.69-.09-.11-.1-.2-.05-.28.05-.08.15-.16.29-.29l.81-.66c.15-.1.26-.14.35-.12.07.01.19.09.34.25.19.19.39.32.6.4.21.08.41.13.6.13.17,0,.35-.04.53-.1.16-.05.24-.18.24-.35,0-.1-.04-.19-.14-.26-.09-.08-.21-.14-.35-.2-.15-.06-.3-.12-.48-.17-.17-.05-.35-.11-.51-.19-.18-.06-.36-.14-.55-.24-.19-.1-.36-.23-.53-.36-.16-.14-.29-.31-.39-.5-.11-.19-.16-.41-.16-.66,0-.43.07-.8.24-1.13.16-.34.38-.61.64-.85.26-.23.56-.4.93-.53.35-.11.73-.18,1.13-.18.17,0,.38,0,.6.03.23.01.45.05.7.1.25.06.49.15.74.26.24.13.45.29.65.5.1.1.14.2.11.29-.04.07-.1.17-.19.3l-.76.94c-.05.08-.13.09-.21.04-.09-.05-.16-.09-.21-.13-.23-.14-.46-.25-.69-.31-.24-.06-.41-.1-.56-.1-.32,0-.55.05-.65.16-.11.1-.16.21-.16.34,0,.18.13.3.4.39.26.08.59.19.98.33.13.06.3.14.51.22.2.1.4.21.59.38.19.15.35.34.49.55.13.21.2.46.2.74,0,.44-.09.81-.26,1.14-.18.33-.4.6-.69.83-.29.23-.61.4-1,.5-.37.11-.76.16-1.15.16"/><path class="cls-2" d="m71.85,20.25c-.01.11-.05.21-.09.3-.05.08-.14.15-.28.23-.23.09-.46.17-.73.22-.25.06-.5.11-.76.14-.25.02-.51.05-.78.06-.25.01-.5.02-.73.01-.63-.01-1.13-.09-1.53-.21-.39-.13-.69-.29-.9-.5-.69-.66-.54-1.85-.11-2.62.16-.3.39-.55.65-.76.28-.21.6-.37.99-.5.38-.11.81-.16,1.31-.15l1.5.03c.15-.8-.47-1.17-1.31-1.24-2.14-.21-4.26.81-4.78,3.02-.19.8-.39,1.64-.55,2.52-.05.23-.2.34-.44.34h-1.59s-.11-.01-.15-.04c-.05-.03-.08-.06-.09-.1-.03-.05-.04-.13-.03-.19l1.3-6.73c.01-.08.06-.15.11-.21.03-.02.06-.05.11-.08.05-.02.11-.04.16-.04h1.51c.19,0,.3.14.26.33l-.08.41c2.04-1.23,7.86-1.76,7.58,1.78l-.6,3.99Zm-4.11-1.62c-.02.11-.04.21-.04.31,0,.21.07.38.24.49.19.13.48.2.84.2h.22c.09,0,.19-.01.3-.01.1-.01.21-.04.33-.05.11-.03.22-.05.31-.09l.25-1.65-1.08-.02c-.14-.01-.28,0-.43.01-.15.01-.29.06-.43.13-.13.06-.25.16-.35.29-.09.1-.14.24-.17.4"/><path class="cls-2" d="m43.32,20.33c-.01.12-.05.22-.09.31-.05.09-.14.16-.28.24-.24.1-.48.18-.74.24-.25.06-.51.11-.78.14-.25.04-.51.06-.78.08-.26.01-.51.01-.75.01-.63-.03-1.14-.09-1.54-.23-.39-.12-.7-.3-.91-.53-.23-.21-.36-.46-.43-.76-.06-.29-.06-.6-.01-.93.05-.36.16-.7.33-1,.17-.31.39-.58.66-.79.28-.23.6-.4.99-.51.39-.13.83-.17,1.34-.16l1.53.04.04-.24c.01-.12.02-.25.01-.38-.01-.13-.05-.24-.13-.32-.08-.09-.19-.16-.34-.23-.15-.06-.36-.1-.61-.1-.14,0-.3,0-.47.01-.19.01-.36.02-.54.04-.19.02-.36.05-.54.08-.16.04-.32.06-.45.1-.13.02-.21.02-.26,0-.04-.04-.06-.1-.06-.19l-.08-1c-.01-.1-.01-.17.03-.21.02-.05.07-.08.16-.11.44-.14.89-.24,1.36-.29.46-.06.93-.09,1.39-.08,1,.03,1.71.26,2.13.71.41.45.55,1.1.43,1.95l-.61,4.11Zm-1.66-2.49l-1.1-.02c-.14,0-.28.01-.42.02-.15.01-.3.05-.43.13-.14.06-.26.16-.36.3-.1.12-.18.3-.2.53-.05.34.02.56.22.7.2.14.48.21.85.23.05,0,.13,0,.23-.01.09,0,.19,0,.3-.01.11-.01.22-.04.34-.05.11-.03.22-.05.32-.09l.25-1.72Z"/><path class="cls-2" d="m33.4,19.22c.08,0,.19,0,.34-.01.14-.01.26-.03.39-.04l1.1-5.29c.03-.11.06-.19.1-.23.04-.04.14-.06.29-.06h1.74c.2,0,.29.1.24.29l-1.29,6.11c-.06.3-.15.55-.29.74-.13.19-.35.31-.66.39-.1.02-.24.04-.41.06-.19.02-.38.05-.59.06-.21.01-.41.02-.63.04-.21,0-.39.01-.52.01-.68,0-1.24-.06-1.69-.2-.44-.13-.78-.34-1.01-.64-.24-.3-.38-.69-.41-1.16-.04-.48.02-1.06.18-1.78l.76-3.63c.03-.11.06-.19.1-.23.04-.04.12-.06.28-.06h1.76c.21,0,.3.1.25.29l-.81,3.88c-.05.25-.08.46-.1.64-.01.19.01.34.06.45.05.12.15.21.29.28.14.06.31.09.55.09"/><path class="cls-3" d="m41.46,30.51c.06.02.12.04.17.07.07-.51-.66-1.55-.06-1.57v-1.59l-.58-.34c-.69-.48-1.42-.79-2.15-.94-.21-.04-.42-.06-.63-.06-1.01-.04-2.1.37-3.34,1.27-.11.09-.21.16-.3.25-.63.54-1.24.85-1.84.9-.58.04-1.18-.19-1.85-.69-1.59-1.17-2.53-1.74-3.62-1.74s-2.1.37-3.34,1.27c-.11.09-.21.16-.3.25-.07.06-.15.11-.22.17-.11.11-.23.21-.36.3-1.09.78-2.37,1.26-3.47,2.03-.17.12-.36.19-.56.25.98.74,1.94,1.04,2.89.97.97-.07,1.9-.54,2.83-1.34.08-.06.16-.13.23-.19.8-.62,1.43-.89,2.3-.89s1.74.72,2.58,1.36c1.03.8,2.02,1.13,3.02,1.06.97-.07,1.9-.54,2.83-1.34.09-.06.16-.13.23-.19.8-.62,1.58-.92,2.3-.89h0c.11.01.21.02.32.04.75.13,2,1.06,2.7,1.58.07-.02.15-.03.23,0"/><path class="cls-3" d="m51.1,27.88c-.07.07-.17.12-.3.12-1.65,0-3.31.02-4.96-.04-.19.07-.37.11-.56.1-.11,0-.21-.03-.3-.07-.44.29-.87.46-1.3.49-.58.04-1.18-.19-1.85-.69-1.59-1.18-2.53-1.74-3.62-1.74v2.82c.87,0,1.73.75,2.58,1.36.86.62,1.44.76,2.44.76h1.79c1.03,0,1.08-.58,1.62-1.05.09-.06.16-.13.23-.19.8-.62,1.58-.92,2.3-.9h0c.11,0,.21.02.32.04.68.14,1.43.69,2.26,1.33.04.03.78.75.78.75v-2.52c-.46-.23-.94-.43-1.43-.59"/><path class="cls-1" d="m23.65,29.1c-2.32,1.68-5.17,2.68-8.26,2.68-6.66,0-12.24-4.63-13.7-10.84"/><path class="cls-3" d="m43.32,27.6c-.56,0-1.12.07-1.75-.18v3.12c.16.05.31.13.44.21.06-.01.13-.01.2,0,.25.06.48.06.74.13.08.02.15.07.21.13h33.34v-3.41h-33.18Z"/><path class="cls-4" d="m44.12,29.53l.6.18c-.04.17-.1.31-.19.42-.09.11-.19.2-.32.25s-.29.09-.49.09c-.24,0-.43-.03-.59-.1-.15-.07-.28-.19-.39-.37-.11-.17-.17-.4-.17-.67,0-.36.1-.64.29-.84.19-.2.47-.29.82-.29.28,0,.49.06.65.17.16.11.28.28.35.52l-.6.13c-.02-.07-.04-.12-.07-.15-.04-.05-.09-.09-.14-.12-.05-.03-.12-.04-.18-.04-.15,0-.27.06-.35.19-.06.09-.09.24-.09.43,0,.24.04.41.11.5.07.09.18.14.31.14s.23-.04.3-.11c.07-.07.11-.18.14-.32Z"/><path class="cls-4" d="m46.4,28.39c.67.07,1,.37,1,.9s-.33.84-1,.9v.23h-.62v-.23c-.67-.06-1-.36-1-.9s.33-.83,1-.9v-.17h.62v.17Zm-.62,1.35v-.91c-.1.03-.18.09-.24.17-.06.09-.09.18-.09.29,0,.1.03.19.09.28.06.08.14.14.25.17Zm.62,0c.11-.03.19-.09.25-.17s.09-.17.09-.29-.03-.2-.09-.29c-.06-.08-.14-.14-.25-.18v.92Z"/><path class="cls-4" d="m47.65,28.23h1.82v.47h-1.14v.35h1.06v.45h-1.06v.43h1.17v.5h-1.85v-2.2Z"/><path class="cls-4" d="m49.89,28.23h1.13c.25,0,.43.06.55.18.12.12.18.28.18.5s-.07.4-.2.52c-.13.12-.34.19-.61.19h-.37v.82h-.68v-2.2Zm.68.94h.17c.13,0,.22-.02.28-.07.05-.05.08-.1.08-.17s-.02-.13-.07-.18-.13-.07-.26-.07h-.19v.49Z"/><path class="cls-4" d="m53.48,30.06h-.77l-.11.36h-.69l.83-2.2h.74l.83,2.2h-.71l-.11-.36Zm-.14-.48l-.24-.79-.24.79h.48Z"/><path class="cls-4" d="m58.31,30.43h-.77l-.26-.57c-.06-.13-.11-.22-.15-.25s-.08-.05-.14-.05v.87h-.68v-2.2h.68v.85c.06,0,.1-.02.14-.06.03-.04.08-.15.15-.34.05-.14.1-.24.15-.3.05-.06.14-.1.25-.13.12-.03.3-.04.55-.04v.47h-.03c-.12,0-.2.02-.26.07-.06.04-.1.12-.14.21s-.07.17-.12.22c-.04.05-.1.09-.17.12.1.03.18.09.26.17.07.08.15.2.23.37l.3.6Z"/><path class="cls-4" d="m58.46,29.33c0-.36.1-.64.3-.84s.48-.3.84-.3.65.1.85.3c.2.2.3.47.3.83,0,.26-.04.47-.13.63-.09.16-.21.29-.38.38-.16.09-.37.14-.61.14s-.45-.04-.62-.12-.29-.2-.4-.38-.15-.39-.15-.64Zm.68,0c0,.22.04.38.12.48.08.1.2.15.34.15s.26-.05.34-.14c.08-.1.12-.27.12-.51,0-.21-.04-.36-.12-.45-.08-.1-.2-.14-.34-.14s-.25.05-.33.15c-.08.1-.12.26-.12.48Z"/><path class="cls-4" d="m61.05,28.23h.68v.77h.74v-.77h.68v2.2h-.68v-.89h-.74v.89h-.68v-2.2Z"/><path class="cls-4" d="m63.39,28.23h2.07v.54h-.69v1.66h-.68v-1.66h-.69v-.54Z"/><path class="cls-4" d="m65.78,28.23h1.13c.25,0,.43.06.55.18.12.12.18.28.18.5s-.07.4-.2.52c-.13.12-.34.19-.61.19h-.37v.82h-.68v-2.2Zm.68.94h.17c.13,0,.22-.02.28-.07.05-.05.08-.1.08-.17s-.02-.13-.07-.18-.13-.07-.26-.07h-.19v.49Z"/><path class="cls-4" d="m67.94,29.33c0-.36.1-.64.3-.84s.48-.3.84-.3.65.1.85.3c.2.2.3.47.3.83,0,.26-.04.47-.13.63-.09.16-.21.29-.38.38-.16.09-.37.14-.61.14s-.45-.04-.62-.12-.29-.2-.4-.38-.15-.39-.15-.64Zm.68,0c0,.22.04.38.12.48.08.1.2.15.34.15s.26-.05.34-.14c.08-.1.12-.27.12-.51,0-.21-.04-.36-.12-.45-.08-.1-.2-.14-.34-.14s-.25.05-.33.15c-.08.1-.12.26-.12.48Z"/><path class="cls-4" d="m72.54,30.43h-.68v-1.66h-.53v.68c0,.28-.01.48-.04.61s-.1.23-.21.29c-.11.06-.28.09-.53.09-.07,0-.16,0-.26-.02v-.45h.1c.09,0,.16-.02.2-.06s.06-.11.06-.22v-1.46h1.89v2.2Z"/><path class="cls-4" d="m74.28,30.43v-.89h-.06c-.06,0-.12.02-.17.05-.04.03-.08.08-.12.17l-.36.67h-.77l.33-.64s.05-.08.09-.14.08-.1.11-.12c.04-.03.1-.05.18-.08-.1-.02-.18-.05-.24-.09-.09-.05-.16-.13-.22-.22-.05-.09-.08-.19-.08-.32,0-.14.03-.26.1-.36.07-.1.16-.16.27-.2.11-.04.27-.05.48-.05h1.13v2.2h-.68Zm0-1.76h-.3c-.12,0-.21.02-.25.06-.05.04-.07.09-.07.16,0,.05.01.09.04.13.03.04.07.06.11.07.09.02.15.03.18.03h.29v-.45Z"/></svg>