<?xml version="1.0" encoding="UTF-8"?><svg id="Layer_1" xmlns="http://www.w3.org/2000/svg" viewBox="0 0 111 36.32"><defs><style>.cls-1{fill:#211d1e;}.cls-1,.cls-2{fill-rule:evenodd;stroke-width:0px;}.cls-2{fill:#dd2829;}</style></defs><path class="cls-2" d="m21.51,17.47c-.56-3.84-3.59-6.44-8.37-7.34-4.77-.9-11.87-.11-12.97,5.44-1.01,5.04,2.81,5.53,4.24,5.53h.73l-.31,1.41h0c-.54,0-1.09,0-1.65,0-1.82-.01-2.63,1.08-1.84,2.68,1.82,3.67,6.08,5.8,10.75,4.49,4.87-1.37,9.96-7.15,9.42-12.21Zm-9.75,3.72c.63.07.89.3.77.7-.12.4-.46.61-1.03.63h-3.55s.3-1.36.3-1.36l3.51.04Zm-2.98-2.53l.3-1.35h3.56c.6.09.84.34.72.74-.12.4-.46.6-1.03.62h-3.55Zm8.03,4.77c-3.16,3.83-8.33,6.46-12.87,1.57h4.32s0,0,0,0h3.02c2.42.02,3.88-.87,4.38-2.68.34-1.27.15-2.14-.57-2.6.66-.54,1.08-1.31,1.24-2.33.18-1.62-.71-2.51-2.67-2.67h-7.12l-.85,3.83h-1.18c-1.04-.09-2.11.05-1.62-2.6,1.15-5.13,7.72-4.45,11.66-3.2,2.22.7,3.85,2.43,4.23,5.04.32,1.65-.78,4.19-1.97,5.64Z"/><path class="cls-1" d="m33.02,15.08h-5.78l-1.71,8.33h5.69c1.96.01,3.13-.71,3.52-2.17.26-1.03.09-1.73-.49-2.11.53-.44.86-1.07.97-1.89.12-1.31-.61-2.03-2.2-2.16Zm-.83,5.81c-.09.32-.37.49-.83.51h-2.88s.23-1.1.23-1.1l2.85.03c.51.05.73.24.63.56Zm.62-3.12c-.09.32-.37.49-.83.51h-2.88s.22-1.1.22-1.1h2.88c.49.08.69.27.59.6Z"/><path class="cls-1" d="m43.55,23.41h-5.88c-1.67-.1-2.24-1.49-1.69-4.17.55-2.68,1.74-4.07,3.58-4.16h5.72s-.42,2.03-.42,2.03h-5.07c-.43-.01-.7.1-.8.33l-.28.72h5.94s-.43,2.01-.43,2.01l-5.89-.02-.04.47c-.03.4.09.61.36.64h5.36s-.45,2.16-.45,2.16Z"/><path class="cls-1" d="m44.79,23.45l1.74-8.39h5.67c1.64-.03,2.32.85,2.03,2.66l-1.19,5.72h-2.22s1.12-5.24,1.12-5.24c.16-.54-.02-.79-.52-.76h-3.09s-1.24,6-1.24,6h-2.31Z"/><path class="cls-1" d="m61.61,15.04h-2.83c-1.81.07-2.93.96-3.38,2.67l-1.18,5.68h2.3l.52-2.54,3.71.02-.53,2.54h2.22l1.19-5.71c.28-1.66-.39-2.54-2.02-2.65Zm-.26,3.04l-.15.7h-3.7l.19-.89c.05-.57.38-.87.98-.88h2.24c.48.07.63.43.44,1.07Z"/><path class="cls-1" d="m73.3,17.91c.26-1.6-.47-2.55-2.18-2.84h-5.78l-1.74,8.34h2.5s.54-2.6.54-2.6h2.21l.85,2.63h2.78l-.87-2.75c.98-.68,1.54-1.61,1.69-2.78Zm-2.22.03c-.12.44-.41.67-.88.68h-3.07s.3-1.45.3-1.45h3.09c.49.08.67.33.56.78Z"/><path class="cls-1" d="m73.43,23.45l1.74-8.39,7.48.02c1.66-.05,2.34.83,2.06,2.65l-1.19,5.72h-2.12s1.05-5.06,1.05-5.06c.19-.63.04-.93-.44-.92h-1.12s-1.25,5.97-1.25,5.97h-2.11s1.24-5.98,1.24-5.98h-1.81s-1.24,6-1.24,6h-2.29Z"/><path class="cls-1" d="m92.35,14.96h-3.25c-1.87.01-3.09,1.45-3.68,4.33-.6,2.84-.02,4.26,1.74,4.25h3.96c1.72-.04,2.79-1.51,3.24-4.42.61-2.81-.06-4.2-2.01-4.16Zm-.32,4.18c-.17.86-.36,1.41-.58,1.63-.19.32-.49.5-.89.54h-2.34c-.36-.07-.58-.29-.66-.67-.06-.15,0-.61.16-1.37.16-.75.33-1.24.5-1.46.27-.46.67-.72,1.19-.76h1.8c.39.04.66.18.82.43.17.24.17.79,0,1.65Z"/></svg>