<?xml version="1.0" encoding="UTF-8"?><svg id="Layer_1" xmlns="http://www.w3.org/2000/svg" viewBox="0 0 111 36.32"><defs><style>.cls-1{fill:#2c8bae;stroke-width:0px;}</style></defs><path class="cls-1" d="m62.58,18.87c-.51,0-.92.41-.92.92s.41.92.92.92h3.19l-.72,3.41c-.34,1.62-1.78,2.79-3.44,2.79H18.46l-.42,1.85h43.57c2.52,0,4.73-1.79,5.25-4.26l1.18-5.64h-5.47Z"/><path class="cls-1" d="m22.94,15.78c.39.22,1.04.45,1.77.45.66,0,1.03-.22,1.12-.59.08-.35-.2-.55-.95-.82-1.12-.44-1.78-1.1-1.54-2.17.29-1.27,1.59-2.26,3.41-2.26.86,0,1.44.16,1.86.36l-.76,1.55c-.28-.14-.77-.34-1.48-.34-.59,0-.96.21-1.03.53-.08.36.27.5,1.1.84,1.19.48,1.61,1.17,1.38,2.17-.28,1.24-1.48,2.3-3.59,2.3-.87,0-1.66-.22-2.02-.44l.72-1.59Z"/><path class="cls-1" d="m30.65,16.04l-.78,1.67h-2l3.73-7.21h2.57l.52,7.21h-2.09l-.08-1.67h-1.86Zm1.92-1.42l-.04-1.29c-.01-.41-.02-.99-.03-1.42h-.02c-.2.43-.44,1.02-.64,1.42l-.6,1.29h1.34Z"/><path class="cls-1" d="m35.6,17.71l1.63-7.21h2.28l.64,2.21c.23.72.43,1.68.56,2.52h.03c.11-.95.29-1.96.54-3.03l.39-1.71h1.76l-1.63,7.21h-2.03l-.69-2.4c-.22-.76-.47-1.73-.62-2.6h-.04c-.17.97-.39,2.05-.65,3.22l-.4,1.78h-1.76Z"/><path class="cls-1" d="m45.8,12.13h-1.84l.37-1.63h5.65l-.37,1.63h-1.87l-1.26,5.58h-1.94l1.26-5.58Z"/><path class="cls-1" d="m54.42,14.8h-2.59l-.3,1.33h2.9l-.36,1.58h-4.83l1.63-7.21h4.68l-.36,1.58h-2.75l-.26,1.16h2.59l-.35,1.56Z"/><path class="cls-1" d="m60.57,17.52c-.3.14-1.02.3-1.88.3-2.7,0-3.5-1.68-3.07-3.59.57-2.53,2.73-3.83,4.88-3.83.82,0,1.46.16,1.73.31l-.72,1.53c-.28-.13-.7-.26-1.28-.26-1.1,0-2.21.65-2.54,2.12-.3,1.3.3,2.12,1.63,2.12.46,0,1-.09,1.33-.2l-.07,1.51Z"/><path class="cls-1" d="m65.14,10.5l-.61,2.67h2.34l.61-2.67h1.94l-1.63,7.21h-1.94l.64-2.84h-2.34l-.64,2.84h-1.94l1.63-7.21h1.94Z"/><path class="cls-1" d="m19.55,24.23c.39.22,1.04.45,1.77.45.66,0,1.03-.22,1.12-.59.08-.35-.2-.55-.95-.82-1.12-.44-1.78-1.1-1.54-2.17.29-1.27,1.59-2.26,3.41-2.26.86,0,1.44.16,1.86.36l-.76,1.55c-.28-.14-.77-.34-1.48-.34-.59,0-.96.21-1.03.53-.08.36.27.5,1.1.84,1.19.48,1.61,1.17,1.38,2.17-.28,1.24-1.48,2.3-3.59,2.3-.87,0-1.66-.22-2.02-.44l.72-1.59Z"/><path class="cls-1" d="m26.67,26.16l.66-2.91-1.29-4.3h2.21l.24,1.63c.08.5.14.87.19,1.34h.02c.24-.44.47-.84.76-1.34l.96-1.63h2.18l-3.32,4.22-.68,2.98h-1.94Z"/><path class="cls-1" d="m31.89,24.23c.39.22,1.04.45,1.77.45.66,0,1.03-.22,1.12-.59.08-.35-.2-.55-.95-.82-1.12-.44-1.78-1.1-1.54-2.17.29-1.27,1.59-2.26,3.41-2.26.86,0,1.44.16,1.86.36l-.76,1.55c-.28-.14-.77-.34-1.48-.34-.59,0-.96.21-1.03.53-.08.36.27.5,1.1.84,1.19.48,1.61,1.17,1.38,2.17-.28,1.24-1.48,2.3-3.59,2.3-.87,0-1.66-.22-2.02-.44l.72-1.59Z"/><path class="cls-1" d="m39.99,20.58h-1.84l.37-1.63h5.65l-.37,1.63h-1.87l-1.26,5.58h-1.94l1.26-5.58Z"/><path class="cls-1" d="m48.61,23.25h-2.59l-.3,1.33h2.9l-.36,1.58h-4.83l1.63-7.21h4.68l-.36,1.58h-2.75l-.26,1.16h2.59l-.35,1.56Z"/><path class="cls-1" d="m56.02,23.57c.15-.81.36-1.78.61-2.9h-.03c-.44.95-.98,2.03-1.4,2.82l-1.29,2.51h-1.51l-.03-2.51c-.02-.77.01-1.84.06-2.82h-.02c-.27,1.02-.55,2.09-.76,2.9l-.7,2.59h-1.78l2.08-7.21h2.6l.03,1.95c.02.79.02,1.75-.03,2.63h.03c.4-.88.87-1.89,1.25-2.65l.98-1.93h2.53l-1.27,7.21h-1.87l.5-2.59Z"/><path class="cls-1" d="m59.14,24.23c.39.22,1.04.45,1.77.45.66,0,1.03-.22,1.12-.59.08-.35-.2-.55-.95-.82-1.12-.44-1.78-1.1-1.54-2.17.29-1.27,1.59-2.26,3.41-2.26.86,0,1.44.16,1.86.36l-1.73,1.5s-1.47-.08-1.54.25c-.08.36.27.5,1.1.84,1.19.48,1.61,1.17,1.38,2.17-.28,1.24-1.48,2.3-3.59,2.3-.87,0-1.66-.22-2.02-.44l.72-1.59Z"/><path class="cls-1" d="m18.26,13.8c-.51-.62-1.26-.98-2.06-.98h-7.76c-1.54,0-2.89,1.09-3.21,2.6-.2.97.04,1.97.66,2.74.63.77,1.55,1.22,2.55,1.22h1.81c.3,0,.58.13.76.37.19.23.26.54.19.83l-.07.31c-.1.44-.49.75-.95.75H2.66c-.15,0-.23-.08-.27-.13-.04-.05-.1-.15-.07-.29l1.42-6.68c.59-2.76,3.06-4.77,5.89-4.77h6.74l.52-2.31h-7.27c-3.91,0-7.33,2.78-8.14,6.6L.06,20.73c-.17.79.03,1.6.53,2.23.51.63,1.26.99,2.07.99h7.52c1.53,0,2.85-1.04,3.19-2.54l.07-.31c.23-.98,0-1.99-.62-2.78-.63-.79-1.56-1.24-2.57-1.24h-1.81c-.4,0-.65-.23-.76-.36-.11-.13-.28-.42-.2-.81.09-.45.5-.77.95-.77h7.76c.14,0,.23.08.27.13.04.05.1.15.07.29l-1.32,6.37c-.59,2.77-3.06,4.77-5.89,4.77H3.18l-.52,2.31h6.67c3.91,0,7.34-2.78,8.15-6.61l1.32-6.37c.16-.79-.03-1.6-.54-2.22Z"/><path class="cls-1" d="m70,7.69H24.94c-1.89,0-3.55,1.31-4.01,3.13h1.96c.38-.77,1.17-1.28,2.05-1.28h44.64l.42-1.85Z"/></svg>