<?xml version="1.0" encoding="UTF-8"?><svg id="Layer_1" xmlns="http://www.w3.org/2000/svg" viewBox="0 0 111 36.32"><defs><style>.cls-1{fill:#010001;stroke-width:0px;}</style></defs><path class="cls-1" d="m4.98,15.43c1.08.16,1.92.55,2.53,1.17.56.57.83,1.28.81,2.12-.02.92-.41,1.73-1.16,2.42-.85.75-1.92,1.13-3.23,1.13-1.23,0-2.48-.46-3.75-1.34-.16-.12-.22-.28-.17-.46.17-.51.36-1.07.56-1.66.04-.11.12-.19.23-.24.12-.04.24-.04.35.02.15.09.39.24.72.46.32.22.6.39.84.5.24.12.47.17.69.17.8,0,1.2-.2,1.2-.61s-.44-.67-1.33-.81c-1.05-.18-1.84-.56-2.38-1.14-.54-.58-.8-1.3-.78-2.14.02-.87.36-1.64,1.01-2.33.74-.75,1.66-1.13,2.76-1.14,1.41,0,2.64.29,3.67.9.09.05.15.12.19.21.04.09.04.18.01.28-.08.51-.17,1.05-.27,1.6-.04.11-.11.19-.22.24-.11.04-.22.04-.34,0-1.01-.48-1.86-.71-2.54-.71-.19,0-.36.06-.5.17-.14.11-.21.25-.21.41,0,.21.1.38.29.51.2.13.53.23,1.01.31"/><path class="cls-1" d="m8.96,17.16v-2.18h.85s-.02-1.36,0-2.04c1.08-.09,2.2-.1,3.27-.03.02.68,0,2.07,0,2.07h1.19v2.18s-1.19,0-1.19,0v4.86l-3.27-.03v-4.83h-.85Z"/><path class="cls-1" d="m15.49,15.08s2.17-.12,3.25-.11v.64c.25-.29.59-.49,1.02-.6.44-.1.92-.14,1.44-.1.05.87.08,1.73.1,2.59-.67-.02-1.2.05-1.6.21-.41.16-.72.46-.94.89,0,1.17-.02,3.42-.02,3.42h-3.24v-6.94Z"/><path class="cls-1" d="m22.21,17.08c.18-.43.45-.82.81-1.19.36-.36.8-.65,1.32-.87.51-.23,1.11-.34,1.77-.34s1.26.11,1.77.34c.51.22.95.51,1.32.87.36.36.63.76.81,1.19.19.44.29.88.29,1.33s-.09.89-.29,1.33c-.18.43-.45.82-.81,1.19-.36.36-.8.65-1.32.87-.51.23-1.11.34-1.77.34s-1.26-.11-1.77-.34c-.51-.22-.95-.51-1.32-.87-.36-.36-.63-.76-.81-1.19-.19-.44-.29-.88-.29-1.33s.09-.89.29-1.33m2.83,1.33c0,.17.02.34.06.5.04.16.11.31.21.43.09.12.21.23.34.31.13.08.29.12.46.12s.33-.04.46-.12c.13-.08.25-.18.34-.31.1-.12.17-.27.21-.43.04-.16.06-.33.06-.5s-.02-.34-.06-.5c-.04-.16-.11-.31-.21-.43-.09-.13-.21-.23-.34-.31-.13-.08-.29-.11-.46-.11s-.33.04-.46.11c-.13.08-.25.18-.34.31-.1.13-.16.27-.21.43-.04.16-.06.33-.06.5"/><path class="cls-1" d="m31.15,15.09s2.17-.09,3.26-.11c-.01.34-.01.69-.01,1.03.23-.31.54-.59.93-.81.4-.22.91-.32,1.52-.31.42.01.78.08,1.09.21.31.13.56.31.77.54.21.22.37.48.47.78.1.31.16.64.17,1,.04,1.53-.16,4.61-.16,4.61,0,0-2.13,0-3.2.01.03-1.44.04-2.8.03-4.24,0-.09-.01-.19-.03-.3-.02-.12-.06-.22-.11-.31-.06-.09-.14-.18-.25-.25-.11-.07-.25-.11-.42-.11-.15,0-.28.04-.39.11-.11.08-.19.17-.26.26-.07.1-.11.21-.14.32-.02.11-.04.2-.04.28,0,1.44.03,4.24.03,4.24h-3.24s-.01-6.94-.01-6.94Z"/><path class="cls-1" d="m45.18,21.34c-.11.1-.25.18-.41.26-.16.08-.36.14-.6.18-.23.05-.5.07-.83.07-.51,0-.96-.12-1.34-.34-.39-.21-.72-.49-.98-.83-.26-.34-.45-.72-.58-1.14-.13-.43-.2-.87-.19-1.33.01-.44.09-.88.23-1.32.14-.43.35-.82.61-1.18.26-.36.58-.65.96-.86.38-.23.82-.35,1.32-.36.55-.01,1,.08,1.33.26.32.19.57.42.74.69v-.74c1.08.02,2.15.07,3.23.16.12,2.23.16,4.46.12,6.68-.01.57-.15,1.07-.43,1.49-.27.42-.61.76-1.04,1.03-.43.27-.91.46-1.44.59-.52.12-1.08.17-1.66.17-.54,0-1.08-.06-1.61-.18-.53-.12-.93-.24-1.21-.36-.28-.12-.45-.21-.51-.28-.02-.51-.04-1.22-.06-2.12.31.17.75.36,1.3.56.14.05.31.09.49.14.18.05.38.09.6.11.24.03.51.04.81.04.21,0,.4-.02.57-.05.17-.03.32-.1.45-.21.13-.11.23-.25.31-.42.08-.18.11-.41.11-.71v-.31c-.09.11-.18.22-.29.31m.41-3.09c0-.32-.09-.61-.27-.88s-.45-.4-.81-.4-.63.13-.81.4-.27.56-.27.88.09.61.27.88c.18.27.45.4.81.4s.63-.13.81-.4c.18-.27.27-.56.27-.88"/><path class="cls-1" d="m54.77,18.02c0-.09,0-.18-.02-.29-.01-.11-.05-.21-.11-.31-.06-.1-.14-.18-.25-.25-.11-.07-.26-.1-.44-.1s-.33.04-.44.11c-.11.08-.2.16-.26.26-.06.1-.1.2-.11.31-.01.1-.02.2-.02.27-.01,1.35.02,3.99.02,3.99l-3.12-.02v-6.9s2.14-.07,3.22-.09c-.02.25-.03.5-.04.76.11-.1.24-.19.38-.29.14-.1.31-.19.51-.28.2-.09.43-.17.69-.23.26-.06.55-.09.87-.09s.59.03.83.1c.24.07.45.15.63.25.18.1.33.21.46.33.12.12.22.23.3.32.26-.29.58-.52.97-.7.39-.19.91-.28,1.57-.26.73.02,1.35.24,1.84.66.51.43.79,1,.81,1.72.07,1.56-.05,4.72-.05,4.72h-3.26s0-2.64-.02-3.99c0-.09,0-.18-.02-.29-.01-.11-.05-.21-.1-.31-.05-.1-.13-.18-.24-.25-.11-.07-.26-.11-.44-.11s-.33.04-.44.11c-.11.07-.19.16-.25.26-.06.11-.09.21-.11.31-.02.1-.03.2-.03.27,0,1.36-.06,3.99-.06,3.99h-3.22s-.07-2.63-.06-3.99"/><path class="cls-1" d="m72.47,22.02h-3.16s.01-.58.01-.85c-.19.31-.44.55-.74.71-.31.17-.72.25-1.22.24-.52-.01-1-.13-1.43-.34-.41-.22-.76-.5-1.04-.84-.3-.35-.52-.74-.67-1.17-.15-.43-.23-.86-.23-1.3s.08-.89.23-1.33c.15-.42.37-.81.67-1.16.29-.35.63-.64,1.04-.86.43-.22.91-.33,1.43-.34.5,0,.9.07,1.22.23.31.15.55.36.74.61,0-.25-.01-.65-.01-.65h3.16s0,7.05,0,7.05Zm-3.19-3.69c0-.18-.02-.34-.07-.5-.05-.16-.12-.3-.21-.43-.09-.13-.21-.23-.36-.31-.15-.08-.31-.11-.49-.11-.19,0-.36.04-.5.11-.14.08-.26.18-.35.31-.09.13-.16.27-.21.43-.05.16-.08.32-.08.5s.02.34.07.5c.05.16.12.3.22.43.09.13.21.23.35.31.14.08.31.11.51.11.18,0,.35-.04.49-.11.15-.08.27-.18.36-.31.09-.13.16-.27.21-.43.05-.16.07-.32.07-.5"/><path class="cls-1" d="m73.94,15.01s2.17-.02,3.26-.04c-.01.34-.01.69-.01,1.03.23-.31.54-.59.93-.81.4-.22.91-.32,1.51-.31.42.01.78.08,1.09.21.31.13.56.31.77.54.21.22.37.48.47.78.1.31.16.64.17,1,.04,1.53-.13,4.61-.13,4.61h-3.23s.04-2.79.03-4.22c0-.09-.01-.19-.03-.3-.02-.12-.06-.22-.12-.31-.06-.09-.14-.18-.25-.25-.11-.07-.25-.11-.42-.11-.15,0-.28.04-.39.11-.11.08-.19.17-.26.26-.07.1-.11.21-.13.32-.02.11-.04.2-.04.28,0,1.44.03,4.22.03,4.22h-3.24v-7Z"/></svg>