<?xml version="1.0" encoding="UTF-8"?><svg id="Layer_1" xmlns="http://www.w3.org/2000/svg" viewBox="0 0 111 36.32"><defs><style>.cls-1{fill:#1e4c58;}.cls-1,.cls-2{stroke-width:0px;}.cls-2{fill:#dc6e25;}</style></defs><path class="cls-1" d="m0,13.35h7.65s0,2.16,0,2.16H2.62v2.66h4.17s0,2.14,0,2.14H2.62v4.67H0s0-11.63,0-11.63Z"/><path class="cls-1" d="m12.06,13.35v11.63h-2.62s0-11.63,0-11.63h2.62Z"/><path class="cls-1" d="m16.6,15.56h-3.14s0-2.21,0-2.21h8.93s0,2.21,0,2.21h-3.17v9.42h-2.62s0-9.42,0-9.42Z"/><path class="cls-1" d="m26.43,15.56h-3.14s0-2.21,0-2.21h8.94s0,2.21,0,2.21h-3.17v9.42h-2.62s0-9.42,0-9.42Z"/><path class="cls-1" d="m42.22,20.06h-5.61v2.76h6.11s0,2.16,0,2.16h-8.74v-11.63h8.49s0,2.16,0,2.16h-5.87v2.41h5.61s0,2.14,0,2.14Z"/><path class="cls-1" d="m51.94,24.98l-2.79-3.84-2.6,3.84h-3s4.07-5.88,4.07-5.88l-3.8-5.74h3.02s2.46,3.77,2.46,3.77l2.38-3.77h3s-3.84,5.67-3.84,5.67l4.15,5.95h-3.04Z"/><path class="cls-1" d="m58.29,13.49c.65-.11,1.58-.2,2.93-.2s2.2.24,2.83.71c.61.45,1.02,1.23,1.02,2.14s-.3,1.68-.87,2.19c-.71.63-1.76.92-2.96.92-.24,0-.44-.03-.58-.03v3.02h-2.36s0-8.77,0-8.77Zm2.36,3.92c.13.01.29.03.54.03.92,0,1.51-.48,1.51-1.24,0-.66-.44-1.11-1.35-1.11-.34,0-.58.03-.7.05v2.27Z"/><path class="cls-1" d="m68.63,13.36h-2.39v6.09h2.39v-6.09Zm.83,6.9v1.99h2.59v-1.99h-2.59Z"/><path class="cls-1" d="m75.21,13.36v5.06c0,1.35.46,2.1,1.4,2.1s1.41-.69,1.41-2.1v-5.06h2.39s0,4.91,0,4.91c0,2.75-1.37,4.13-3.87,4.13s-3.72-1.33-3.72-4.19v-4.86h2.39Z"/><path class="cls-1" d="m82.2,19.88c.54.28,1.41.55,2.31.55.82,0,1.21-.28,1.21-.73s-.4-.67-1.4-1.02c-1.51-.54-2.51-1.36-2.51-2.68,0-1.57,1.33-2.79,3.58-2.79,1.06,0,1.82.2,2.4.45l-.5,1.91c-.38-.17-1.04-.42-1.93-.42-.73,0-1.12.26-1.12.66,0,.45.48.62,1.6,1.04,1.6.59,2.31,1.44,2.31,2.68,0,1.53-1.19,2.84-3.79,2.84-1.07,0-2.11-.28-2.61-.54l.45-1.97Z"/><polygon class="cls-2" points="68.44 20.28 66.24 20.28 63.4 20.28 63.4 22.26 66.24 22.26 66.24 24.98 68.63 24.98 68.63 20.28 68.44 20.28"/></svg>