<svg width="82" height="24" viewBox="0 0 82 24" fill="none" xmlns="http://www.w3.org/2000/svg">
<circle cx="12" cy="12" r="9.5" transform="rotate(-90 12 12)" fill="#EB5757" stroke="#F3F5F9"/>
<mask id="mask0_546_44256" style="mask-type:luminance" maskUnits="userSpaceOnUse" x="3" y="3" width="18" height="18">
<circle cx="12" cy="12" r="9" transform="rotate(-90 12 12)" fill="white"/>
</mask>
<g mask="url(#mask0_546_44256)">
<path d="M6.13034 16.3818C5.95434 16.3818 5.80234 16.3738 5.67434 16.3578C5.54101 16.3418 5.42634 16.3232 5.33034 16.3018V15.1018C5.41567 15.1178 5.50634 15.1338 5.60234 15.1498C5.69301 15.1712 5.79167 15.1818 5.89834 15.1818C6.17567 15.1818 6.36234 15.0965 6.45834 14.9258C6.55967 14.7605 6.61034 14.5072 6.61034 14.1658V8.87784H8.16234V14.0298C8.16234 14.6005 8.07434 15.0592 7.89834 15.4058C7.72767 15.7525 7.49034 16.0005 7.18634 16.1498C6.88234 16.3045 6.53034 16.3818 6.13034 16.3818ZM14.2388 11.6138C14.2388 12.2752 14.1135 12.8272 13.8628 13.2698C13.6175 13.7125 13.2708 14.0432 12.8228 14.2618C12.3748 14.4805 11.8468 14.5898 11.2388 14.5898H9.39084V8.87784H11.3668C12.2895 8.87784 12.9988 9.11251 13.4948 9.58184C13.9908 10.0512 14.2388 10.7285 14.2388 11.6138ZM12.6388 11.6698C12.6388 10.6405 12.2202 10.1258 11.3828 10.1258H10.9348V13.3258H11.2788C11.7482 13.3258 12.0922 13.1898 12.3108 12.9178C12.5295 12.6458 12.6388 12.2298 12.6388 11.6698ZM18.6578 14.5898H15.2658V8.87784H18.6578V10.1178H16.8098V11.0138H18.5218V12.2538H16.8098V13.3338H18.6578V14.5898Z" fill="#F3F5F9"/>
</g>
</svg>
