<?xml version="1.0" encoding="UTF-8"?><svg id="Layer_1" xmlns="http://www.w3.org/2000/svg" viewBox="0 0 111 36.32"><defs><style>.cls-1{fill:#0e5a94;stroke-width:0px;}</style></defs><path class="cls-1" d="m4.82,10.87c-.16-5.63,1.41-8.5,4.65-9.85,2.19-.91,6.43-.39,8.43,1.93s1.77,4.85,1.87,7.23l.04,1.37c1.01-.02,3.99-.38,5.44.28,2.5.71,3.9,3.06,3.95,5.59l.12,6.44c-1.96.02-2.69.03-4.61,0-.03,0-.06,0-.1,0v-.11s-.22-5.32-.22-5.32c-.51-.75-.75-1.45-2.3-1.47-1.55-.02-1.88,1-2.2,1.47v2.59s-.03,7.44-.03,7.44c0,.97-.35,1.2-.89,1.83-.49,0-.64.54-2.89.05-1.61-.74-1.29-3.18-1.29-5.01l-.18-7.58-.25-9.81c-.07-.55-.31-1.61-2.08-1.61-1.77,0-1.89.93-2.21,1.69.02,1.89-.05,4.48-.07,7.05,0,.8-.02,1.56-.03,2.21-.37.91-.74,1.46-1.46,1.73-1.34.38-2.43-.11-3.06-.91-.54-.69-.5-3.04-.58-6.31,0-.3-.01-.61-.02-.92"/><path class="cls-1" d="m12.27,6.3c1.92,0,2.06,1.24,2.11,1.64l.25,9.81.18,7.58c0,.25,0,.51-.01.78-.04,1.67-.09,3.57,1.28,4.19,1.63.35,2.15.16,2.49.03.12-.05.23-.09.36-.09.07-.08.14-.16.2-.23.42-.46.67-.74.67-1.56l.03-10.04h0c.05-.08.09-.16.14-.24.29-.5.73-1.26,2.04-1.26h.05c1.39.02,1.75.58,2.16,1.22.06.09.11.18.18.27h0s0,.02,0,.02l.22,5.39h.06c1.84.04,2.59.03,4.38.01h.19s-.12-6.4-.12-6.4c-.05-2.71-1.59-4.89-3.92-5.55-1.17-.54-3.35-.4-4.66-.32-.31.02-.57.03-.76.04h-.04s-.04-1.41-.04-1.41c-.01-.32-.02-.64-.03-.96-.05-2.09-.1-4.26-1.83-6.25C15.93.74,11.77.11,9.49,1.06c-3.34,1.39-4.77,4.42-4.62,9.81,0,.31.02.62.02.92.01.45.02.88.03,1.29.05,2.56.09,4.41.54,5,.7.9,1.83,1.23,3.02.89.72-.27,1.08-.85,1.43-1.7.01-.61.02-1.33.03-2.2,0-.93.02-1.86.04-2.75.02-1.59.05-3.09.04-4.3v-.02c.04-.09.08-.19.12-.28.27-.7.56-1.43,2.14-1.43h0Zm5.36,24.3c-.37,0-.87-.05-1.57-.2-1.43-.65-1.38-2.57-1.34-4.27,0-.27.01-.53.01-.78l-.18-7.58-.25-9.81c-.05-.38-.19-1.57-2.03-1.57h0c-1.53,0-1.8.7-2.06,1.38-.04.09-.07.19-.11.28.01,1.21-.01,2.71-.04,4.29-.01.9-.03,1.83-.04,2.75,0,.88-.02,1.6-.03,2.21h0c-.36.89-.73,1.48-1.48,1.76-1.22.35-2.38,0-3.11-.92-.48-.6-.51-2.47-.56-5.04,0-.41-.02-.84-.03-1.29,0-.3-.01-.61-.02-.92-.15-5.43,1.29-8.47,4.67-9.88,2.31-.96,6.52-.33,8.48,1.94,1.75,2.02,1.8,4.2,1.85,6.3,0,.31.02.64.03.95l.03,1.33c.19,0,.44-.02.72-.04,1.31-.08,3.51-.22,4.69.33,2.36.67,3.92,2.88,3.97,5.62l.12,6.48h-.27c-1.79.02-2.54.03-4.38,0h-.13s-.01-.14-.01-.14l-.21-5.31c-.06-.09-.12-.17-.17-.26-.4-.63-.75-1.17-2.09-1.19-.02,0-.03,0-.05,0-1.26,0-1.67.7-1.97,1.22-.05.08-.09.16-.14.23v2.58s-.03,7.44-.03,7.44c0,.85-.28,1.16-.69,1.62-.07.07-.14.15-.21.24h-.01s-.02.01-.02.01c-.12,0-.23.04-.35.08-.2.08-.47.17-.97.17"/><path class="cls-1" d="m17.99,35.77c-4.06-.06-5.3-.79-6.75-2.81-1.41-1.95-1.71-5.01-1.82-7.46l-.13-1.69c-.12,0-.25.01-.4.02-1.22.07-3.05.18-4.52-.33-2.13-.56-4.11-3.89-4.2-5.35L0,11.37h.33c.95.06,1.57.05,2.17.04.63,0,1.29-.02,2.32.04l-.03.61c-1.02-.05-1.63-.05-2.28-.04-.53,0-1.08.01-1.87-.02l.17,6.11c.08,1.23,1.92,4.3,3.77,4.79,1.37.48,3.13.38,4.3.31.28-.02.52-.03.71-.03h.29s.17,2.28.17,2.28c.1,2.37.39,5.32,1.7,7.13,1.24,1.72,2.21,2.49,6.25,2.55,4.82-.2,6.62-3.36,6.41-11.29l.61-.02c.16,6.04-.58,11.66-7.02,11.92"/></svg>