<?xml version="1.0" encoding="UTF-8"?><svg id="Layer_1" xmlns="http://www.w3.org/2000/svg" viewBox="0 0 111 36.32"><defs><style>.cls-1{fill:#004c85;stroke-width:0px;}</style></defs><path class="cls-1" d="m12.41,8.36c-3.76-.6-8.47.57-9.84,5.51-1.72,6.22,13.79,1.23,8.53,8.05-3.35,4.67-5.95,4.51-10.17,3.06-.42-.11-.7-.11-.9-.03h0s.7.59.7.59l-.74.87c.06.23.13.46.21.69l.26.22-.03.37c.35.76.89,1.37,1.93,1.35,3.19-.03,5.41-.55,8.23-2,2.3-1.18,5.47-3.57,5.03-6.36-.25-1.59-3.01-2.7-4.47-3.26-1.88-.72-5.3-1.53-4.72-3.79.59-2.3,3.31-3.32,5.47-2.86.97.21,1.88.71,2.58,1.4.39.39.82,1.39,1.43,1.6,0,0,0-.01,0-.01l.45-.24-.04-1.09.68-.36-.04-1.12.08-.23c-.7-.85-2.07-1.95-4.65-2.36Z"/><path class="cls-1" d="m29.14,25.05c.4-2.41,1.39-4.64,2.39-6.86,1.08-2.4,2.39-4.74,2.84-7.33.14-.84.22-1.89-.24-2.66-.56-.92-1.77-.95-2.67-.55-.07.03-.15.08-.22.13l-.62.73.32.27-1.02,1.21c.03.18.09.35.22.51.22.28.79.14.83.59.01.14-.03.27-.08.4-.19.55-.38,1.11-.57,1.66-1.5,4.36-4.42,8.65-4.7,13.37-.07,1.21.7,2.17,2.28,2.52.78.17,1.59,0,2.32-.3-.13-.35-.21-.73-.25-1.1-.06,0-.11,0-.17,0-.19,0-.47-.03-.65-.21-.41-.42-.16-1.38-.09-1.89.02-.17.05-.33.07-.5Z"/><path class="cls-1" d="m24.69,15.28c-1.31-.45-2.65-.3-3.84.43-1.66,1.02-3.03,2.78-3.45,4.72-.41,1.91.28,4.39,2.47,4.73.75.12,1.54-.05,2.26-.27s1.49-.53,2.14-.95c.09-.06.12-.09.16-.19.05-.12.19-.19.25-.31.05-.11.01-.23.01-.34,0-.13.06-.25.04-.38,0-.03-.01-.06-.04-.08-.06-.06-.4.14-.49.17-.18.07-.36.14-.54.21-.38.14-.77.26-1.16.35-.63.16-1.38.33-2.02.14-.04-.01-.08-.02-.11-.04-.58-.24-.52-.95-.37-1.44.08-.29.12-1.12.51-1.15,1.71-.16,5.33-1.69,5.96-3.44.41-1.13-.9-1.84-1.77-2.14Zm-1.04,3.88c-.93.34-1.93.42-2.91.4.09,0,.74-1.92,2.35-2.88.62-.37,1.75-.47,2.27.12.05.06.1.12.14.18.62,1.01-1.11,1.9-1.85,2.17Z"/><path class="cls-1" d="m65.12,25.25s0-.07-.01-.1c-.15.04-.28.16-.43.21-.16.05-.37.08-.49-.05-.07-.08-.09-.19-.09-.3-.06-.98.27-1.95.66-2.85.39-.91.84-1.79,1.08-2.75.03-.12.06-.26,0-.38-.08-.17-.3-.21-.48-.22-.73-.03-1.47.21-2.05.66-1.63,1.29-1.64,3.9-3.21,5.27-.16.14-.33.26-.54.31-.2.05-.44,0-.57-.17-.1-.13-.13-.3-.14-.46-.08-.96.13-1.91.46-2.82.49-1.37,1.26-2.68,2.44-3.52.5-.36,1.13-.64,1.72-.47.22.06.48.18.66.04.21-.17.07-.52-.11-.73-.33-.36-.76-.62-1.23-.74-.81-.2-1.67.06-2.41.46-1.92,1.04-3.21,2.97-3.95,5.02-.26.72-.46,1.49-.34,2.25.16.93.85,1.73,1.73,2.06,1.03.39,2.06.07,2.82-.72.59-.62.95-1.42,1.27-2.22-.15.86.04,1.78.53,2.5.28.41.67.77,1.15.86.32.06.64,0,.93-.12.15-.06.3-.14.44-.23.2-.13.18-.19.12-.42-.03-.1-.03-.2,0-.29.01-.04.03-.07.03-.11Z"/><path class="cls-1" d="m40.36,16.32c-.28-.15-.58-.28-.84-.36-1.32-.41-2.66-.23-3.83.53-1.77,1.15-3.26,3.36-3.46,5.49-.12,1.3.44,2.91,1.61,3.6.85.5,1.87.51,2.8.25.46-.13,1.35-.66,1.77-.89.14-.08.27-.16.4-.25.06-.04.13-.09.19-.13.07-.05.16-.08.14-.18-.02-.12-.03-.19.03-.31.04-.07.02-.16,0-.24-.01-.04-.05-.08-.08-.11,0,0-.01-.02-.02-.03,0-.01,0-.03,0-.04,0-.07-.05-.17-.12-.2-.07-.04-.16-.03-.23-.02-.1.02-.2.06-.29.1-.17.07-.33.17-.51.23-.6.21-1.98.83-2.56.42-.27-.19-.41-.52-.44-.85-.04-.41-.02-1.61.57-1.68,1.6-.19,4.83-1.65,5.7-3.29.06-.1.13-.21.17-.31.27-.8-.32-1.37-.99-1.73Zm-.1,2.37c-.36.5-.98.76-1.49,1.06-.84.5-2.36.63-3.4.6.11,0,.09-.41.84-1.46.76-1.05,1.31-1.31,2.04-1.62.51-.22,1.22-.23,1.73.07.03.02.05.05.08.07.12.08.24.17.32.29.18.3.09.7-.11.99Z"/><path class="cls-1" d="m54.51,28.17c-.06-.05-.11-.12-.14-.19,0,0,0,0,0-.01-.06-.13-.08-.31-.15-.43-.07-.13-.66.04-.81.04-.19,0-.47-.03-.65-.21-.21-.22-.24-.59-.14-1.01.34-1.4.91-2.73,1.21-4.13.24-1.12.21-2.29-.08-3.4-.2-.75-1.02-2.06-1.95-2.17-.46-.05-.92.08-1.32.29-.03.02-.06.03-.09.05-.71.41-1.29,1-1.9,1.53-1.22,1.05-2.27,2.28-3.38,3.45-.17.2-.36.11-.39-.13.08-1.07.57-2.06.87-3.08.24-.83.42-1.67.52-2.52.09-.68.2-1.47-.31-2.02-.27-.28-.67-.4-1.06-.4-1.01,0-1.55.82-1.93,1.65l.19.65-.45.53c.06.06.14.11.23.16.18.11.43.24.55.42.17.23-.09.86-.13,1.11-.31,1.77-1.02,3.51-1.16,5.29-.08,1.04.77,2.72,1.98,1.77.67-.52,1.15-1.45,1.68-2.11.62-.77,1.27-1.51,1.87-2.29,1-1.29,2.11-2.59,3.63-3.29.06.72-.01,1.16-.06,1.68-.17,1.96-1.21,3.79-1.57,5.71-.32,1.73-.04,3.44,1.92,3.87.93.2,1.9-.05,2.72-.48.04-.02.08-.05.12-.08.03-.09.08-.18.16-.24Z"/></svg>