<?xml version="1.0" encoding="UTF-8"?><svg id="Layer_1" xmlns="http://www.w3.org/2000/svg" viewBox="0 0 111 36.32"><defs><style>.cls-1{fill:#63b13a;}.cls-1,.cls-2{fill-rule:evenodd;stroke-width:0px;}.cls-2{fill:#6e6e71;}</style></defs><path class="cls-1" d="m24.25,21.66c0,.48-.05.83.53.83h55.48c.62,0,.56-.31.56-.83,0-.46-.14-.6-.61-.6H25.83c-1.17,0-1.58-.17-1.58.6"/><path class="cls-2" d="m32.92,12.74c0,.35-.14.53-.42.53h-4.24c-1.03,0-1.54.26-1.54.77v4.05c0,.39.23.66.68.81.2.07.54.1,1.03.1h4.04c.28,0,.42.18.42.53v.17c0,.36-.14.53-.42.53h-4.04c-.49,0-.83-.02-1.03-.05-.35-.06-.67-.19-.97-.39-.6-.4-.9-.96-.9-1.67v-4.07c0-.51.19-.95.57-1.32.32-.31.7-.51,1.14-.61.24-.05.57-.08,1-.08h4.25c.28,0,.42.17.42.52v.17Zm9.9,6.67l-3.88-6.87c-.19-.33-.42-.5-.7-.5-.21,0-.39.08-.54.24-.05.06-.11.14-.17.25l-3.88,6.88c-.08.15-.12.28-.12.41,0,.28.15.42.46.42h.13c.3,0,.48-.08.57-.23l3.55-6.32,3.53,6.32c.09.15.27.23.56.23h.14c.31-.04.46-.18.46-.43,0-.13-.04-.27-.12-.4m9.57.07c.01.06.02.13.02.2,0,.22-.06.4-.18.54-.12.14-.26.2-.44.2s-.35-.14-.5-.42l-1.06-1.92h-5.02l-1.05,1.93c-.03.08-.07.14-.1.17-.07.09-.16.13-.27.13-.23,0-.39-.1-.5-.31-.05-.09-.07-.17-.07-.25,0-.06,0-.1.02-.14l3.76-7.22c.16-.31.4-.46.73-.44.38.02.61.16.69.44l3.98,7.08Zm-2.87-2.63l-1.8-3.34-1.81,3.34h3.62Zm11.98,1.21c0,.94-.41,1.58-1.24,1.92-.25.1-.55.18-.89.22-.19.03-.35.04-.49.04h-5.05c-.28,0-.42-.18-.42-.53v-7.14c0-.35.14-.52.42-.52h4.9c.55,0,.97.04,1.26.12.41.11.75.33,1.03.66.31.36.47.79.47,1.28v.63c0,.5-.14.9-.42,1.23-.04.05-.06.1-.06.16,0,.04.01.08.03.13l.03.06c.28.32.42.73.42,1.23v.51Zm-1.17-3.25l-.02-.69c-.02-.57-.54-.85-1.54-.85h-4.13v2.3h4.17c.74,0,1.21-.15,1.43-.45.07-.09.1-.2.1-.31m-.02,2.77c0-.52-.49-.78-1.48-.78h-4.22v2.21h4.15c.92,0,1.44-.26,1.55-.77v-.66Zm9.9-1.45v.17c-.03.33-.17.5-.43.5h-5.73v1.35c0,.58.51.86,1.53.86h4.2c.28,0,.42.18.42.53v.17c0,.36-.14.53-.42.53h-4.25c-.13,0-.3-.01-.49-.04-1.45-.19-2.17-.85-2.17-2.01v-4.05c0-.77.35-1.34,1.06-1.71.48-.25,1.04-.38,1.7-.38h1.16c.28,0,.42.17.42.52v.17c0,.35-.14.53-.42.53h-1.21l-.33.03c-.81.06-1.21.34-1.21.84v1.43h5.74c.3,0,.44.18.42.56m9.34,3.58c0,.35-.14.53-.42.53h-.33c-.28,0-.42-.18-.42-.53v-2.91h-5.76v2.91c0,.35-.14.53-.42.53h-.35c-.28,0-.42-.18-.42-.53v-7.14c0-.35.14-.52.42-.52h.35c.28,0,.42.17.42.52v3h5.76v-3c0-.35.14-.52.42-.52h.33c.28,0,.42.17.42.52v7.14Z"/><path class="cls-2" d="m51.53,25.5c0,.1-.01.2-.04.29-.03.09-.06.17-.11.24-.05.07-.1.13-.17.19-.07.05-.14.1-.22.13-.08.04-.17.06-.27.08-.09.02-.2.03-.32.03h-.85l-.11-.04s-.05-.08-.05-.14v-3.01c0-.07.02-.12.05-.14l.11-.04h.74c.19,0,.35.02.48.06.12.04.23.09.31.17.08.07.14.16.19.27.04.11.06.23.06.36,0,.08-.01.16-.03.23-.02.07-.05.14-.08.2-.04.06-.08.12-.13.17-.06.05-.12.09-.19.12.09.02.17.05.25.1.08.05.14.1.2.18.06.07.1.16.14.25.03.1.05.2.05.32m-.64-1.51c0-.08-.01-.16-.03-.22-.02-.07-.06-.12-.1-.17-.05-.05-.11-.08-.18-.11-.08-.02-.17-.04-.3-.04h-.45v1.1h.49c.11,0,.2-.02.27-.05.07-.03.13-.07.17-.12.05-.05.08-.11.1-.18.02-.07.03-.14.03-.21m.19,1.54c0-.1-.02-.19-.05-.27-.03-.08-.08-.14-.13-.19-.06-.05-.13-.09-.22-.12-.09-.03-.2-.04-.34-.04h-.52v1.19h.63c.1,0,.18-.01.26-.04.07-.02.14-.06.19-.11.06-.05.1-.11.13-.18.03-.07.05-.15.05-.25m3.14-.33c0,.19-.02.37-.07.53-.05.16-.12.3-.22.42-.1.12-.21.21-.36.27-.15.07-.31.1-.5.1s-.35-.03-.48-.09c-.14-.06-.25-.14-.34-.25-.09-.11-.16-.24-.2-.4-.05-.16-.07-.33-.07-.53s.02-.37.07-.53c.05-.16.12-.3.22-.42.09-.12.21-.21.36-.27.14-.06.31-.1.5-.1s.35.03.48.09c.14.06.25.14.34.25.09.11.16.24.21.4.05.16.07.33.07.53m-.43.03c0-.13-.01-.25-.03-.36-.02-.11-.06-.21-.11-.3-.05-.09-.12-.15-.21-.2-.09-.05-.2-.08-.33-.08-.12,0-.23.02-.31.07-.09.05-.16.11-.22.19-.06.08-.1.18-.12.29-.03.11-.04.24-.04.37s.01.25.03.36c.02.11.06.21.11.3.05.08.12.15.21.2.09.05.2.07.33.07.12,0,.23-.02.31-.07.09-.05.16-.11.22-.19.06-.08.1-.18.13-.29.03-.11.04-.24.04-.37m.92,2.03v.03s-.04.02-.04.02h-.05s-.08.02-.08.02h-.09s-.05-.02-.05-.02l-.03-.02v-.03s0-1.04,0-1.04c0-.04,0-.07.02-.09l.08-.02h.16c.06-.08.12-.17.17-.27.05-.1.1-.23.15-.38.05-.15.09-.34.13-.55.04-.21.07-.47.11-.77v-.07s.04-.05.04-.05l.04-.03h.05s1.25-.01,1.25-.01l.09.04s.03.06.03.12v1.96h.31l.08.02s.02.04.02.09v1.07s-.04.02-.04.02h-.06s-.08.02-.08.02h-.08s-.05-.02-.05-.02l-.03-.02v-.03s0-.79,0-.79h-2.03v.79Zm1.56-2.91h-.71c-.04.28-.07.52-.11.72-.04.19-.08.36-.12.49-.04.13-.09.24-.13.33-.04.08-.09.16-.15.22h1.22v-1.76Zm2.98,2.06l-.02.05-.05.02s-.06,0-.1,0h-.1s-.06-.03-.06-.03l-.02-.05v-.24c-.1.11-.21.2-.33.26-.12.06-.25.09-.38.09-.12,0-.23-.01-.32-.05-.1-.03-.18-.08-.25-.14-.07-.06-.12-.14-.16-.23-.04-.09-.06-.19-.06-.3,0-.13.02-.25.08-.34.05-.1.13-.18.22-.24.1-.06.21-.11.36-.15.14-.03.3-.05.47-.05h.31v-.18c0-.09,0-.17-.03-.24-.02-.07-.05-.13-.09-.17-.04-.05-.09-.08-.16-.1-.06-.02-.15-.04-.24-.04-.1,0-.19.01-.27.04-.08.03-.15.05-.21.08-.06.03-.11.06-.15.09l-.09.04h-.04s-.03-.04-.03-.04l-.02-.05v-.07s0-.08,0-.1l.04-.07s.06-.05.12-.08c.05-.03.12-.06.19-.08.07-.03.15-.05.24-.06.08-.02.17-.03.26-.03.16,0,.3.02.41.06.11.04.2.09.28.17.07.07.12.17.15.28.03.11.05.24.05.38v1.58Zm-.41-1.08h-.35c-.11,0-.21.01-.3.03-.08.02-.15.05-.21.09-.05.04-.09.09-.12.14-.03.06-.04.12-.04.19,0,.12.04.22.11.29.07.07.18.11.31.11.11,0,.21-.03.3-.09.09-.06.19-.14.29-.26v-.5Zm4.23,1.07v.03s-.04.03-.04.03l-.06.02h-.1s-.08,0-.1,0l-.06-.02-.03-.03v-.03s-.01-2.05-.01-2.05h-1.07v2.09s-.04.03-.04.03l-.06.02h-.1s-.1,0-.1,0l-.06-.02-.03-.03v-.03s0-2.26,0-2.26c0-.05.01-.09.04-.12l.09-.04h1.65l.09.04s.03.06.03.12v2.26Zm2.68-1.28c0,.07-.02.11-.05.14l-.11.04h-1.48c0,.13.01.25.04.35.02.11.07.2.13.27.06.07.13.13.23.17.09.04.21.06.34.06.11,0,.2,0,.28-.03.08-.02.16-.04.22-.06.06-.02.11-.04.15-.06l.09-.03h.03s.02.04.02.04v.05s.01.08.01.08v.06s0,.04,0,.04v.04s-.04.03-.04.03c0,0-.04.02-.08.05-.05.02-.1.04-.18.06-.07.02-.15.04-.25.05-.09.02-.19.03-.3.03-.19,0-.35-.03-.49-.08-.14-.05-.26-.13-.35-.24-.09-.11-.17-.24-.21-.4-.05-.16-.07-.35-.07-.56s.03-.38.07-.55c.05-.16.12-.3.22-.41.09-.11.21-.2.34-.26.13-.06.28-.09.45-.09.18,0,.33.03.45.09.12.06.23.14.31.24.08.1.14.22.18.35.04.13.06.28.06.43v.08Zm-.42-.13c0-.23-.04-.4-.14-.53-.1-.13-.25-.19-.45-.19-.1,0-.19.02-.27.06-.08.04-.14.09-.19.16-.05.07-.09.14-.12.23-.03.09-.04.18-.05.28h1.22Zm3.12.19c0,.21-.02.39-.06.55-.04.16-.11.3-.19.42-.08.11-.18.2-.31.26-.12.06-.26.09-.42.09-.07,0-.13,0-.18-.02-.06-.01-.11-.04-.17-.07-.05-.03-.11-.07-.16-.11-.06-.04-.11-.1-.17-.16v1.21s-.04.03-.04.03l-.06.02h-.1s-.1,0-.1,0l-.06-.02-.03-.03v-.04s0-3.28,0-3.28v-.04s.04-.03.04-.03h.06s.09-.02.09-.02h.09s.06.02.06.02l.03.03v.04s0,.32,0,.32c.07-.07.13-.14.2-.19.06-.05.13-.1.19-.13.06-.03.13-.06.2-.08.07-.02.14-.03.21-.03.16,0,.3.03.42.1.12.07.21.16.28.27.07.11.13.25.16.4.04.15.05.31.05.48m-.43.05c0-.12,0-.24-.03-.35-.02-.11-.05-.21-.09-.3-.04-.09-.1-.16-.17-.21-.07-.05-.16-.08-.27-.08-.05,0-.11,0-.16.03-.05.02-.1.04-.16.08-.05.04-.11.08-.17.14-.06.06-.12.13-.18.22v.93c.11.15.22.25.32.33.1.08.21.11.32.11.1,0,.19-.02.27-.08.07-.05.13-.12.18-.21.05-.09.08-.18.1-.29.02-.11.03-.22.03-.33m2.97-.11c0,.07-.02.11-.05.14l-.11.04h-1.48c0,.13.01.25.04.35.02.11.07.2.13.27.06.07.13.13.23.17.09.04.21.06.34.06.11,0,.2,0,.28-.03.08-.02.15-.04.22-.06.06-.02.11-.04.15-.06l.09-.03h.03s.02.04.02.04v.05s.01.08.01.08v.06s0,.04,0,.04v.04s-.03.03-.03.03c0,0-.04.02-.08.05-.05.02-.1.04-.17.06-.07.02-.15.04-.25.05-.09.02-.19.03-.3.03-.18,0-.35-.03-.49-.08-.14-.05-.26-.13-.35-.24-.09-.11-.17-.24-.21-.4-.05-.16-.07-.35-.07-.56s.02-.38.07-.55c.05-.16.12-.3.22-.41.09-.11.21-.2.34-.26.13-.06.28-.09.45-.09.18,0,.33.03.45.09.12.06.23.14.31.24.08.1.14.22.18.35.04.13.06.28.06.43v.08Zm-.42-.13c0-.23-.04-.4-.15-.53-.1-.13-.25-.19-.45-.19-.1,0-.19.02-.27.06-.08.04-.14.09-.19.16-.05.07-.09.14-.12.23-.03.09-.05.18-.05.28h1.22Zm3.86,1.38l-.03.08s-.08.02-.15.02h-.1s-.06-.01-.06-.01l-.03-.02v-.04s-.18-1.37-.18-1.37c0-.05,0-.1-.02-.16,0-.06-.01-.11-.02-.17,0-.06-.01-.11-.01-.17,0-.06,0-.11-.01-.16v-.06c-.02.05-.03.1-.05.16-.02.06-.03.11-.05.17-.02.06-.04.12-.06.17-.02.06-.03.11-.05.16l-.47,1.39-.02.05-.04.03-.06.02h-.09s-.09,0-.09,0l-.06-.02-.04-.03-.03-.05-.46-1.39s-.03-.1-.05-.16c-.02-.06-.04-.11-.05-.17-.02-.06-.03-.12-.05-.17-.02-.06-.03-.11-.04-.16v.06c0,.05-.01.1-.02.16,0,.06,0,.11-.02.17,0,.06-.01.11-.02.17,0,.05-.01.11-.01.16l-.15,1.35v.05s-.04.03-.04.03h-.07s-.06.02-.11.02h-.1s-.06-.02-.06-.02l-.02-.03v-.05l.25-2.22c0-.06.03-.1.06-.13.03-.03.07-.04.13-.04h.2s.09,0,.12.01l.09.04.06.08s.03.07.05.12l.33,1c.02.06.04.12.06.18.02.06.04.12.06.18.02.06.03.12.05.17.02.06.03.11.04.17h0c.02-.06.03-.11.05-.17.02-.06.03-.12.05-.18.02-.06.04-.12.06-.18.02-.06.04-.12.06-.17l.33-.99s.03-.08.04-.11l.06-.08.08-.05s.07-.01.12-.01h.2c.06,0,.1.01.14.04.03.03.05.07.05.12l.25,2.23Zm2.54-1.25c0,.07-.02.11-.05.14l-.11.04h-1.48c0,.13.01.25.04.35.02.11.07.2.13.27.06.07.14.13.23.17.09.04.21.06.34.06.11,0,.2,0,.29-.03.08-.02.16-.04.22-.06.06-.02.11-.04.15-.06l.09-.03h.03s.02.04.02.04v.05s.02.08.02.08v.06s0,.04,0,.04v.04s-.04.03-.04.03c0,0-.04.02-.08.05-.04.02-.1.04-.18.06-.07.02-.15.04-.25.05-.09.02-.2.03-.3.03-.19,0-.35-.03-.49-.08-.14-.05-.26-.13-.35-.24-.09-.11-.17-.24-.21-.4-.05-.16-.07-.35-.07-.56s.02-.38.08-.55c.05-.16.12-.3.22-.41.09-.11.21-.2.34-.26.13-.06.28-.09.45-.09.18,0,.33.03.45.09.12.06.23.14.31.24.08.1.14.22.18.35.04.13.06.28.06.43v.08Zm-.41-.13c0-.23-.04-.4-.14-.53-.1-.13-.25-.19-.45-.19-.1,0-.19.02-.27.06-.08.04-.14.09-.19.16-.05.07-.09.14-.12.23-.03.09-.04.18-.05.28h1.22Zm3.02,1.4v.03s-.04.03-.04.03l-.06.02h-.1s-.1,0-.1,0l-.06-.02-.03-.03v-.03s-.01-1.03-.01-1.03h-1.14v1.07s-.04.03-.04.03l-.06.02h-.1s-.1,0-.1,0l-.06-.02-.03-.03v-.03s0-2.35,0-2.35v-.04s.04-.03.04-.03l.06-.02h.1s.1,0,.1,0l.06.02.03.03v.04s.01.96.01.96h1.14v-.99s.04-.03.04-.03l.06-.02h.1s.1,0,.1,0l.06.02.03.03v.04s0,2.35,0,2.35Z"/><polygon class="cls-1" points="11.29 25.26 11.28 25.27 11.25 25.27 11.29 25.26"/><path class="cls-1" d="m12.22,24.02v-.86c.01.72,0,.37,0,.86"/><path class="cls-1" d="m3.24,15.87c.1.28.4.5.59.66l4.85,3.85c.35.27,1.01.78,1.68,1.3.16-.27.49-.45.87-.45.54,0,.97.36.97.81v2.43c0,.44-.41.79-.93.8h-.04s0,0,0,0h0c-.44,0-.7,0-.96-.16l-8-6.14c-.46-.37-.95-.72-1.38-1.12-1.82-1.71-.52-3.58.78-4.89.67-.68,1.98-1.55,2.81-2.14.97-.7,1.97-1.35,2.96-2.04.56-.4,2.49-1.83,3.05-1.93.39-.05.39-.05.78-.02.25,0,.49.08.65.2.18.13.29.3.29.49v2.08c0,.38-.44.69-.97.69s-.94-.29-.97-.65l-4.97,3.46c-.55.4-2.43,1.71-2.07,2.77"/><path class="cls-2" d="m10.28,13.88v.86c-.01-.71,0-.37,0-.86"/><path class="cls-2" d="m20.82,24.94c-.67.68-1.98,1.54-2.81,2.14-.97.7-1.97,1.35-2.96,2.04-.56.4-2.49,1.83-3.05,1.93-.37.05-.39.05-.72.02h-.03c-.27,0-.51-.08-.69-.2-.18-.13-.29-.3-.29-.49v-2.08c0-.38.43-.69.97-.69s.93.29.97.65l4.96-3.46c.55-.4,2.43-1.71,2.07-2.77-.1-.29-.4-.51-.59-.66l-4.85-3.85c-.35-.27-1.01-.78-1.68-1.3-.16.27-.49.45-.87.45-.54,0-.97-.36-.97-.81v-2.42c0-.44.41-.79.93-.81h.09c.42,0,.66,0,.92.16l8,6.14c.46.37.95.72,1.38,1.12,1.82,1.71.52,3.58-.78,4.89"/><polygon class="cls-2" points="11.3 12.63 11.21 12.63 11.25 12.63 11.3 12.63"/></svg>