<?xml version="1.0" encoding="UTF-8"?><svg id="Layer_1" xmlns="http://www.w3.org/2000/svg" viewBox="0 0 111 36.32"><defs><style>.cls-1{fill:#1c55a2;}.cls-1,.cls-2{fill-rule:evenodd;stroke-width:0px;}.cls-2{fill:#fff;}</style></defs><path class="cls-1" d="m2.63,7.85h52.87c1.49,0,2.7,1.22,2.7,2.7v16.08c0,1.49-1.22,2.7-2.7,2.7H2.63c-1.49,0-2.7-1.22-2.7-2.7V10.55c0-1.49,1.22-2.7,2.7-2.7"/><path class="cls-2" d="m49.56,15.34v-3.2h3.81v2.16c0,.36-.05.68-.15.96-.1.28-.23.53-.39.74-.16.21-.34.39-.54.53-.2.14-.4.26-.61.35.21.09.41.21.61.36.2.16.38.35.54.57.16.23.29.49.39.79.1.3.14.64.15,1.01v2.72h-3.81v-3.98h-3.63v-3.03h3.63Zm-8.22,7.01h3.72v-10.21h-3.72v10.21Zm-8.8,0h3.72v-6.49h-3.72v6.49Zm-3.72-7.35h11.07v-2.86h-11.07v2.86Zm-12.33.86h3.72v3.63h7.27v2.86h-8.13c-.44,0-.83-.08-1.18-.23-.35-.15-.65-.36-.9-.63-.25-.26-.44-.57-.57-.91-.13-.34-.2-.7-.2-1.08v-3.63Zm10.99-3.72h-8.33c-.58,0-1.07.12-1.46.34-.39.23-.69.55-.89.98-.2.42-.3.94-.3,1.54h10.99v-2.86Z"/><path class="cls-2" d="m29.44,25.44s0,.02,0,.02c0,0-.02.01-.03.02-.01,0-.03,0-.05.01-.02,0-.05,0-.08,0s-.06,0-.08,0c-.02,0-.04,0-.05-.01-.01,0-.02-.01-.03-.02,0,0,0-.02,0-.02v-.92s0-.07,0-.1c0-.03,0-.06,0-.09h0s-.02.03-.03.04c-.01.02-.02.03-.03.05-.01.02-.02.04-.04.06-.01.02-.02.04-.04.06l-.6.91s-.01.02-.02.03c0,0-.02.01-.03.02-.01,0-.03,0-.04,0-.02,0-.04,0-.07,0-.03,0-.06,0-.08,0-.02,0-.04,0-.05-.01-.01,0-.02-.01-.02-.02,0,0,0-.02,0-.03v-1.66s0-.02,0-.02c0,0,.02-.01.03-.02.01,0,.03,0,.05-.01.02,0,.05,0,.08,0s.06,0,.08,0c.02,0,.04,0,.05.01.01,0,.02.01.03.02,0,0,0,.02,0,.02v.93s0,.06,0,.09c0,.03,0,.06,0,.09h0s.03-.06.06-.1c.02-.04.05-.07.07-.11l.6-.91s.01-.02.02-.02c0,0,.02-.01.03-.02.01,0,.03,0,.04,0,.02,0,.04,0,.07,0,.03,0,.06,0,.08,0,.02,0,.04,0,.05.01.01,0,.02.01.03.02,0,0,0,.02,0,.03v1.66Zm-2.41,0s0,.02,0,.02c0,0-.02.01-.03.02-.01,0-.03,0-.05.01-.02,0-.05,0-.08,0s-.06,0-.08,0c-.02,0-.04,0-.05-.01-.01,0-.02-.01-.03-.02,0,0,0-.02,0-.02v-.92s0-.07,0-.1c0-.03,0-.06,0-.09h0s-.02.03-.02.04c-.01.02-.02.03-.03.05-.01.02-.02.04-.04.06-.01.02-.02.04-.04.06l-.6.91s-.01.02-.02.03c0,0-.02.01-.03.02-.01,0-.03,0-.04,0-.02,0-.04,0-.07,0-.03,0-.06,0-.08,0-.02,0-.04,0-.05-.01-.01,0-.02-.01-.02-.02,0,0,0-.02,0-.03v-1.66s0-.02,0-.02c0,0,.02-.01.03-.02.01,0,.03,0,.05-.01.02,0,.05,0,.08,0,.04,0,.06,0,.09,0,.02,0,.04,0,.05.01s.02.01.03.02c0,0,0,.02,0,.02v.93s0,.06,0,.09c0,.03,0,.06,0,.09h0s.03-.06.06-.1c.02-.04.05-.07.07-.11l.6-.91s.01-.02.02-.02c0,0,.02-.01.03-.02.01,0,.03,0,.04,0,.02,0,.04,0,.07,0,.03,0,.06,0,.08,0,.02,0,.04,0,.05.01.01,0,.02.01.03.02,0,0,0,.02,0,.03v1.66Zm-1.61-1.56s0,.05,0,.07c0,.02,0,.03-.01.05s-.01.02-.02.02c0,0-.01,0-.02,0h-.57v1.41s0,.02,0,.02c0,0-.02.01-.03.02-.01,0-.03,0-.05.01-.02,0-.05,0-.08,0s-.06,0-.08,0c-.02,0-.04,0-.05-.01-.01,0-.02-.01-.03-.02,0,0,0-.02,0-.02v-1.59s0-.07.03-.08c.02-.02.04-.03.08-.03h.82s.03.01.04.03c0,.02.01.06.01.11m-1.36,1.56s0,.02,0,.02c0,0-.02.01-.03.02-.01,0-.03,0-.05.01-.02,0-.05,0-.08,0s-.06,0-.09,0c-.02,0-.04,0-.05-.01-.01,0-.02-.01-.03-.02,0,0,0-.02,0-.02v-.71h-.65v.71s0,.02,0,.02c0,0-.01.01-.03.02-.01,0-.03,0-.05.01-.02,0-.05,0-.08,0s-.06,0-.08,0c-.02,0-.04,0-.05-.01-.01,0-.02-.01-.03-.02,0,0,0-.02,0-.02v-1.65s0-.02,0-.02c0,0,.02-.01.03-.02.01,0,.03,0,.05-.01.02,0,.05,0,.08,0s.06,0,.08,0c.02,0,.04,0,.05.01.01,0,.02.01.03.02,0,0,0,.02,0,.02v.64h.65v-.64s0-.02,0-.02c0,0,.02-.01.03-.02.01,0,.03,0,.05-.01.02,0,.05,0,.09,0s.06,0,.08,0c.02,0,.04,0,.05.01.01,0,.02.01.03.02,0,0,0,.02,0,.02v1.65Zm-1.73,0s0,.02,0,.02c0,0-.02.01-.03.02-.01,0-.03,0-.05.01-.02,0-.05,0-.08,0s-.06,0-.08,0c-.02,0-.04,0-.05-.01-.01,0-.02-.01-.03-.02,0,0,0-.02,0-.02v-.92s0-.07,0-.1c0-.03,0-.06,0-.09h0s-.02.03-.03.04c-.01.02-.02.03-.03.05-.01.02-.02.04-.04.06-.01.02-.02.04-.04.06l-.6.91s-.02.02-.02.03c0,0-.02.01-.03.02-.01,0-.03,0-.04,0-.02,0-.04,0-.07,0-.03,0-.06,0-.08,0-.02,0-.04,0-.05-.01-.01,0-.02-.01-.02-.02,0,0,0-.02,0-.03v-1.66s0-.02,0-.02c0,0,.02-.01.03-.02.01,0,.03,0,.05-.01.02,0,.05,0,.08,0s.06,0,.08,0c.02,0,.04,0,.05.01.01,0,.02.01.03.02,0,0,0,.02,0,.02v.93s0,.06,0,.09c0,.03,0,.06,0,.09h0s.03-.06.06-.1c.02-.04.05-.07.07-.11l.6-.91s.01-.02.02-.02c0,0,.02-.01.03-.02.01,0,.03,0,.04,0,.02,0,.04,0,.07,0,.03,0,.06,0,.08,0,.02,0,.04,0,.05.01.01,0,.02.01.03.02,0,0,0,.02,0,.03v1.66Zm-1.61-1.56s0,.05,0,.07c0,.02,0,.03-.01.04,0,.01-.01.02-.02.02,0,0-.01,0-.02,0h-.43v1.41s0,.02,0,.02c0,0-.02.01-.03.02-.01,0-.03,0-.05.01-.02,0-.05,0-.08,0s-.06,0-.08,0c-.02,0-.04,0-.05-.01-.01,0-.02-.01-.03-.02,0,0,0-.02,0-.02v-1.41h-.43s-.02,0-.02,0c0,0-.01-.01-.02-.02,0-.01,0-.03-.01-.04,0-.02,0-.04,0-.07s0-.05,0-.07c0-.02,0-.03.01-.04,0-.01.01-.02.02-.02,0,0,.01,0,.02,0h1.22s.02,0,.02,0c0,0,.01.01.02.02,0,.01,0,.03.01.04,0,.02,0,.04,0,.07m-1.53,1.56s0,.02,0,.02c0,0-.02.01-.03.02-.01,0-.03,0-.05.01-.02,0-.05,0-.08,0s-.06,0-.08,0c-.02,0-.04,0-.05-.01-.01,0-.02-.01-.03-.02,0,0,0-.02,0-.02v-.92s0-.07,0-.1c0-.03,0-.06,0-.09h0s-.02.03-.03.04c-.01.02-.02.03-.03.05-.01.02-.02.04-.04.06-.01.02-.02.04-.04.06l-.6.91s-.01.02-.02.03c0,0-.02.01-.03.02-.01,0-.03,0-.04,0-.02,0-.04,0-.07,0-.03,0-.06,0-.08,0-.02,0-.04,0-.05-.01-.01,0-.02-.01-.02-.02,0,0,0-.02,0-.03v-1.66s0-.02,0-.02c0,0,.02-.01.03-.02.01,0,.03,0,.05-.01.02,0,.05,0,.08,0s.06,0,.08,0c.02,0,.04,0,.05.01.01,0,.02.01.03.02,0,0,0,.02,0,.02v.93s0,.06,0,.09c0,.03,0,.06,0,.09h0s.03-.06.06-.1c.02-.04.05-.07.07-.11l.6-.91s.01-.02.02-.02c0,0,.02-.01.03-.02.01,0,.03,0,.04,0,.02,0,.04,0,.07,0,.03,0,.06,0,.08,0,.02,0,.04,0,.05.01.01,0,.02.01.03.02,0,0,0,.02,0,.03v1.66Zm-2.76-1.27c-.07,0-.13.02-.17.05-.05.02-.08.05-.11.09-.03.03-.05.07-.06.12-.01.04-.02.09-.02.14,0,.06,0,.11.02.16.01.05.03.09.06.12.03.03.07.06.11.09.05.02.11.04.17.04v-.8Zm.7.4c0-.06,0-.11-.02-.16-.01-.05-.03-.09-.06-.12-.03-.03-.07-.06-.11-.08-.05-.02-.11-.04-.18-.04v.8c.07,0,.13-.02.17-.05.05-.02.08-.05.11-.09.03-.03.05-.07.06-.12.01-.04.02-.09.02-.14m.36-.02c0,.1-.02.19-.05.27-.03.08-.08.15-.14.21-.06.06-.14.11-.22.14-.09.04-.19.06-.31.07v.2s0,.02,0,.02c0,0-.02.01-.03.02-.01,0-.03,0-.05,0-.02,0-.05,0-.08,0-.03,0-.06,0-.08,0-.02,0-.04,0-.05,0-.01,0-.02,0-.03-.02,0,0,0-.01,0-.02v-.2c-.12,0-.22-.02-.31-.05-.09-.03-.16-.07-.22-.13-.06-.05-.11-.12-.14-.2-.03-.08-.05-.18-.05-.28,0-.09.01-.18.05-.26.03-.08.08-.15.14-.2.06-.06.14-.11.22-.14.09-.04.19-.06.31-.07v-.19s0-.02,0-.02c0,0,.01-.01.03-.02s.03,0,.05,0c.02,0,.05,0,.08,0s.06,0,.08,0c.02,0,.04,0,.05,0,.01,0,.02,0,.03.02,0,0,0,.01,0,.02v.19c.12,0,.22.02.31.05s.16.07.22.13c.06.05.11.12.14.2.03.08.05.17.05.28m-2.69.88s0,.02,0,.02c0,0-.01.01-.03.02-.01,0-.03,0-.05.01-.02,0-.05,0-.08,0s-.06,0-.08,0c-.02,0-.04,0-.05-.01-.01,0-.02-.01-.03-.02,0,0,0-.02,0-.02v-.92s0-.07,0-.1c0-.03,0-.06,0-.09h0s-.02.03-.02.04c-.01.02-.02.03-.03.05-.01.02-.02.04-.04.06-.01.02-.02.04-.04.06l-.6.91s-.01.02-.02.03c0,0-.02.01-.03.02-.01,0-.03,0-.04,0-.02,0-.04,0-.07,0-.03,0-.06,0-.08,0-.02,0-.04,0-.05-.01-.01,0-.02-.01-.02-.02,0,0,0-.02,0-.03v-1.66s0-.02,0-.02c0,0,.02-.01.03-.02.01,0,.03,0,.05-.01.02,0,.05,0,.08,0,.04,0,.06,0,.09,0,.02,0,.04,0,.05.01.01,0,.02.01.03.02,0,0,0,.02,0,.02v.93s0,.06,0,.09c0,.03,0,.06,0,.09h0s.03-.06.06-.1c.02-.04.05-.07.07-.11l.6-.91s.01-.02.02-.02c0,0,.02-.01.03-.02.01,0,.03,0,.04,0,.02,0,.04,0,.07,0,.03,0,.06,0,.08,0,.02,0,.04,0,.05.01.01,0,.02.01.03.02,0,0,0,.02,0,.03v1.66Zm-3.33-.5s0-.08-.02-.12c-.01-.03-.03-.06-.06-.09-.03-.02-.06-.04-.1-.06-.04-.01-.1-.02-.18-.02h-.18v.56h.19c.08,0,.14,0,.19-.03.04-.02.07-.04.1-.06.02-.03.04-.06.05-.09.01-.03.02-.06.02-.1m.36-.03c0,.08-.01.16-.04.23-.03.07-.06.13-.12.18s-.13.09-.21.12c-.09.03-.21.05-.36.05h-.41s-.03,0-.04,0c-.01,0-.02-.01-.03-.02-.01-.01-.02-.02-.02-.04,0-.01,0-.03,0-.05v-1.59s0-.02,0-.02c0,0,.02-.01.03-.02.01,0,.03,0,.05-.01.02,0,.05,0,.08,0s.06,0,.08,0c.02,0,.04,0,.05.01s.02.01.03.02c0,0,0,.02,0,.02v.6h.22c.13,0,.23.01.31.03.08.02.14.06.2.1.05.04.1.1.13.17.03.06.04.14.04.22m.56.53s0,.02,0,.02c0,0-.02.01-.03.02-.01,0-.03,0-.05.01-.02,0-.05,0-.09,0s-.06,0-.08,0c-.02,0-.04,0-.05-.01-.01,0-.02-.01-.03-.02,0,0,0-.02,0-.02v-1.66s0-.02,0-.02c0,0,.02-.01.03-.02.01,0,.03,0,.05-.01.02,0,.05,0,.08,0,.03,0,.06,0,.09,0,.02,0,.04,0,.05.01s.02.01.03.02c0,0,0,.02,0,.02v1.66Zm-2.44-.47s0-.07-.02-.1c-.01-.03-.03-.06-.05-.08-.02-.02-.06-.04-.09-.05-.04-.01-.09-.02-.15-.02h-.23v.5h.23c.06,0,.1,0,.14-.02.04-.01.07-.03.09-.05.02-.02.04-.05.06-.08.01-.03.02-.07.02-.11m.36-.02c0,.08-.01.15-.04.22-.03.06-.07.12-.12.17-.05.05-.12.09-.21.11-.08.03-.19.04-.32.04h-.46s-.06,0-.08-.03-.03-.05-.03-.09v-1.52s.01-.07.03-.09.04-.03.07-.03h.98s.02,0,.02,0c0,0,.01.01.02.02,0,.01,0,.03.01.04,0,.02,0,.04,0,.07,0,.02,0,.05,0,.06,0,.02,0,.03-.01.04,0,.01-.01.02-.02.02,0,0-.01,0-.02,0h-.73v.44h.29c.11,0,.2.01.28.03.07.02.13.05.18.1.05.04.09.09.12.16.03.06.04.13.04.21m-1.93.06c-.04.1-.08.18-.12.25s-.08.12-.12.16c-.04.04-.09.06-.14.08-.05.02-.11.02-.18.02-.02,0-.05,0-.07,0-.02,0-.05,0-.07-.01-.02,0-.04-.01-.05-.02-.02,0-.03-.01-.03-.02,0,0-.01-.01-.02-.02,0,0,0-.02-.01-.03,0-.01,0-.03,0-.05,0-.02,0-.04,0-.07,0-.05,0-.09.01-.11,0-.02.02-.03.04-.03,0,0,.02,0,.03.01,0,0,.02.01.03.02.01,0,.03.01.05.02.02,0,.04,0,.06,0,.02,0,.04,0,.05,0,.02,0,.03-.01.05-.02.01-.01.03-.03.04-.05.01-.02.03-.05.04-.08l-.57-1.17s-.02-.05-.02-.07c0-.02,0-.03.01-.04.01-.01.03-.02.05-.02.03,0,.06,0,.1,0s.08,0,.1,0c.03,0,.05,0,.06.01.02,0,.03.01.03.03,0,.01.02.03.02.04l.24.53c.03.06.05.11.08.17.02.06.05.11.07.17h0c.02-.06.04-.12.06-.18.02-.06.04-.12.07-.18l.2-.54s.01-.02.02-.03c0,0,.02-.01.03-.02.01,0,.03,0,.06,0,.02,0,.06,0,.1,0,.04,0,.07,0,.1,0,.02,0,.04,0,.05.02.01,0,.02.02.01.03,0,.01,0,.03-.01.05l-.46,1.17Zm-1.45-.71c0-.06-.01-.11-.03-.15-.02-.04-.05-.07-.08-.09-.03-.02-.06-.03-.1-.04-.03,0-.07,0-.11,0h-.15v.59h.16c.06,0,.1,0,.14-.02.04-.01.07-.04.09-.06.02-.03.04-.06.05-.1.01-.04.02-.08.02-.13m.37-.03c0,.1-.01.19-.05.26-.03.08-.07.14-.13.19-.06.05-.13.09-.21.12-.08.03-.18.04-.3.04h-.14v.56s0,.02,0,.02c0,0-.02.01-.03.02-.01,0-.03,0-.05.01-.02,0-.05,0-.09,0s-.06,0-.08,0c-.02,0-.04,0-.05-.01-.01,0-.02-.01-.03-.02,0,0,0-.02,0-.02v-1.58s.01-.07.03-.09c.02-.02.05-.03.09-.03h.41s.08,0,.12,0c.04,0,.08.01.13.02.05.01.11.03.16.06.05.03.1.06.14.11.04.04.07.09.09.15.02.06.03.12.03.19m-1.39-.39s0,.05,0,.07c0,.02,0,.03-.01.04,0,.01-.01.02-.02.02,0,0-.01,0-.02,0h-.43v1.41s0,.02,0,.02c0,0-.02.01-.03.02-.01,0-.03,0-.05.01-.02,0-.05,0-.09,0s-.06,0-.08,0c-.02,0-.04,0-.05-.01-.01,0-.02-.01-.03-.02,0,0,0-.02,0-.02v-1.41h-.43s-.02,0-.02,0c0,0-.01-.01-.02-.02,0-.01,0-.03-.01-.04,0-.02,0-.04,0-.07s0-.05,0-.07c0-.02,0-.03.01-.04,0-.01.01-.02.02-.02,0,0,.01,0,.02,0h1.22s.02,0,.02,0c0,0,.01.01.02.02,0,.01,0,.03.01.04,0,.02,0,.04,0,.07"/><path class="cls-2" d="m52.75,24.07h0l-.25.74h.49l-.24-.74Zm.8,1.28s.02.06.02.08c0,.02,0,.03-.01.04,0,0-.03.01-.05.02-.03,0-.06,0-.1,0s-.08,0-.11,0c-.03,0-.04,0-.06,0-.01,0-.02-.01-.03-.02,0,0,0-.02-.01-.03l-.12-.35h-.65l-.11.34s0,.02-.01.03c0,0-.02.02-.03.02-.01,0-.03,0-.05.01-.02,0-.05,0-.09,0s-.07,0-.1,0c-.02,0-.04,0-.05-.02,0-.01-.01-.02,0-.04,0-.02,0-.04.02-.08l.53-1.55s.01-.03.02-.04c0-.01.02-.02.03-.02.02,0,.04,0,.06,0,.03,0,.06,0,.11,0,.05,0,.09,0,.13,0,.03,0,.06,0,.07,0,.02,0,.03.01.04.02s.01.02.02.04l.54,1.55Zm-1.8.08s0,.02,0,.02c0,0-.02.01-.03.02-.01,0-.03,0-.05.01-.02,0-.05,0-.08,0s-.06,0-.09,0c-.02,0-.04,0-.05-.01-.01,0-.02-.01-.03-.02,0,0,0-.01,0-.02v-.71h-.65v.71s0,.02,0,.02c0,0-.01.01-.03.02s-.03,0-.05.01c-.02,0-.05,0-.08,0s-.06,0-.09,0c-.02,0-.04,0-.05-.01-.01,0-.02-.01-.03-.02,0,0,0-.01,0-.02v-1.65s0-.02,0-.02c0,0,.02-.01.03-.02.01,0,.03,0,.05-.01.02,0,.05,0,.09,0s.06,0,.08,0c.02,0,.04,0,.05.01.01,0,.02.01.03.02,0,0,0,.02,0,.02v.64h.65v-.64s0-.02,0-.02c0,0,.02-.01.03-.02.01,0,.03,0,.05-.01.02,0,.05,0,.09,0s.06,0,.08,0c.02,0,.04,0,.05.01.01,0,.02.01.03.02,0,0,0,.02,0,.02v1.65Zm-1.66-.09s0,.05,0,.07c0,.02,0,.03-.01.04,0,.01-.01.02-.02.02,0,0-.01,0-.02,0h-.87s-.05,0-.07-.03c-.02-.02-.03-.05-.03-.09v-1.53s.01-.07.03-.09c.02-.02.04-.03.07-.03h.86s.01,0,.02,0c0,0,.01.01.02.02,0,.01,0,.03.01.04,0,.02,0,.04,0,.07s0,.05,0,.06c0,.02,0,.03-.01.04,0,.01,0,.02-.02.02,0,0-.01,0-.02,0h-.62v.43h.52s.02,0,.02,0c0,0,.01.01.02.02s0,.02.01.04c0,.02,0,.04,0,.06s0,.05,0,.06c0,.02,0,.03-.01.04s-.01.02-.02.02c0,0-.01,0-.02,0h-.52v.49h.62s.01,0,.02,0c0,0,.01.01.02.02,0,.01,0,.02.01.04,0,.02,0,.04,0,.06m-1.41.09s0,.02,0,.02c0,0-.01.01-.03.02-.01,0-.03,0-.05.01-.02,0-.05,0-.08,0s-.06,0-.09,0c-.02,0-.04,0-.05-.01-.01,0-.02-.01-.03-.02,0,0,0-.02,0-.02v-1.41h-.37c-.02.21-.05.39-.08.54-.02.15-.05.29-.08.4-.03.11-.06.2-.1.27-.03.07-.07.13-.12.17-.05.04-.1.07-.15.08-.06.01-.12.02-.19.02-.01,0-.02,0-.03,0-.01,0-.02-.01-.02-.02,0-.01-.01-.02-.01-.04,0-.02,0-.04,0-.07,0-.04,0-.07,0-.09,0-.02,0-.04.01-.06,0-.01.01-.02.02-.03,0,0,.02,0,.03,0,.03,0,.05,0,.08-.02.03-.01.05-.03.07-.07.02-.03.05-.08.07-.14.02-.06.04-.14.06-.24.02-.1.04-.22.06-.36.02-.14.04-.31.06-.51,0-.05.02-.08.03-.1.02-.02.04-.03.07-.03h.85s.06.01.07.03c.02.02.03.05.03.08v1.59Zm-1.72,0s0,.02,0,.02c0,0-.02.01-.03.02-.01,0-.03,0-.05.01-.02,0-.05,0-.08,0s-.06,0-.09,0c-.02,0-.04,0-.05-.01-.01,0-.02-.01-.03-.02,0,0,0-.02,0-.02v-.92s0-.07,0-.1c0-.03,0-.06,0-.09h0s-.02.03-.02.04c-.01.02-.02.03-.03.05-.01.02-.02.04-.03.06-.01.02-.03.04-.04.06l-.6.91s-.01.02-.02.03c0,0-.02.01-.03.02-.01,0-.03,0-.04,0-.02,0-.04,0-.07,0-.03,0-.06,0-.08,0-.02,0-.04,0-.05-.01-.01,0-.02-.01-.02-.02,0,0,0-.02,0-.03v-1.66s0-.02,0-.02c0,0,.02-.01.03-.02.01,0,.03,0,.05-.01.02,0,.05,0,.08,0s.06,0,.09,0c.02,0,.04,0,.05.01s.02.01.03.02c0,0,0,.01,0,.02v.93s0,.06,0,.09c0,.03,0,.06,0,.09h0s.03-.06.06-.1c.02-.04.05-.07.07-.11l.6-.91s.01-.02.02-.02c0,0,.02-.01.03-.02.01,0,.03,0,.04-.01.02,0,.04,0,.07,0,.03,0,.06,0,.08,0,.02,0,.04,0,.05.01.01,0,.02.01.03.02,0,0,0,.02,0,.03v1.66Zm-1.79,0s0,.02,0,.02c0,0-.01.01-.03.02-.01,0-.03,0-.05.01-.02,0-.05,0-.08,0s-.06,0-.08,0c-.02,0-.04,0-.05-.01-.01,0-.02-.01-.03-.02,0,0,0-.02,0-.02v-1.41h-.65v1.41s0,.02,0,.02c0,0-.02.01-.03.02-.01,0-.03,0-.05.01-.02,0-.05,0-.09,0s-.06,0-.08,0c-.02,0-.04,0-.05-.01-.01,0-.02-.01-.03-.02,0,0,0-.02,0-.02v-1.59s.01-.07.03-.08c.02-.02.04-.03.07-.03h1.14s.06.01.07.03c.02.02.03.05.03.08v1.59Zm-2.01-.83c0-.09,0-.18-.02-.25-.01-.07-.04-.14-.07-.19s-.08-.09-.14-.13c-.06-.03-.13-.04-.21-.04s-.16.02-.22.05c-.06.03-.11.08-.14.13-.03.06-.06.12-.07.19-.01.07-.02.15-.02.23,0,.09,0,.18.02.26.01.08.04.14.07.19.03.05.08.1.14.12.06.03.13.04.22.04s.16-.02.22-.05.11-.08.14-.13c.04-.06.06-.12.08-.2.01-.07.02-.15.02-.24m.37-.02c0,.15-.02.27-.05.39-.04.12-.09.21-.16.29-.07.08-.16.14-.26.18-.11.04-.22.06-.36.06s-.25-.02-.35-.05c-.1-.04-.18-.09-.25-.16-.07-.07-.12-.17-.15-.28s-.05-.25-.05-.4c0-.14.02-.27.05-.38.04-.11.09-.21.16-.29.07-.08.16-.14.26-.18.1-.04.22-.06.36-.06s.25.02.35.05c.1.03.18.09.25.16.07.07.12.17.15.28.03.11.05.24.05.39m-2.2-.3c0-.06-.01-.11-.03-.15-.02-.04-.05-.07-.08-.09-.03-.02-.06-.03-.1-.04-.03,0-.07,0-.11,0h-.15v.59h.16c.06,0,.1,0,.14-.02.04-.02.07-.04.09-.06.02-.03.04-.06.05-.1.01-.04.02-.08.02-.13m.37-.03c0,.1-.01.19-.05.26-.03.08-.07.14-.13.19-.06.05-.13.09-.21.12-.08.03-.18.04-.3.04h-.14v.56s0,.02,0,.02c0,0-.02.01-.03.02s-.03,0-.05.01c-.02,0-.05,0-.09,0s-.06,0-.08,0c-.02,0-.04,0-.05-.01-.01,0-.02-.01-.03-.02,0,0,0-.01,0-.02v-1.58s.01-.07.03-.09c.02-.02.05-.03.09-.03h.41s.08,0,.12,0c.04,0,.08.01.13.02.05.01.11.03.16.06.05.03.1.06.14.11.04.04.07.09.09.15.02.06.03.12.03.19m-1.56,1.17s0,.02,0,.02c0,0-.02.01-.03.02-.01,0-.03,0-.05.01-.02,0-.05,0-.08,0s-.06,0-.08,0c-.02,0-.04,0-.05-.01-.01,0-.02-.01-.03-.02,0,0,0-.02,0-.02v-1.41h-.65v1.41s0,.02,0,.02c0,0-.02.01-.03.02-.01,0-.03,0-.05.01-.02,0-.05,0-.08,0s-.06,0-.09,0c-.02,0-.04,0-.05-.01-.01,0-.02-.01-.03-.02,0,0,0-.02,0-.02v-1.59s.01-.07.03-.08c.02-.02.04-.03.07-.03h1.15s.06.01.07.03c.02.02.03.05.03.08v1.59Zm-1.73,0s0,.02,0,.02c0,0-.02.01-.03.02-.01,0-.03,0-.05.01-.02,0-.05,0-.09,0s-.06,0-.08,0c-.02,0-.04,0-.05-.01-.01,0-.02-.01-.03-.02,0,0,0-.02,0-.02v-.92s0-.07,0-.1c0-.03,0-.06,0-.09h0s-.02.03-.02.04c-.01.02-.02.03-.03.05-.01.02-.02.04-.04.06-.01.02-.02.04-.04.06l-.6.91s-.01.02-.02.03c0,0-.02.01-.03.02-.01,0-.03,0-.04,0-.02,0-.04,0-.07,0-.03,0-.06,0-.08,0-.02,0-.04,0-.05-.01-.01,0-.02-.01-.02-.02,0,0,0-.02,0-.03v-1.66s0-.02,0-.02c0,0,.02-.01.03-.02s.03,0,.05-.01c.02,0,.05,0,.08,0s.06,0,.09,0c.02,0,.04,0,.05.01.01,0,.02.01.03.02,0,0,0,.01,0,.02v.93s0,.06,0,.09c0,.03,0,.06,0,.09h0s.03-.06.06-.1c.02-.04.05-.07.07-.11l.6-.91s.01-.02.02-.02c0,0,.02-.01.03-.02.01,0,.03,0,.04-.01.02,0,.04,0,.07,0,.03,0,.06,0,.08,0,.02,0,.04,0,.05.01.01,0,.02.01.03.02,0,0,0,.02,0,.03v1.66Zm-1.79,0s0,.02,0,.02c0,0-.01.01-.03.02-.01,0-.03,0-.05.01-.02,0-.05,0-.08,0s-.06,0-.09,0c-.02,0-.04,0-.05-.01-.01,0-.02-.01-.03-.02,0,0,0-.02,0-.02v-1.41h-.37c-.02.21-.05.39-.08.54-.03.15-.05.29-.08.4s-.06.2-.1.27c-.03.07-.07.13-.12.17-.05.04-.1.07-.15.08-.06.01-.12.02-.19.02-.01,0-.02,0-.03,0,0,0-.02-.01-.02-.02,0-.01-.01-.02-.01-.04,0-.02,0-.04,0-.07,0-.04,0-.07,0-.09,0-.02,0-.04,0-.06,0-.01.01-.02.02-.03,0,0,.02,0,.03,0,.03,0,.05,0,.08-.02.03-.01.05-.03.07-.07s.05-.08.07-.14c.02-.06.04-.14.06-.24.02-.1.04-.22.06-.36.02-.14.04-.31.06-.51,0-.05.02-.08.03-.1.02-.02.04-.03.07-.03h.85s.06.01.07.03c.02.02.03.05.03.08v1.59Zm-1.94-.83c0-.09,0-.18-.02-.25-.01-.07-.04-.14-.07-.19-.03-.05-.08-.09-.14-.13-.06-.03-.13-.04-.21-.04s-.16.02-.22.05c-.06.03-.11.08-.14.13-.04.06-.06.12-.07.19-.02.07-.02.15-.02.23,0,.09,0,.18.02.26.01.08.04.14.07.19.03.05.08.1.14.12.06.03.13.04.22.04s.16-.02.22-.05.11-.08.14-.13c.04-.06.06-.12.07-.2.02-.07.02-.15.02-.24m.37-.02c0,.15-.02.27-.05.39-.04.12-.09.21-.16.29-.07.08-.16.14-.26.18-.1.04-.22.06-.36.06s-.25-.02-.35-.05c-.1-.04-.18-.09-.25-.16-.07-.07-.12-.17-.15-.28s-.05-.25-.05-.4c0-.14.02-.27.05-.38.04-.11.09-.21.16-.29.07-.08.16-.14.26-.18.1-.04.22-.06.36-.06s.25.02.35.05c.1.03.18.09.25.16.07.07.12.17.15.28.03.11.05.24.05.39m-1.94.85s0,.02,0,.02c0,0-.01.01-.03.02-.01,0-.03,0-.05.01-.02,0-.05,0-.08,0s-.06,0-.08,0c-.02,0-.04,0-.05-.01-.01,0-.02-.01-.03-.02,0,0,0-.02,0-.02v-1.41h-.64v1.41s0,.02,0,.02c0,0-.02.01-.03.02-.01,0-.03,0-.05.01-.02,0-.05,0-.08,0s-.06,0-.09,0c-.02,0-.04,0-.05-.01-.01,0-.02-.01-.03-.02,0,0,0-.02,0-.02v-1.59s.01-.07.03-.08c.02-.02.04-.03.07-.03h1.14s.06.01.08.03c.02.02.03.05.03.08v1.59Zm-2.25-.46c0,.09-.02.17-.05.23-.03.07-.08.12-.14.17-.06.04-.13.08-.22.1-.09.02-.18.03-.28.03-.06,0-.11,0-.16-.01-.05,0-.09-.02-.12-.03-.04-.01-.06-.02-.08-.04-.02-.01-.04-.02-.05-.03,0,0-.02-.02-.02-.02,0,0,0-.02-.01-.03,0-.02,0-.03,0-.06,0-.02,0-.05,0-.08,0-.04,0-.06.01-.08,0-.01.02-.02.03-.02.01,0,.03,0,.05.02.02.01.04.02.07.04.03.01.07.03.11.04.04.01.09.02.15.02.05,0,.09,0,.13-.02.04-.01.07-.03.1-.05.03-.02.05-.05.06-.08.02-.03.02-.06.02-.1,0-.04,0-.08-.02-.11-.01-.03-.04-.06-.06-.08-.03-.02-.07-.04-.11-.05-.04-.01-.1-.02-.16-.02h-.18s-.02,0-.03,0c0,0-.01-.01-.02-.02s0-.02,0-.04c0-.02,0-.04,0-.07,0-.03,0-.05,0-.06,0-.02,0-.03.01-.04,0-.01.01-.02.02-.02,0,0,.02,0,.03,0h.19c.05,0,.1,0,.14-.02.04-.01.08-.03.11-.05.03-.02.05-.05.06-.08.01-.03.02-.07.02-.1,0-.03,0-.06-.02-.09-.01-.03-.03-.05-.05-.07-.02-.02-.05-.03-.08-.04-.03-.01-.07-.02-.12-.02-.05,0-.1,0-.14.02-.04.01-.08.02-.11.04-.03.01-.06.03-.08.04-.02.01-.04.02-.05.02,0,0-.01,0-.02,0,0,0,0-.01-.01-.02s0-.02,0-.04c0-.02,0-.04,0-.06,0-.02,0-.04,0-.05,0-.02,0-.03,0-.04,0-.01,0-.02.01-.03,0-.01.01-.02.02-.03,0,0,.03-.02.06-.04.03-.01.06-.03.11-.04.04-.01.09-.02.14-.03.05,0,.11-.01.17-.01.09,0,.17,0,.24.03.07.02.13.05.17.09.05.04.08.08.1.14.02.05.03.12.03.19,0,.06,0,.11-.02.15-.01.05-.04.09-.06.12-.03.04-.06.06-.1.09-.04.02-.08.04-.13.05h0c.05,0,.1.02.15.05.04.02.08.05.12.09.03.04.06.08.07.13.02.05.03.1.03.15"/><path class="cls-2" d="m4.85,17v.54s.05.45.07.53c.02.14.06.36.1.49.11.32.18.59.32.87.14.28.27.51.44.76.17.25.35.43.54.65.14.16.46.41.64.54.22.17.49.32.75.45.24.12.59.26.87.33.15.04.31.08.48.11.04,0,.52.08.53.08h.64s.45-.04.53-.06c.17-.03.33-.07.5-.11.3-.07.63-.2.88-.33.56-.28.99-.57,1.41-1,.42-.42.71-.85,1-1.41.13-.27.24-.56.32-.87.05-.17.07-.33.11-.5.02-.08.04-.51.06-.54v-.64s-.07-.49-.08-.53c-.03-.18-.07-.33-.11-.48-.07-.28-.21-.63-.33-.87-.13-.26-.28-.52-.45-.75-.13-.18-.38-.5-.54-.64-.23-.19-.41-.37-.65-.54-.25-.17-.47-.3-.76-.44-.29-.14-.56-.21-.87-.32-.13-.04-1.01-.17-1.02-.17h-.54s-.48.06-.54.07c-.18.03-.34.07-.5.11-.36.09-.58.21-.89.32-.46.18-1.09.67-1.42,1s-.82.95-1,1.42c-.12.3-.23.52-.32.89-.04.16-.07.32-.11.5-.02.07-.05.52-.07.54m1.99-1.75c0-.19.16-.26.28-.34.64-.4,1.29-.77,1.94-1.15.22-.13.54-.36.87-.36.38,0,.73.25.96.41.53.38,1.11.7,1.64,1.09.24.18.5.44.5.86,0,.5-.38.8-.79.9-.19.05-1.38.01-1.68.01h-2.54c-.26,0-.66-.07-.66.19v.04c0,.23.43.16.66.16h4.06c.32,0,.46.04.62.2.11.11.26.34.26.54v.09c0,.25-.12.45-.24.57-.16.16-.29.22-.6.22h-4.1c-.23,0-.66-.07-.66.16v.07c0,.1.11.16.22.16h5.39v.62h-5.43c-.31,0-.68-.41-.68-.71v-.16c0-.22.15-.44.26-.55.16-.16.31-.2.62-.2h4.07c.23,0,.65.06.65-.16v-.07c0-.23-.43-.16-.66-.16h-4.06c-.33,0-.44-.03-.62-.2-.11-.1-.26-.35-.26-.54v-.15c0-.2.17-.46.28-.55.21-.17.28-.19.65-.19h4.14c.32,0,.5.02.5-.32v-.03s-.06-.15-.08-.17c-.05-.05-.08-.08-.14-.12-.5-.34-1.01-.66-1.52-1-.13-.09-.47-.37-.64-.37h-.08c-.07,0-1.21.71-1.38.8-.22.13-1.2.77-1.39.77h-.03c-.17,0-.31-.18-.31-.36h0Z"/></svg>