<?xml version="1.0" encoding="utf-8"?>
<!-- Generator: Adobe Illustrator 28.2.0, SVG Export Plug-In . SVG Version: 6.00 Build 0)  -->
<svg version="1.1" id="Layer_1" xmlns="http://www.w3.org/2000/svg" xmlns:xlink="http://www.w3.org/1999/xlink" x="0px" y="0px"
	 viewBox="0 0 630.68 388.79" style="enable-background:new 0 0 630.68 388.79;" xml:space="preserve">
<style type="text/css">
	.st0{fill:url(#SVGID_1_);stroke:#F3F5F9;stroke-width:0.8244;stroke-miterlimit:10;}
	.st1{fill:url(#SVGID_00000048479727179401793300000004439832803851531945_);}
	.st2{fill:#FFFFFF;}
	.st3{fill:url(#SVGID_00000174563603828400525760000004100455001697463486_);}
	.st4{fill:none;stroke:#FFFFFF;stroke-width:1.7772;stroke-linecap:round;stroke-linejoin:round;stroke-miterlimit:10;}
	
		.st5{fill:url(#SVGID_00000091714357638311629280000000143355540538908290_);stroke:#FFFFFF;stroke-width:0.4345;stroke-miterlimit:10;}
	.st6{fill:url(#SVGID_00000166654346783550150050000014260028107697431732_);}
	.st7{fill:url(#SVGID_00000106842889563257461430000005173499345538401162_);}
	.st8{fill:url(#SVGID_00000000917328187569989880000010394106656817237680_);}
	.st9{fill:url(#SVGID_00000103962111457975705180000000459467282871564966_);}
	.st10{fill:url(#SVGID_00000121278604302795130110000011569514343034674326_);stroke:#FFFFFF;stroke-width:4;stroke-miterlimit:10;}
	.st11{opacity:0.2;clip-path:url(#SVGID_00000005258504000527319550000001151905247072303765_);}
	.st12{fill:none;stroke:#F3F5F9;stroke-miterlimit:10;}
	
		.st13{fill:url(#SVGID_00000016067362968631326090000000641487616156274081_);stroke:#FFFFFF;stroke-width:1.2682;stroke-miterlimit:10;}
	
		.st14{fill:url(#SVGID_00000053532934828409136840000011193013081165336979_);stroke:#F3F5F9;stroke-width:0.9176;stroke-miterlimit:10;}
	
		.st15{fill:url(#SVGID_00000085242030883206579870000006838492067384213426_);stroke:#FFFFFF;stroke-width:1.1942;stroke-miterlimit:10;}
	
		.st16{fill:url(#SVGID_00000147185386934662964280000001505523343708560535_);stroke:#F3F5F9;stroke-width:0.9176;stroke-miterlimit:10;}
	
		.st17{fill:url(#SVGID_00000038382770656039691590000017261665453777012097_);stroke:#FFFFFF;stroke-width:1.1201;stroke-miterlimit:10;}
	
		.st18{fill:url(#SVGID_00000081631499498686815810000008999894287667919252_);stroke:#F3F5F9;stroke-width:0.9176;stroke-miterlimit:10;}
	
		.st19{fill:url(#SVGID_00000091716703840779554370000017286856427281051060_);stroke:#FFFFFF;stroke-width:1.0461;stroke-miterlimit:10;}
	
		.st20{fill:url(#SVGID_00000177458007047570164720000012854360110922933122_);stroke:#F3F5F9;stroke-width:0.9176;stroke-miterlimit:10;}
	
		.st21{fill:url(#SVGID_00000182499703002247674310000000985797461338453639_);stroke:#FFFFFF;stroke-width:0.9721;stroke-miterlimit:10;}
	
		.st22{fill:url(#SVGID_00000119084818666390789140000004758530047744156596_);stroke:#F3F5F9;stroke-width:0.9176;stroke-miterlimit:10;}
	
		.st23{fill:url(#SVGID_00000080207661301661431590000004231261604019470482_);stroke:#FFFFFF;stroke-width:0.898;stroke-miterlimit:10;}
	
		.st24{fill:url(#SVGID_00000043414791112259132970000008569012577725139633_);stroke:#F3F5F9;stroke-width:0.9176;stroke-miterlimit:10;}
	
		.st25{fill:url(#SVGID_00000110463961046276202920000010143876659727677607_);stroke:#FFFFFF;stroke-width:0.824;stroke-miterlimit:10;}
	
		.st26{fill:url(#SVGID_00000034803742673077810990000010848412193518125191_);stroke:#F3F5F9;stroke-width:0.9176;stroke-miterlimit:10;}
	.st27{fill:url(#SVGID_00000062163587176679440300000013971840776026578596_);stroke:#FFFFFF;stroke-width:4;stroke-miterlimit:10;}
	.st28{fill:url(#SVGID_00000145749588588970358660000000707659583765440947_);}
	.st29{fill:#F3F5F9;}
	.st30{fill:url(#SVGID_00000060712326157336019120000017267426085551815605_);}
	.st31{fill:url(#SVGID_00000046318068602701066560000000127212250986679738_);stroke:#FFFFFF;stroke-miterlimit:10;}
</style>
<g>
	<g>
		
			<linearGradient id="SVGID_1_" gradientUnits="userSpaceOnUse" x1="370.3235" y1="491.7281" x2="368.4335" y2="550.0833" gradientTransform="matrix(1 0 0 1 -8.3622 -359.0551)">
			<stop  offset="0" style="stop-color:#E2E5EA"/>
			<stop  offset="1" style="stop-color:#F3F5F9"/>
		</linearGradient>
		<rect x="358.19" y="129.3" class="st0" width="4.7" height="94.6"/>
		<g>
			
				<linearGradient id="SVGID_00000046317513722900880560000007025411314510089630_" gradientUnits="userSpaceOnUse" x1="368.9712" y1="498.9022" x2="368.1744" y2="487.0504" gradientTransform="matrix(1 0 0 1 -8.3622 -359.0551)">
				<stop  offset="0" style="stop-color:#FF9152"/>
				<stop  offset="0.1743" style="stop-color:#F54E53"/>
				<stop  offset="0.5102" style="stop-color:#F44B6C"/>
				<stop  offset="1" style="stop-color:#F2429A"/>
			</linearGradient>
			<polygon style="fill:url(#SVGID_00000046317513722900880560000007025411314510089630_);" points="354.69,138.8 358.19,130.1 
				362.89,130.1 366.39,138.8 			"/>
			<path class="st2" d="M362.69,130.5l3.2,7.9h-10.5l3.2-7.9H362.69 M363.19,129.7h-0.5h-4.2h-0.5l-0.2,0.5l-3.2,7.9l-0.4,1.1h1.1
				h10.5h1.1l-0.4-1.1l-3.2-7.9L363.19,129.7L363.19,129.7z"/>
		</g>
		<g>
			
				<linearGradient id="SVGID_00000106123985133308299900000009174728649997734805_" gradientUnits="userSpaceOnUse" x1="382.9682" y1="354.7155" x2="351.7252" y2="516.2864" gradientTransform="matrix(1 0 0 1 -8.3622 -359.0551)">
				<stop  offset="0" style="stop-color:#FF9152"/>
				<stop  offset="0.1743" style="stop-color:#F54E53"/>
				<stop  offset="0.5102" style="stop-color:#F44B6C"/>
				<stop  offset="1" style="stop-color:#F2429A"/>
			</linearGradient>
			<path style="fill:url(#SVGID_00000106123985133308299900000009174728649997734805_);" d="M361.09,130.8c-7.5,0-14.9-1.3-22.1-3.9
				c-33.8-12.2-51.5-49.6-39.3-83.4c9.3-25.8,33.9-43.2,61.4-43.2c7.5,0,14.9,1.3,22.1,3.9c16.4,5.9,29.5,17.8,36.9,33.6
				s8.3,33.5,2.4,49.8C413.19,113.5,388.49,130.8,361.09,130.8z"/>
			<path class="st2" d="M361.09,0.8c7.3,0,14.7,1.2,21.9,3.8c33.7,12.1,51.2,49.2,39.1,82.9c-9.5,26.4-34.4,42.9-61,42.9
				c-7.3,0-14.7-1.2-21.9-3.8c-33.7-12.1-51.2-49.2-39.1-82.9C309.59,17.2,334.49,0.8,361.09,0.8 M361.09,0v0.8V0L361.09,0
				c-27.6,0-52.4,17.4-61.7,43.4c-5.9,16.5-5.1,34.3,2.4,50.1c7.5,15.9,20.7,27.8,37.1,33.8c7.2,2.6,14.6,3.9,22.2,3.9
				c27.6,0,52.4-17.4,61.7-43.4c5.9-16.5,5.1-34.3-2.4-50.1s-20.6-27.9-37.1-33.8C376.09,1.3,368.69,0,361.09,0L361.09,0z"/>
		</g>
	</g>
	<g>
		<circle class="st4" cx="138.99" cy="158.4" r="138.1"/>
		
			<linearGradient id="SVGID_00000078009897850989409070000010460772502223124362_" gradientUnits="userSpaceOnUse" x1="103.8391" y1="597.0947" x2="196.3908" y2="427.6971" gradientTransform="matrix(1 0 0 1 -8.3622 -359.0551)">
			<stop  offset="0" style="stop-color:#18C0CC"/>
			<stop  offset="0.3388" style="stop-color:#31D6C6"/>
			<stop  offset="0.6458" style="stop-color:#47EAC1"/>
			<stop  offset="1" style="stop-color:#B8FFE8"/>
		</linearGradient>
		
			<circle style="fill:url(#SVGID_00000078009897850989409070000010460772502223124362_);stroke:#FFFFFF;stroke-width:0.4345;stroke-miterlimit:10;" cx="138.99" cy="158.4" r="112.6"/>
	</g>
	<g>
		
			<linearGradient id="SVGID_00000082332335519684151410000011702902598611920318_" gradientUnits="userSpaceOnUse" x1="282.9811" y1="245.7026" x2="306.5041" y2="308.4305" gradientTransform="matrix(1 0 0 -1 -8.3622 422.355)">
			<stop  offset="0" style="stop-color:#ADFDFF"/>
			<stop  offset="0.0325" style="stop-color:#A3F3FB"/>
			<stop  offset="0.1826" style="stop-color:#7ACCE8"/>
			<stop  offset="0.3013" style="stop-color:#61B3DD"/>
			<stop  offset="0.373" style="stop-color:#58AAD9"/>
			<stop  offset="0.5677" style="stop-color:#4091C5"/>
			<stop  offset="0.9797" style="stop-color:#035192"/>
			<stop  offset="1" style="stop-color:#004E8F"/>
		</linearGradient>
		<path style="fill:url(#SVGID_00000082332335519684151410000011702902598611920318_);" d="M272.19,145.3c-0.6,4.2,4.3,6.6,7.6,4.4
			c3.5-2.4,23-16.4,26.3-18.9c1.2-1-0.5-1.4-1.4-1.3c-2.5,0-8.1-0.1-10.9-0.2c-1.4,0.1-2-0.2-3,0.4c-3.1,2.2-13.6,9.8-16.2,11.6
			c-1.2,0.9-2.1,2-2.5,3.6L272.19,145.3L272.19,145.3z"/>
		
			<linearGradient id="SVGID_00000062152925055583213440000013312801711383947935_" gradientUnits="userSpaceOnUse" x1="315.5954" y1="233.4722" x2="339.1183" y2="296.2001" gradientTransform="matrix(1 0 0 -1 -8.3622 422.355)">
			<stop  offset="0" style="stop-color:#ADFDFF"/>
			<stop  offset="0.0325" style="stop-color:#A3F3FB"/>
			<stop  offset="0.1826" style="stop-color:#7ACCE8"/>
			<stop  offset="0.3013" style="stop-color:#61B3DD"/>
			<stop  offset="0.373" style="stop-color:#58AAD9"/>
			<stop  offset="0.5677" style="stop-color:#4091C5"/>
			<stop  offset="0.9797" style="stop-color:#035192"/>
			<stop  offset="1" style="stop-color:#004E8F"/>
		</linearGradient>
		<path style="fill:url(#SVGID_00000062152925055583213440000013312801711383947935_);" d="M308.19,152.1c0,0.4,0.5,1,1.2,1.9
			c2.2,3,4.9,6.5,7.1,9.5c0.9,1.2,1.1,1.3,2.8,1.3c0.9,0,1.7,0,2.6,0c1.9,0,4.4,0.1,6.2,0.1c1.4-0.1,1.5-0.7,0.9-1.5
			c-2.1-2.8-10.1-14.1-12.4-16.9c-0.8-0.6-1.3,0.1-2.4,0.7c-1.2,0.9-3.1,2.1-4.4,3C308.79,151.2,308.19,151.6,308.19,152.1
			L308.19,152.1z"/>
		
			<linearGradient id="SVGID_00000139260933590453199760000014548627645786953355_" gradientUnits="userSpaceOnUse" x1="303.9657" y1="237.8333" x2="327.4886" y2="300.5612" gradientTransform="matrix(1 0 0 -1 -8.3622 422.355)">
			<stop  offset="0" style="stop-color:#ADFDFF"/>
			<stop  offset="0.0325" style="stop-color:#A3F3FB"/>
			<stop  offset="0.1826" style="stop-color:#7ACCE8"/>
			<stop  offset="0.3013" style="stop-color:#61B3DD"/>
			<stop  offset="0.373" style="stop-color:#58AAD9"/>
			<stop  offset="0.5677" style="stop-color:#4091C5"/>
			<stop  offset="0.9797" style="stop-color:#035192"/>
			<stop  offset="1" style="stop-color:#004E8F"/>
		</linearGradient>
		<path style="fill:url(#SVGID_00000139260933590453199760000014548627645786953355_);" d="M296.49,160.9c0.1,0.4,0.5,1,1,1.6
			c0.7,0.8,1,1.6,1.9,1.9c2.4,0.2,6.2,0.1,8.9,0.3c1.5,0,4.2,0.4,2.6-1.7c-1.2-1.6-4.5-6-5.6-7.5s-2.1-0.2-3.4,0.6
			c-1.2,0.9-2.9,2.1-3.9,2.8C296.89,159.8,296.39,160.1,296.49,160.9L296.49,160.9z"/>
		
			<linearGradient id="SVGID_00000026146306313636570620000000775004840989873545_" gradientUnits="userSpaceOnUse" x1="287.0084" y1="244.1923" x2="310.5313" y2="306.9202" gradientTransform="matrix(1 0 0 -1 -8.3622 422.355)">
			<stop  offset="0" style="stop-color:#ADFDFF"/>
			<stop  offset="0.0325" style="stop-color:#A3F3FB"/>
			<stop  offset="0.1826" style="stop-color:#7ACCE8"/>
			<stop  offset="0.3013" style="stop-color:#61B3DD"/>
			<stop  offset="0.373" style="stop-color:#58AAD9"/>
			<stop  offset="0.5677" style="stop-color:#4091C5"/>
			<stop  offset="0.9797" style="stop-color:#035192"/>
			<stop  offset="1" style="stop-color:#004E8F"/>
		</linearGradient>
		<path style="fill:url(#SVGID_00000026146306313636570620000000775004840989873545_);" d="M281.79,153.6c-6.7,4-15.3-1.7-13.8-9.4
			c0.7-4,3.6-6,6.8-8.3c1.9-1.4,4.4-3.1,6-4.2c2.1-1.4,2.5-2.3,0.4-2.4c-2.3,0-8.2-0.1-10.9-0.2c-0.8,0-1.5,0.1-2.2,0.4
			c-10.2,5.2-12.9,19.5-5.7,28.2c6.3,7.9,18.2,9,26,3.1c3.9-2.8,35.7-25.5,41.1-29.3c1.5-1-0.4-1.5-1.5-1.4c-2.7,0-8.9-0.2-11.3-0.2
			c-1.2,0-1.6,0-2.4,0.6C310.59,133,288.49,149,281.79,153.6L281.79,153.6L281.79,153.6z"/>
	</g>
	<g>
		
			<linearGradient id="SVGID_00000011012740237863668430000000513335110501431696_" gradientUnits="userSpaceOnUse" x1="353.7414" y1="537.9906" x2="255.0832" y2="583.8782" gradientTransform="matrix(1 0 0 1 -8.3622 -359.0551)">
			<stop  offset="0" style="stop-color:#E2E5EA"/>
			<stop  offset="1" style="stop-color:#F3F5F9"/>
		</linearGradient>
		
			<path style="fill:url(#SVGID_00000011012740237863668430000000513335110501431696_);stroke:#FFFFFF;stroke-width:4;stroke-miterlimit:10;" d="
			M390.99,238.4l-197.7,9.3v-53.1c0-23.6,20.3-42.1,43.8-40l120.4,10.8c19,1.7,33.5,17.6,33.5,36.6V238.4z"/>
		<g>
			<g>
				<defs>
					<path id="SVGID_00000132786269470187521210000012827115431647389330_" d="M390.99,238.4l-197.7,9.3v-53.1
						c0-23.6,20.3-42.1,43.8-40l120.4,10.8c19,1.7,33.5,17.6,33.5,36.6V238.4z"/>
				</defs>
				<clipPath id="SVGID_00000087370941290985520350000001204159998870440327_">
					<use xlink:href="#SVGID_00000132786269470187521210000012827115431647389330_"  style="overflow:visible;"/>
				</clipPath>
				<g style="opacity:0.2;clip-path:url(#SVGID_00000087370941290985520350000001204159998870440327_);">
					<line class="st12" x1="413.79" y1="108.6" x2="170.09" y2="108.6"/>
					<line class="st12" x1="413.79" y1="120.4" x2="170.09" y2="120.4"/>
					<line class="st12" x1="413.79" y1="132.3" x2="170.09" y2="132.3"/>
					<line class="st12" x1="413.79" y1="144.1" x2="170.09" y2="144.1"/>
					<line class="st12" x1="413.79" y1="155.9" x2="170.09" y2="155.9"/>
					<line class="st12" x1="413.79" y1="167.8" x2="170.09" y2="167.8"/>
					<line class="st12" x1="413.79" y1="179.6" x2="170.09" y2="179.6"/>
					<line class="st12" x1="413.79" y1="191.4" x2="170.09" y2="191.4"/>
					<line class="st12" x1="413.79" y1="203.3" x2="170.09" y2="203.3"/>
					<line class="st12" x1="413.79" y1="215.1" x2="170.09" y2="215.1"/>
					<line class="st12" x1="413.79" y1="227" x2="170.09" y2="227"/>
					<line class="st12" x1="413.79" y1="238.8" x2="170.09" y2="238.8"/>
					<line class="st12" x1="413.79" y1="250.6" x2="170.09" y2="250.6"/>
					<line class="st12" x1="413.79" y1="262.5" x2="170.09" y2="262.5"/>
					<line class="st12" x1="413.79" y1="274.3" x2="170.09" y2="274.3"/>
					<line class="st12" x1="413.79" y1="286.1" x2="170.09" y2="286.1"/>
				</g>
			</g>
		</g>
	</g>
	<g>
		<g>
			
				<linearGradient id="SVGID_00000103975869769159428770000009701298287782449579_" gradientUnits="userSpaceOnUse" x1="149.6162" y1="567.0452" x2="144.2041" y2="592.8242" gradientTransform="matrix(1 0 0.1336 0.9259 -59.22 -330.852)">
				<stop  offset="0" style="stop-color:#FFF7D4"/>
				<stop  offset="0.4838" style="stop-color:#FFE259"/>
				<stop  offset="1" style="stop-color:#FFA751"/>
			</linearGradient>
			
				<path style="fill:url(#SVGID_00000103975869769159428770000009701298287782449579_);stroke:#FFFFFF;stroke-width:1.2682;stroke-miterlimit:10;" d="
				M159.99,213.8l-0.1-16.2c0-2,1-3.4,2.3-3.4l0,0c1.4,0,2.8,1.4,3.3,3.4l4.6,16.2c0.8,2.7-0.2,5.2-2.1,5.2h-4.6
				C161.69,219,159.99,216.5,159.99,213.8z"/>
			
				<linearGradient id="SVGID_00000071544868489725346330000011729233768561262486_" gradientUnits="userSpaceOnUse" x1="174.5336" y1="199.4674" x2="173.9871" y2="141.3515" gradientTransform="matrix(1 0 0 -1 -8.3622 422.355)">
				<stop  offset="0" style="stop-color:#E2E5EA"/>
				<stop  offset="1" style="stop-color:#F3F5F9"/>
			</linearGradient>
			
				<path style="fill:url(#SVGID_00000071544868489725346330000011729233768561262486_);stroke:#F3F5F9;stroke-width:0.9176;stroke-miterlimit:10;" d="
				M165.89,222.5L165.89,222.5c-2.2,0-4,1.8-4,4v42.3h8.1v-42.3C169.89,224.3,168.09,222.5,165.89,222.5z"/>
		</g>
		<g>
			
				<linearGradient id="SVGID_00000137111372954749183930000004956007757638628785_" gradientUnits="userSpaceOnUse" x1="205.3907" y1="565.7886" x2="200.5387" y2="588.8997" gradientTransform="matrix(1 0 0.0638 0.9309 -33.4493 -332.8761)">
				<stop  offset="0" style="stop-color:#FFF7D4"/>
				<stop  offset="0.4838" style="stop-color:#FFE259"/>
				<stop  offset="1" style="stop-color:#FFA751"/>
			</linearGradient>
			
				<path style="fill:url(#SVGID_00000137111372954749183930000004956007757638628785_);stroke:#FFFFFF;stroke-width:1.1942;stroke-miterlimit:10;" d="
				M200.69,211.5l0.7-14.6c0.1-1.8,1.1-3.1,2.5-3.1l0,0c1.4,0,2.7,1.3,3.2,3.1l3.9,14.6c0.6,2.4-0.5,4.7-2.3,4.7h-4.7
				C202.19,216.2,200.59,213.9,200.69,211.5z"/>
			
				<linearGradient id="SVGID_00000180339061412193789950000006101549252214925237_" gradientUnits="userSpaceOnUse" x1="214.9186" y1="202.317" x2="214.4113" y2="148.3774" gradientTransform="matrix(1 0 0 -1 -8.3622 422.355)">
				<stop  offset="0" style="stop-color:#E2E5EA"/>
				<stop  offset="1" style="stop-color:#F3F5F9"/>
			</linearGradient>
			
				<path style="fill:url(#SVGID_00000180339061412193789950000006101549252214925237_);stroke:#F3F5F9;stroke-width:0.9176;stroke-miterlimit:10;" d="
				M206.29,219.7L206.29,219.7c-2.2,0-4,1.8-4,4v39h8.1v-39C210.39,221.5,208.59,219.7,206.29,219.7z"/>
		</g>
		<g>
			
				<linearGradient id="SVGID_00000013914439272490998120000011806111380411950269_" gradientUnits="userSpaceOnUse" x1="260.6139" y1="564.4658" x2="256.3006" y2="585.0107" gradientTransform="matrix(1 0 -6.102304e-03 0.9359 -7.6499 -334.9002)">
				<stop  offset="0" style="stop-color:#FFF7D4"/>
				<stop  offset="0.4838" style="stop-color:#FFE259"/>
				<stop  offset="1" style="stop-color:#FFA751"/>
			</linearGradient>
			
				<path style="fill:url(#SVGID_00000013914439272490998120000011806111380411950269_);stroke:#FFFFFF;stroke-width:1.1201;stroke-miterlimit:10;" d="
				M241.39,209.1l1.4-13.1c0.2-1.6,1.3-2.8,2.7-2.8l0,0c1.4,0,2.6,1.2,3,2.8l3.1,13.1c0.5,2.2-0.7,4.2-2.6,4.2h-4.6
				C242.59,213.4,241.09,211.3,241.39,209.1z"/>
			
				<linearGradient id="SVGID_00000096756810504519054980000010800664665601759932_" gradientUnits="userSpaceOnUse" x1="255.403" y1="205.1658" x2="254.935" y2="155.4022" gradientTransform="matrix(1 0 0 -1 -8.3622 422.355)">
				<stop  offset="0" style="stop-color:#E2E5EA"/>
				<stop  offset="1" style="stop-color:#F3F5F9"/>
			</linearGradient>
			
				<path style="fill:url(#SVGID_00000096756810504519054980000010800664665601759932_);stroke:#F3F5F9;stroke-width:0.9176;stroke-miterlimit:10;" d="
				M246.79,216.9L246.79,216.9c-2.2,0-4,1.8-4,4v35.6h8.1v-35.6C250.79,218.7,248.99,216.9,246.79,216.9z"/>
		</g>
		<g>
			
				<linearGradient id="SVGID_00000093877421597047155890000000494910465090086811_" gradientUnits="userSpaceOnUse" x1="315.6224" y1="563.1483" x2="311.8266" y2="581.2281" gradientTransform="matrix(1 0 -0.076 0.9409 18.1494 -336.9242)">
				<stop  offset="0" style="stop-color:#FFF7D4"/>
				<stop  offset="0.4838" style="stop-color:#FFE259"/>
				<stop  offset="1" style="stop-color:#FFA751"/>
			</linearGradient>
			
				<path style="fill:url(#SVGID_00000093877421597047155890000000494910465090086811_);stroke:#FFFFFF;stroke-width:1.0461;stroke-miterlimit:10;" d="
				M282.09,206.8l2.2-11.6c0.3-1.4,1.4-2.5,2.8-2.5l0,0c1.4,0,2.6,1,2.9,2.5l2.4,11.6c0.4,1.9-1,3.7-2.8,3.7h-4.6
				C283.09,210.5,281.69,208.7,282.09,206.8z"/>
			
				<linearGradient id="SVGID_00000029729567882026374030000010299835925507897782_" gradientUnits="userSpaceOnUse" x1="295.787" y1="208.0156" x2="295.3583" y2="162.428" gradientTransform="matrix(1 0 0 -1 -8.3622 422.355)">
				<stop  offset="0" style="stop-color:#E2E5EA"/>
				<stop  offset="1" style="stop-color:#F3F5F9"/>
			</linearGradient>
			
				<path style="fill:url(#SVGID_00000029729567882026374030000010299835925507897782_);stroke:#F3F5F9;stroke-width:0.9176;stroke-miterlimit:10;" d="
				M287.19,214L287.19,214c-2.2,0-4,1.8-4,4v32.3h8.1V218C291.29,215.8,289.49,214,287.19,214z"/>
		</g>
		<g>
			
				<linearGradient id="SVGID_00000124874406233764215780000006761447624978471599_" gradientUnits="userSpaceOnUse" x1="370.1935" y1="561.7862" x2="366.8942" y2="577.501" gradientTransform="matrix(1 0 -0.1459 0.9459 43.9792 -338.9484)">
				<stop  offset="0" style="stop-color:#FFF7D4"/>
				<stop  offset="0.4838" style="stop-color:#FFE259"/>
				<stop  offset="1" style="stop-color:#FFA751"/>
			</linearGradient>
			
				<path style="fill:url(#SVGID_00000124874406233764215780000006761447624978471599_);stroke:#FFFFFF;stroke-width:0.9721;stroke-miterlimit:10;" d="
				M322.79,204.5l2.9-10.1c0.4-1.2,1.6-2.1,3-2.1l0,0c1.4,0,2.5,0.9,2.7,2.1l1.7,10.1c0.3,1.7-1.2,3.2-3,3.2h-4.6
				C323.59,207.7,322.29,206.1,322.79,204.5z"/>
			
				<linearGradient id="SVGID_00000066497901250312942460000002791961852964665226_" gradientUnits="userSpaceOnUse" x1="336.272" y1="210.8643" x2="335.8826" y2="169.4529" gradientTransform="matrix(1 0 0 -1 -8.3622 422.355)">
				<stop  offset="0" style="stop-color:#E2E5EA"/>
				<stop  offset="1" style="stop-color:#F3F5F9"/>
			</linearGradient>
			
				<path style="fill:url(#SVGID_00000066497901250312942460000002791961852964665226_);stroke:#F3F5F9;stroke-width:0.9176;stroke-miterlimit:10;" d="
				M327.69,211.2L327.69,211.2c-2.2,0-4,1.8-4,4v29h8.1v-29C331.69,213,329.89,211.2,327.69,211.2z"/>
		</g>
		<g>
			
				<linearGradient id="SVGID_00000103228068283590125260000001722621237047826833_" gradientUnits="userSpaceOnUse" x1="424.1779" y1="560.3537" x2="421.3542" y2="573.8036" gradientTransform="matrix(1 0 -0.2157 0.9509 69.7325 -340.9724)">
				<stop  offset="0" style="stop-color:#FFF7D4"/>
				<stop  offset="0.4838" style="stop-color:#FFE259"/>
				<stop  offset="1" style="stop-color:#FFA751"/>
			</linearGradient>
			
				<path style="fill:url(#SVGID_00000103228068283590125260000001722621237047826833_);stroke:#FFFFFF;stroke-width:0.898;stroke-miterlimit:10;" d="
				M363.39,202.1l3.6-8.6c0.5-1.1,1.8-1.8,3.1-1.8l0,0c1.4,0,2.4,0.8,2.5,1.8l0.9,8.6c0.2,1.4-1.4,2.8-3.3,2.8h-4.6
				C363.99,204.9,362.79,203.6,363.39,202.1z"/>
			
				<linearGradient id="SVGID_00000137824195321601402450000018237232382460237731_" gradientUnits="userSpaceOnUse" x1="376.6565" y1="213.7141" x2="376.3063" y2="176.4787" gradientTransform="matrix(1 0 0 -1 -8.3622 422.355)">
				<stop  offset="0" style="stop-color:#E2E5EA"/>
				<stop  offset="1" style="stop-color:#F3F5F9"/>
			</linearGradient>
			
				<path style="fill:url(#SVGID_00000137824195321601402450000018237232382460237731_);stroke:#F3F5F9;stroke-width:0.9176;stroke-miterlimit:10;" d="
				M368.09,208.4L368.09,208.4c-2.2,0-4,1.8-4,4V238h8.1v-25.6C372.19,210.2,370.39,208.4,368.09,208.4z"/>
		</g>
		<g>
			
				<linearGradient id="SVGID_00000030475103211020267420000003865583020952906131_" gradientUnits="userSpaceOnUse" x1="477.8352" y1="558.8732" x2="475.4657" y2="570.1594" gradientTransform="matrix(1 0 -0.2856 0.956 95.5477 -343.0585)">
				<stop  offset="0" style="stop-color:#FFF7D4"/>
				<stop  offset="0.4838" style="stop-color:#FFE259"/>
				<stop  offset="1" style="stop-color:#FFA751"/>
			</linearGradient>
			
				<path style="fill:url(#SVGID_00000030475103211020267420000003865583020952906131_);stroke:#FFFFFF;stroke-width:0.824;stroke-miterlimit:10;" d="
				M404.09,199.8l4.4-7c0.5-0.9,1.9-1.5,3.3-1.5l0,0c1.4,0,2.4,0.6,2.4,1.5l0.2,7c0,1.2-1.7,2.3-3.5,2.3h-4.6
				C404.49,202.1,403.39,201,404.09,199.8z"/>
			
				<linearGradient id="SVGID_00000179626789843288420070000008804941537929712061_" gradientUnits="userSpaceOnUse" x1="417.1414" y1="216.5629" x2="416.8305" y2="183.5036" gradientTransform="matrix(1 0 0 -1 -8.3622 422.355)">
				<stop  offset="0" style="stop-color:#E2E5EA"/>
				<stop  offset="1" style="stop-color:#F3F5F9"/>
			</linearGradient>
			
				<path style="fill:url(#SVGID_00000179626789843288420070000008804941537929712061_);stroke:#F3F5F9;stroke-width:0.9176;stroke-miterlimit:10;" d="
				M408.59,205.6L408.59,205.6c-2.2,0-4,1.8-4,4v22.3h8.1v-22.3C412.59,207.4,410.79,205.6,408.59,205.6z"/>
		</g>
	</g>
	
		<linearGradient id="SVGID_00000173140197180324664510000005843373563212766859_" gradientUnits="userSpaceOnUse" x1="289.3431" y1="583.4902" x2="308.8181" y2="668.6932" gradientTransform="matrix(1 0 0 1 -8.3622 -359.0551)">
		<stop  offset="0" style="stop-color:#E2E5EA"/>
		<stop  offset="1" style="stop-color:#F3F5F9"/>
	</linearGradient>
	
		<path style="fill:url(#SVGID_00000173140197180324664510000005843373563212766859_);stroke:#FFFFFF;stroke-width:4;stroke-miterlimit:10;" d="
		M122.99,326.1v-40.7c0-24.3,18.8-44.4,43-45.9l295.3-19.1v105.7"/>
	<g>
		<circle class="st4" cx="506.99" cy="265.1" r="122.8"/>
		<g>
			
				<linearGradient id="SVGID_00000032645902557425812260000011368194376107132586_" gradientUnits="userSpaceOnUse" x1="539.1174" y1="521.8685" x2="491.13" y2="728.3965" gradientTransform="matrix(1 0 0 1 -8.3622 -359.0551)">
				<stop  offset="0" style="stop-color:#ADFDFF"/>
				<stop  offset="0.0325" style="stop-color:#A3F3FB"/>
				<stop  offset="0.1826" style="stop-color:#7ACCE8"/>
				<stop  offset="0.3013" style="stop-color:#61B3DD"/>
				<stop  offset="0.373" style="stop-color:#58AAD9"/>
				<stop  offset="0.5677" style="stop-color:#4091C5"/>
				<stop  offset="0.9797" style="stop-color:#035192"/>
				<stop  offset="1" style="stop-color:#004E8F"/>
			</linearGradient>
			<circle style="fill:url(#SVGID_00000032645902557425812260000011368194376107132586_);" cx="506.99" cy="265.1" r="103.1"/>
			<path class="st29" d="M506.99,162.4c56.7,0,102.6,46,102.6,102.6s-46,102.6-102.6,102.6s-102.6-46-102.6-102.6
				S450.39,162.4,506.99,162.4 M506.99,161.4c-57.1,0-103.6,46.5-103.6,103.6s46.5,103.7,103.6,103.7c57.1,0,103.6-46.5,103.6-103.6
				S564.19,161.4,506.99,161.4L506.99,161.4z"/>
		</g>
		<g>
			
				<linearGradient id="SVGID_00000049212965156060130830000014605130266020210863_" gradientUnits="userSpaceOnUse" x1="3292.5862" y1="-528.7958" x2="3254.1853" y2="-363.5259" gradientTransform="matrix(0.6307 -0.7761 0.7761 0.6307 -1223.0901 3071.7676)">
				<stop  offset="0" style="stop-color:#ADFDFF"/>
				<stop  offset="0.0325" style="stop-color:#A3F3FB"/>
				<stop  offset="0.1826" style="stop-color:#7ACCE8"/>
				<stop  offset="0.3013" style="stop-color:#61B3DD"/>
				<stop  offset="0.373" style="stop-color:#58AAD9"/>
				<stop  offset="0.5677" style="stop-color:#4091C5"/>
				<stop  offset="0.9797" style="stop-color:#035192"/>
				<stop  offset="1" style="stop-color:#004E8F"/>
			</linearGradient>
			<path style="fill:url(#SVGID_00000049212965156060130830000014605130266020210863_);" d="M506.99,265.1l-63.8,80.4
				c-16.6-13.2-28.7-31.2-34.7-51.5c-15.9-54,15.5-111.5,69.6-127.4s111.5,15.5,127.4,69.6c2.7,9.2,4.1,18.8,4.2,28.4L506.99,265.1z
				"/>
		</g>
	</g>
	<g>
		<g>
			
				<linearGradient id="SVGID_00000156564413243747313900000003112273397996467897_" gradientUnits="userSpaceOnUse" x1="410.8212" y1="1173.9728" x2="384.6727" y2="1298.522" gradientTransform="matrix(0.941 0.3385 -0.3385 0.941 121.0683 -1011.7867)">
				<stop  offset="0" style="stop-color:#FFF7D4"/>
				<stop  offset="0.4838" style="stop-color:#FFE259"/>
				<stop  offset="1" style="stop-color:#FFA751"/>
			</linearGradient>
			
				<circle style="fill:url(#SVGID_00000156564413243747313900000003112273397996467897_);stroke:#FFFFFF;stroke-miterlimit:10;" cx="74.39" cy="290.2" r="64.6"/>
		</g>
	</g>
</g>
</svg>
