<?xml version="1.0" encoding="UTF-8"?><svg id="Layer_1" xmlns="http://www.w3.org/2000/svg" viewBox="0 0 111 36.32"><defs><style>.cls-1{fill:#39387b;}.cls-1,.cls-2{stroke-width:0px;}.cls-2{fill:#d52c1c;}</style></defs><path class="cls-1" d="m23.53,15.82s.21,0,.62,0h4.83s.5-2.32.5-2.32h-7.06s-1.54,0-1.54,0l-2.08,9.55h3.15s.78-3.6.78-3.6h4.26s.52-2.32.52-2.32h-4.26s.27-1.31.27-1.31h0Z"/><path class="cls-1" d="m35.22,13.4c-3.91,0-5.51.48-6.21,4.61-.13.75-.17,1.17-.17,1.75,0,2.44,1.42,3.41,4.7,3.41,3.91,0,5.51-.48,6.21-4.61.13-.75.15-1.16.15-1.73,0-2.46-1.41-3.43-4.69-3.43h0Zm1.3,5.02c-.39,1.77-1.01,2.37-2.68,2.37-1.12,0-1.75-.41-1.75-1.36,0-.31.06-.83.15-1.28.38-1.77,1.01-2.37,2.68-2.37,1.12,0,1.73.42,1.73,1.38,0,.31-.04.83-.14,1.27Z"/><path class="cls-1" d="m48.14,20.15c2.23,0,2.64-1.76,2.9-3.12.08-.42.11-.82.11-1.19,0-1.41-.7-2.33-2.47-2.33h-5.23c-.98,0-1.51.02-1.51.02l-2.1,9.53h3.15s1.44-6.58,1.44-6.58c.08-.41.32-.6.74-.6h1.8c.67,0,.95.14.95.6,0,.12-.01.27-.06.44-.18.82-.52,1.08-1.35,1.08h-1.65s-.49,2.02-.49,2.02c0,0,0,0,0,0h0s0,0,0,0l2.82,4.4h3.62s-.94-1.37-.94-1.37h0s-.09-.12-.09-.12l-.43-.63h-.02s-1.48-2.1-1.48-2.1v-.05s.29,0,.29,0h0Z"/><path class="cls-1" d="m70.24,15.81h-4.83c-.42,0-.63,0-.63,0l-.27,1.32h5.33s-.46,2.1-.46,2.1h-5.33s-.2.9-.2.9c-.01.08-.13.6-.13.6,0,0,.27,0,.61,0h4.89s-.5,2.32-.5,2.32h-7.12c-.82,0-1.5-.01-1.5-.01,0,0,.27-1.37.3-1.49l1.42-6.55c.21-.96.32-1.5.32-1.5h8.6s-.5,2.32-.5,2.32h0Z"/><path class="cls-1" d="m74.6,23.04c-2.57,0-3.69-1.21-3.69-3.37,0-.55.06-1.16.18-1.81.63-3.29,1.81-4.37,5.31-4.37h5.83s-1.58,2.37-1.58,2.37h-3.15c-2.09,0-2.72.22-3.17,2.27-.1.46-.15.97-.15,1.27,0,1.05.66,1.27,2.28,1.27h3.57s-1.52,2.37-1.52,2.37h-3.91s0,0,0,0Z"/><path class="cls-1" d="m85.85,13.4s.26-.02,1.77-.02c1.06,0,1.89,0,1.89,0l2.01,9.67h-3.13s-.38-1.96-.38-1.96h-3.46s-1.19,1.96-1.19,1.96h-3.53s6.02-9.64,6.02-9.64h0Zm-.15,5.49h2s-.38-2.42-.38-2.42c-.01-.07-.04-.2-.08-.2s-.13.12-.17.2l-1.37,2.42h0Z"/><path class="cls-1" d="m52.5,13.51l-.52,2.37h2.49s-1.55,7.12-1.55,7.12h3.25s1.56-7.12,1.56-7.12h2.77s.52-2.37.52-2.37h-8.51Z"/><path class="cls-1" d="m2.22,11.14L0,21.38h2.35s1.23-5.65,1.23-5.65l7.52-.03.49-2.21h-5.67s.22-1.27.22-1.27h8.27s.67-3.09.67-3.09H2.6s-.38,2-.38,2Z"/><path class="cls-2" d="m10.83,23.62c2.45,0,2.89-1.93,3.18-3.42.09-.46.12-.9.12-1.3,0-1.48-.71-2.47-2.49-2.55-.07,0-.14,0-.21,0h-5.73c-1.07,0-1.66.03-1.66.03l-1.11,5.01-1.2,5.43h3.45s1.57-7.2,1.57-7.2c.09-.45.35-.66.81-.66h1.97c.73,0,1.04.15,1.04.66,0,.13-.01.3-.06.48-.2.9-.57,1.18-1.48,1.18h-1.8s-.54,2.21-.54,2.21c.1.15.24.36.4.61l1.23,1.89h-.02s1.48,2.33,1.48,2.33h3.96s-1.03-1.5-1.03-1.5h0s-.1-.13-.1-.13l-.47-.69h-.02s-1.63-2.3-1.63-2.3v-.06s.32,0,.32,0h0Z"/></svg>