<?xml version="1.0" encoding="UTF-8"?><svg id="Layer_1" xmlns="http://www.w3.org/2000/svg" viewBox="0 0 111 36.32"><defs><style>.cls-1{fill:#fbca12;}.cls-1,.cls-2{fill-rule:evenodd;}.cls-1,.cls-2,.cls-3{stroke-width:0px;}.cls-2,.cls-3{fill:#671508;}</style></defs><path class="cls-2" d="m54.9,3.65c7.87,0,14.24,6.38,14.24,14.24s-6.38,14.24-14.24,14.24-14.24-6.38-14.24-14.24,6.38-14.24,14.24-14.24"/><rect class="cls-3" x="7.3" y="11.21" width="3.62" height="3.62"/><rect class="cls-3" x="32.64" y="11.21" width="8.72" height="3.62"/><rect class="cls-3" x="34.97" y="14.69" width="3.62" height="5.75"/><polygon class="cls-2" points="29.67 11.21 26.1 11.21 24.82 14.83 27.33 14.83 28.44 14.83 30.95 14.83 29.67 11.21"/><polygon class="cls-2" points="14.41 11.21 16.02 11.21 21.2 11.21 21.2 14.83 16.02 14.83 16.02 20.95 21.2 20.95 21.2 24.57 12.41 24.57 12.41 24.53 12.4 24.53 12.4 11.21 14.41 11.21"/><polygon class="cls-1" points="63.87 12.95 65.57 11.21 67.49 11.21 67.49 24.58 63.87 24.58 63.87 12.95"/><polygon class="cls-1" points="59.63 22.84 57.94 24.58 56.01 24.58 56.01 11.21 59.63 11.21 59.63 22.84"/><path class="cls-1" d="m65.17,11.21h1.02c.71,0,1.3.59,1.3,1.3v10.77c0,.71-.59,1.3-1.3,1.3h-1.02c-.71,0-1.3-.59-1.3-1.3v-10.77c0-.71.59-1.3,1.3-1.3"/><path class="cls-1" d="m58.33,24.58h-1.02c-.72,0-1.3-.59-1.3-1.3v-10.77c0-.71.58-1.3,1.3-1.3h1.02c.71,0,1.3.59,1.3,1.3v10.77c0,.71-.59,1.3-1.3,1.3"/><path class="cls-1" d="m50.26,17.34v.87c0,.61-.62,1.1-1.38,1.1h-8.15c-.05-.47-.07-.94-.07-1.42,0-.56.03-1.11.1-1.65h8.13c.76,0,1.38.5,1.38,1.1"/><polygon class="cls-1" points="56.01 11.21 59.63 11.21 67.35 24.58 63.73 24.58 56.01 11.21"/><polygon class="cls-2" points="22.7 20.95 26.32 20.95 25.12 24.57 21.5 24.57 22.7 20.95"/><polygon class="cls-2" points="33.07 20.95 29.45 20.95 30.65 24.57 34.27 24.57 33.07 20.95"/><rect class="cls-3" x="7.3" y="20.95" width="3.62" height="3.62"/><path class="cls-2" d="m39.31,20.95h1.23v3.62h-2.02c-1.99,0-3.55-1.92-3.55-3.84v-.89h3.62v.57c0,.5.18.55.72.55"/><path class="cls-1" d="m48.68,14.18c2,0,3.62,1.62,3.62,3.62s-1.62,3.62-3.62,3.62-3.62-1.62-3.62-3.62,1.62-3.62,3.62-3.62m0-3.34c3.84,0,6.96,3.12,6.96,6.96s-3.12,6.96-6.96,6.96-6.96-3.12-6.96-6.96,3.12-6.96,6.96-6.96"/><path class="cls-2" d="m24.36,16.27h7.03l1.04,3.06h-9.13M.37,16.27h20.83v3.06H.37v-3.06Z"/><path class="cls-2" d="m1.69,11.21h1.92v13.39H0v-12.09C0,11.79.59,11.21,1.3,11.21h.39Z"/><path class="cls-3" d="m34.45,30.69c0,.1-.03.18-.1.25-.06.07-.15.1-.25.1s-.18-.03-.25-.1c-.07-.06-.1-.15-.1-.25,0-.09.03-.17.1-.24.07-.07.15-.1.25-.1s.18.03.25.1c.06.07.1.15.1.25m-.19-.83s-.01.05-.03.07c-.01.01-.04.02-.09.02h-.1c-.06,0-.09-.02-.09-.07l-.1-2.46s0-.04.02-.06c.01-.02.03-.03.07-.03h.35s.06,0,.07.03c.01.02.02.04.01.06l-.1,2.44Zm-1.56-.24c0-.14-.01-.27-.03-.39-.02-.13-.06-.24-.11-.33-.06-.1-.13-.17-.23-.23-.1-.06-.22-.09-.38-.09-.13,0-.25.03-.35.08-.1.05-.18.13-.24.22-.06.09-.11.2-.14.33-.03.13-.05.26-.05.4,0,.16.01.3.04.43.03.13.07.24.13.33.06.09.14.17.23.22s.22.08.36.08.27-.03.37-.09c.1-.06.18-.14.24-.23s.1-.21.13-.33c.02-.13.04-.25.04-.39m.46-.02c0,.47-.11.82-.32,1.07-.21.25-.52.37-.92.37s-.69-.12-.9-.36c-.21-.24-.31-.6-.31-1.07,0-.23.03-.43.09-.61.06-.18.15-.33.26-.45.11-.12.24-.21.39-.28.15-.06.31-.09.49-.09.4,0,.7.13.91.38s.31.6.31,1.04m-4.88-1.1c0-.09.03-.16.08-.2.05-.04.11-.06.19-.06h1.34c.1,0,.17.02.2.07.04.05.05.11.05.19v2.4s0,.06-.02.07c-.01,0-.04.01-.08.01h-.26s-.05,0-.07-.01c-.02,0-.02-.03-.02-.07v-2.27h-1.01l-.03.39c-.03.35-.06.64-.09.87-.03.24-.08.43-.14.58-.06.15-.14.27-.24.36-.1.09-.23.15-.39.2-.02,0-.05.01-.07.02-.03,0-.05-.01-.06-.05l-.07-.21s0-.09.06-.12c.09-.04.17-.09.23-.15.06-.06.11-.15.15-.26.04-.12.08-.27.1-.46.03-.19.05-.44.08-.75l.04-.56Zm-2.9,2.4s0,.06-.02.07c-.01,0-.03.01-.06.01h-.29s-.05,0-.06-.01c-.01,0-.02-.03-.02-.07v-2.45s.02-.08.05-.14c.03-.05.09-.08.17-.08h1.88c.08,0,.14.03.17.08.03.05.05.1.05.14v2.45s0,.06-.02.07c-.01,0-.03.01-.07.01h-.29s-.05,0-.06-.01c-.01,0-.02-.03-.02-.07v-2.27h-1.41v2.27Zm-1.45-1.53c0-.11-.01-.21-.03-.31-.02-.1-.06-.19-.11-.26-.05-.07-.13-.13-.22-.18-.09-.04-.21-.07-.35-.07-.11,0-.22.02-.31.07-.09.05-.16.11-.23.18-.06.07-.11.16-.14.26-.03.1-.05.2-.06.31h1.45Zm-.72-1.2c.2,0,.37.03.51.08.15.05.26.13.36.24.09.1.16.22.21.37.05.14.07.3.07.47,0,.08-.01.15-.03.2s-.05.09-.09.12c-.04.03-.08.05-.13.06-.05.01-.1.02-.15.02h-1.5c0,.16.02.3.07.42.05.12.11.21.18.28.07.07.16.12.26.15.1.03.21.05.32.05s.23-.01.34-.04c.11-.03.2-.06.28-.1.04-.02.08-.02.1.03l.11.22s.01.08-.03.11c-.13.08-.26.13-.41.15-.15.03-.29.04-.43.04-.19,0-.37-.03-.53-.08-.15-.06-.29-.14-.39-.26-.11-.11-.19-.26-.25-.44-.06-.18-.09-.39-.09-.64,0-.23.03-.43.09-.61.06-.18.15-.33.25-.45.11-.12.24-.21.38-.28.15-.06.31-.1.48-.1m-2.28,2.71s0,.06-.02.08c-.01.01-.04.02-.07.02h-.26s-.06,0-.07-.02c-.01-.01-.02-.04-.02-.08v-2.26h-.81s-.06,0-.07-.02c-.01-.02-.02-.04-.02-.07v-.2s0-.05.02-.07c.01-.02.04-.03.07-.03h2.1s.07,0,.08.03c.01.02.02.04.02.07v.2s0,.05-.02.07c-.01.02-.04.02-.08.02h-.85v2.26Zm-5.47-2.57s0-.06.02-.07c.01-.01.03-.02.06-.02h.28s.05,0,.07.02c.01.01.02.03.02.07v2.02h.02c.08-.13.16-.25.23-.36.07-.11.15-.23.23-.35l.79-1.22c.03-.06.07-.1.1-.13.03-.02.08-.04.15-.04h.14c.06,0,.11.02.15.05s.06.09.06.16v2.46s0,.05-.02.06c-.01,0-.03.01-.07.01h-.29s-.05,0-.06-.01c-.01,0-.02-.03-.02-.06v-2h-.03c-.04.06-.08.12-.11.17-.03.05-.07.11-.1.16-.03.05-.07.11-.1.17s-.07.11-.11.18l-.82,1.23c-.04.06-.08.1-.11.12-.04.02-.08.03-.14.03h-.12c-.06,0-.11-.02-.15-.05-.04-.03-.06-.08-.06-.15v-2.46Zm-2.89,0s0-.06.02-.07c.01,0,.04-.01.06-.01h.29s.05,0,.06.01c.01,0,.02.03.02.07v.61c0,.13.01.24.04.32.03.08.07.15.12.2.05.05.12.08.21.1.09.02.19.03.3.03.09,0,.2,0,.31-.02.12-.02.22-.04.31-.08v-1.16s0-.06.02-.07c.01,0,.03-.01.07-.01h.29s.05,0,.06.01c.01,0,.02.03.02.07v2.59s0,.06-.02.07c-.01,0-.03.01-.06.01h-.29s-.05,0-.07-.01c-.01,0-.02-.03-.02-.07v-1.04c-.1.03-.22.06-.35.08-.13.02-.25.03-.35.03-.37,0-.64-.09-.8-.26-.17-.17-.25-.44-.25-.8v-.6Zm-.87,1.3c0-.14-.01-.28-.03-.41-.02-.13-.06-.24-.12-.33-.05-.1-.13-.17-.22-.23-.09-.06-.2-.08-.34-.08-.12,0-.23.03-.32.08s-.17.12-.23.21c-.06.09-.11.2-.14.33-.03.13-.05.27-.05.42,0,.16.01.3.03.43.02.13.06.24.12.33.06.09.13.17.23.22.09.05.21.08.35.08.13,0,.25-.03.34-.09.09-.06.17-.13.22-.23.05-.1.09-.21.12-.33.02-.13.04-.26.04-.39m.45-.02c0,.46-.1.81-.31,1.06-.2.25-.5.38-.88.38s-.67-.11-.86-.34c-.19-.23-.3-.55-.32-.97h-.46v1.16s0,.06-.02.08c-.01.01-.04.02-.08.02h-.25s-.06,0-.07-.02c-.02-.01-.03-.04-.03-.08v-2.56s0-.06.03-.07.04-.02.07-.02h.25s.07,0,.08.02c.01.01.02.03.02.07v1.02h.48c.05-.37.17-.66.38-.86.21-.2.47-.31.79-.31.38,0,.67.13.87.38.2.25.3.6.3,1.04m-5.82-1.1c0-.09.03-.16.08-.2.05-.04.11-.06.19-.06h1.34c.1,0,.17.02.2.07s.05.11.05.19v2.4s0,.06-.02.07c-.01,0-.04.01-.08.01h-.26s-.05,0-.07-.01c-.01,0-.02-.03-.02-.07v-2.27h-1.01l-.03.39c-.03.35-.06.64-.09.87-.03.24-.08.43-.14.58-.06.15-.14.27-.24.36-.1.09-.23.15-.39.2-.02,0-.04.01-.07.02-.03,0-.04-.01-.05-.05l-.07-.21s0-.09.06-.12c.09-.04.17-.09.23-.15.06-.06.11-.15.15-.26.04-.12.08-.27.1-.46.03-.19.05-.44.08-.75l.04-.56Zm-2.57,2.4s0,.06-.02.07c-.01,0-.03.01-.07.01h-.28s-.05,0-.07-.01c-.02,0-.02-.03-.02-.07v-2.59s0-.06.02-.07c.01,0,.04-.01.07-.01h.28s.05,0,.07.01c.01,0,.02.03.02.07v1.01h.45c.05,0,.1,0,.15-.01.05,0,.09-.03.14-.05.04-.03.08-.07.12-.11.04-.05.07-.11.09-.19l.2-.65s.02-.05.03-.05c.01,0,.03-.01.05-.01h.29s.04,0,.05.03c0,.02,0,.04,0,.05l-.2.68c-.03.11-.07.21-.12.3-.05.09-.13.15-.22.19h0c.14.05.23.12.29.2.05.09.1.18.13.29l.27.9s0,.04,0,.06c0,.02-.03.03-.06.03h-.31s-.03,0-.05,0c-.02,0-.03-.02-.04-.05l-.26-.86c-.04-.13-.11-.23-.2-.28-.1-.06-.2-.08-.31-.08h-.51v1.21Zm-1.68-1.93c.11.04.2.09.28.15.08.07.14.14.19.22.05.08.08.17.1.26.02.09.03.19.03.28,0,.16-.03.31-.09.45-.06.13-.15.25-.25.34-.11.1-.23.17-.38.22-.15.05-.3.08-.47.08H.27c-.09,0-.16-.02-.2-.06-.04-.04-.06-.11-.06-.2v-3.14c0-.09.02-.16.06-.2.04-.04.11-.07.21-.07h1.17c.16,0,.31.01.44.04.13.03.25.09.35.16.1.07.17.17.23.28.06.11.08.25.08.41s-.04.3-.12.43c-.08.13-.19.23-.32.29v.04Zm-1.61-.18h.96c.05,0,.12,0,.19-.02.07-.02.13-.04.2-.08.06-.04.11-.1.15-.17.04-.07.06-.16.06-.27,0-.15-.05-.27-.15-.36-.1-.09-.23-.14-.41-.14H.48v1.04Zm1.72,1.07c0-.2-.06-.36-.19-.48-.13-.12-.31-.18-.56-.18H.48v1.35h.97c.15,0,.27-.02.37-.07.1-.05.17-.1.23-.17.06-.07.09-.14.12-.22.02-.08.03-.15.03-.22"/></svg>