<?xml version="1.0" encoding="UTF-8"?><svg id="Layer_1" xmlns="http://www.w3.org/2000/svg" viewBox="0 0 111 36.32"><defs><style>.cls-1{fill:#c31b4b;stroke-width:0px;}</style></defs><path class="cls-1" d="m8.11,9.14c-.79.08-1.58.16-2.37.25-3.55.41-5.74,2.04-5.74,5.31v9.77c0,3.28,2.21,4.6,5.77,4.61h2.37c3.53,0,5.77-1.41,5.76-4.94,0-3.53-.01-7.05-.02-10.58,0-3.52-2.26-4.79-5.77-4.42h0Zm-1.16,16.26c-1.47.03-2.44-.23-2.44-1.51,0-3.06,0-6.11-.01-9.17,0-1.28.96-1.65,2.43-1.77,1.47-.13,2.4.09,2.4,1.4,0,3.13.01,6.27.02,9.4,0,1.31-.93,1.61-2.4,1.64Zm25.56,3.51h4.52c0-5.23,0-10.35,0-15.45-1.54.07-3.06.2-4.53.42,0,4.91,0,9.95,0,15.03Zm7.33-15.5c0,5.28,0,10.15-.01,15.5,1.46,0,2.93,0,4.39,0l.02-8.15s.06,0,.06,0c0,0,4.04,4.87,5.94,8.15,1.26,0,2.84,0,4.1,0,.01-5,.02-9.33.03-14.13-1-.18-2.53-.43-4.39-.67,0,2.72.13,7.44.13,7.44-2.81-4.63-4.76-7.06-5.54-7.98-1.52-.11-3.12-.17-4.73-.18h0Zm-13.04,1.96c-1.05.43-2.01.95-2.85,1.57-.31.23-.6.47-.88.73v2.02h1.95c0,1.05,0,3.28,0,3.86,0,1.41-.67,1.65-2.18,1.66-1.51.01-2.18-.22-2.18-1.61,0-2.32,0-7.91-.01-11.34,0-.43.39-.78.89-.81,2.53-.17,5.14-.3,7.84-.4v-3.67c-3.42.12-6.73.3-9.88.54-1.92.15-3.39,1.5-3.39,3.12v.84h.01c0,4.04.01,9.58.02,12.32,0,3.69,1.48,4.89,5.46,4.89h2.34c3.98,0,5.45-1.23,5.45-5.03,0-2.22,0-6.89,0-9.56-.91.24-1.77.52-2.59.86h0Zm5.7-8.07v3.67c1.24-.02,2.5-.04,3.78-.05.26,0,.5,0,.75,0v-3.68c-.25,0-.5,0-.75,0-1.28,0-2.53.03-3.78.05h0Zm34.28,2.13c-1.29-.18-2.94-.4-4.99-.64-6.68-.82-13.46-1.42-21.96-1.53v3.68c6.76.08,12.44.48,17.84,1.05v16.94c1.51,0,3.01,0,4.52,0,0-5.16.01-11.21.02-16.37h0c.99.11,1.95.22,2.87.32.24.03.47.06.71.09h0c.34.03.67.07,1,.11v-3.66Z"/></svg>