<?xml version="1.0" encoding="UTF-8"?><svg id="Layer_1" xmlns="http://www.w3.org/2000/svg" viewBox="0 0 111 36.32"><defs><style>.cls-1{fill:#0e5a94;}.cls-1,.cls-2{stroke-width:0px;}.cls-2{fill:#e97a08;}</style></defs><path class="cls-1" d="m25.93,26.92c-1.04.98-2.25,1.75-3.57,2.27-1.32.53-2.73.8-4.16.8-1.83,0-3.6-.45-5.19-1.27-1.59-.82-2.98-2.02-4.03-3.52l3.15-2.22c.7.99,1.61,1.77,2.64,2.31,1.04.54,2.21.83,3.42.83.96,0,1.89-.18,2.74-.52.86-.34,1.66-.85,2.35-1.5l2.64,2.8Z"/><path class="cls-1" d="m40.72,24.88c-1.07,1.59-2.5,2.87-4.14,3.75-1.65.88-3.51,1.36-5.42,1.36-3.18,0-6.06-1.29-8.14-3.37-2.08-2.08-3.37-4.96-3.37-8.14,0-2.35.71-4.54,1.92-6.37.7.36,1.34.82,1.89,1.37.41.41.76.86,1.07,1.35-.59,1.08-.93,2.32-.93,3.65,0,2.09.85,3.99,2.22,5.36,1.37,1.37,3.26,2.22,5.36,2.22,1.27,0,2.5-.31,3.57-.89,1.08-.58,2.02-1.42,2.73-2.47l3.27,2.19Z"/><path class="cls-1" d="m24.28,9.23c.68.44,1.32.95,1.89,1.52.38.38.74.8,1.07,1.23,1.14-.69,2.48-1.09,3.91-1.09,1.21,0,2.39.29,3.43.82,1.04.53,1.97,1.31,2.68,2.28l3.17-2.33c-1.08-1.48-2.49-2.66-4.09-3.47-1.6-.81-3.38-1.25-5.2-1.25-2.58,0-4.95.84-6.87,2.27"/><path class="cls-1" d="m1.93,7.02h6.52c1.84,0,3.56.53,5.03,1.46-1.22.56-2.32,1.33-3.25,2.27-.11.11-.21.22-.32.33-.47-.13-.96-.2-1.47-.2H3.86v12.71h4.59c1.62,0,3.1-.7,4.18-1.83,1.1-1.15,1.78-2.76,1.78-4.53,0-1.48-.48-2.84-1.28-3.92.94-.89,2.12-1.53,3.42-1.82,1.08,1.64,1.72,3.62,1.72,5.75,0,2.79-1.09,5.33-2.85,7.18-1.78,1.87-4.25,3.04-6.97,3.04H3.86v3.12H0v-3.12h0V7.02h1.93Z"/><path class="cls-2" d="m7.7,22.76c-.28-.73-.48-1.47-.6-2.23-.13-.78-.17-1.55-.14-2.3.14-3.11,1.53-5.87,3.66-7.81,2.13-1.95,5-3.08,8.11-2.94,3.11.14,5.87,1.53,7.81,3.66,1.95,2.13,3.08,5,2.94,8.11-.03.63-.11,1.27-.25,1.91-.14.63-.33,1.24-.57,1.84l-3.57-1.44c.16-.39.29-.8.38-1.21.09-.41.14-.83.16-1.26.09-2.04-.65-3.93-1.93-5.33-1.28-1.4-3.09-2.31-5.14-2.4-2.04-.09-3.93.65-5.33,1.93-1.4,1.28-2.31,3.09-2.4,5.14-.02.52,0,1.03.08,1.52.08.5.21.99.39,1.46l-3.59,1.38Z"/></svg>