<svg width="24" height="24" viewBox="0 0 24 24" fill="none" xmlns="http://www.w3.org/2000/svg">
<path d="M3.33789 17.2129C5.06694 20.2019 8.29866 22.2129 12.0001 22.2129C15.7015 22.2129 18.9332 20.2019 20.6622 17.2129" stroke="#F3F5F9" stroke-width="1.5" stroke-linecap="round" stroke-linejoin="round"/>
<path d="M3.33789 7.21289C5.06694 4.22388 8.29866 2.21289 12.0001 2.21289C15.7015 2.21289 18.9332 4.22388 20.6622 7.21289" stroke="#F3F5F9" stroke-width="1.5" stroke-linecap="round" stroke-linejoin="round"/>
<path d="M13 22.1635C13 22.1635 14.4079 20.3095 15.2947 17.2128" stroke="#F3F5F9" stroke-width="1.5" stroke-linecap="round" stroke-linejoin="round"/>
<path d="M13 2.26221C13 2.26221 14.4079 4.11617 15.2947 7.21289" stroke="#F3F5F9" stroke-width="1.5" stroke-linecap="round" stroke-linejoin="round"/>
<path d="M10.9998 22.1634C10.9998 22.1634 9.5919 20.3095 8.70508 17.2128" stroke="#F3F5F9" stroke-width="1.5" stroke-linecap="round" stroke-linejoin="round"/>
<path d="M10.9998 2.26221C10.9998 2.26221 9.5919 4.11617 8.70508 7.21289" stroke="#F3F5F9" stroke-width="1.5" stroke-linecap="round" stroke-linejoin="round"/>
<path d="M9 10.2129L10.5 15.2129L12 10.2129L13.5 15.2129L15 10.2129" stroke="#F3F5F9" stroke-width="1.5" stroke-linecap="round" stroke-linejoin="round"/>
<path d="M1 10.2129L2.5 15.2129L4 10.2129L5.5 15.2129L7 10.2129" stroke="#F3F5F9" stroke-width="1.5" stroke-linecap="round" stroke-linejoin="round"/>
<path d="M17 10.2129L18.5 15.2129L20 10.2129L21.5 15.2129L23 10.2129" stroke="#F3F5F9" stroke-width="1.5" stroke-linecap="round" stroke-linejoin="round"/>
</svg>
