<svg width="24" height="24" viewBox="0 0 24 24" fill="none" xmlns="http://www.w3.org/2000/svg">
<mask id="path-1-outside-1_546_44258" maskUnits="userSpaceOnUse" x="2" y="2" width="20" height="20" fill="black">
<rect fill="white" x="2" y="2" width="20" height="20"/>
<path d="M12 3C16.9706 3 21 7.02944 21 12C21 16.9706 16.9706 21 12 21C7.02944 21 3 16.9706 3 12C3 7.02944 7.02944 3 12 3ZM12 15.5723C13.9729 15.5723 15.5723 13.9729 15.5723 12C15.5723 10.0271 13.9729 8.42766 12 8.42766C10.0271 8.42766 8.42766 10.0271 8.42766 12C8.42766 13.9729 10.0271 15.5723 12 15.5723Z"/>
</mask>
<path d="M12 3C16.9706 3 21 7.02944 21 12C21 16.9706 16.9706 21 12 21C7.02944 21 3 16.9706 3 12C3 7.02944 7.02944 3 12 3ZM12 15.5723C13.9729 15.5723 15.5723 13.9729 15.5723 12C15.5723 10.0271 13.9729 8.42766 12 8.42766C10.0271 8.42766 8.42766 10.0271 8.42766 12C8.42766 13.9729 10.0271 15.5723 12 15.5723Z" fill="#F3F5F9"/>
<path d="M12 3C16.9706 3 21 7.02944 21 12C21 16.9706 16.9706 21 12 21C7.02944 21 3 16.9706 3 12C3 7.02944 7.02944 3 12 3ZM12 15.5723C13.9729 15.5723 15.5723 13.9729 15.5723 12C15.5723 10.0271 13.9729 8.42766 12 8.42766C10.0271 8.42766 8.42766 10.0271 8.42766 12C8.42766 13.9729 10.0271 15.5723 12 15.5723Z" stroke="#F3F5F9" stroke-width="2" mask="url(#path-1-outside-1_546_44258)"/>
<path d="M3 12C3 13.1819 3.23279 14.3522 3.68508 15.4441C4.13738 16.5361 4.80031 17.5282 5.63604 18.364C6.47177 19.1997 7.46392 19.8626 8.55585 20.3149C9.64778 20.7672 10.8181 21 12 21L12 15.5723C11.5309 15.5723 11.0663 15.4799 10.6329 15.3004C10.1995 15.1209 9.8057 14.8577 9.47397 14.526C9.14225 14.1943 8.87912 13.8005 8.69959 13.3671C8.52006 12.9337 8.42766 12.4691 8.42766 12L3 12Z" fill="#EB5757"/>
<path d="M21 12C21 10.8181 20.7672 9.64778 20.3149 8.55585C19.8626 7.46392 19.1997 6.47177 18.364 5.63604C17.5282 4.80031 16.5361 4.13738 15.4442 3.68509C14.3522 3.23279 13.1819 3 12 3L12 8.42766C12.4691 8.42766 12.9337 8.52006 13.3671 8.69959C13.8005 8.87912 14.1943 9.14225 14.526 9.47398C14.8577 9.8057 15.1209 10.1995 15.3004 10.6329C15.4799 11.0663 15.5723 11.5309 15.5723 12L21 12Z" fill="#EB5757"/>
</svg>
