<?xml version="1.0" encoding="UTF-8"?>
<svg id="b" data-name="Layer 2" xmlns="http://www.w3.org/2000/svg" viewBox="0 0 31.58 32">
  <g id="c" data-name="Layer 1">
    <g>
      <path d="M23.01,21.5l.11-.04-.06-.04s-.04.05-.05.08Z" fill="none" stroke-width="0"/>
      <path d="M31.58,26.55v-5.51l-4.87,1.79c-.22.08-.46.12-.69.12-.38,0-.76-.11-1.09-.32l-1.81-1.17-.11.04c-.68,1.04-1.1,1.68-1.12,1.71-.03.05-.06.1-.1.14-2.86,3.87-6.79,6-11.08,6-2.08,0-4.13-.55-6-1.48l-4.33,1.51c.96,1.57,2.67,2.63,4.64,2.63h21.11c3.01,0,5.45-2.44,5.45-5.45Z" fill="#03ffff" stroke-width="0"/>
      <g>
        <path d="M24.16,19.75l1.36.88.51.33,5.56-2.04v-1.12l-4.33-2.77c-1.15,1.76-2.22,3.39-3.09,4.73Z" fill="#6a6b73" stroke-width="0"/>
        <path d="M8.67,14.59l.04.02c-.54.78-.33,1.54-.07,2.04.41.79,1.19,1.31,1.93,1.31.22,0,.44-.04.74-.16.32-.11.77-.35,1.11-.87L22.57,1.36l-6.88,2.53-4.57,7.02-1.63,2.51c-.26.4-.53.81-.82,1.18Z" fill="#6a6b73" stroke-width="0"/>
        <path d="M27.03,0l-12.1,18.58c-.65,1-1.59,1.7-2.63,2.06-.58.22-1.17.33-1.73.33-3.77,0-6.74-4.56-4.34-8.05,0,0,4.75-7.3,4.75-7.3l-8.38,3.08c-6.16,8.04-.37,16.58,6.76,17.56.45.06.9.1,1.35.1,2.44,0,4.95-.93,7.14-3.05.53-.51,1.04-1.07,1.53-1.73,0,0,7.34-11.22,12.2-18.65V0h-4.55Z" fill="#6a6b73" stroke-width="0"/>
        <path d="M31.58,14.82v-6.41c-.98,1.5-2,3.05-2.98,4.55l2.98,1.86Z" fill="#6a6b73" stroke-width="0"/>
      </g>
    </g>
  </g>
</svg>