<?xml version="1.0" encoding="UTF-8"?>
<svg id="a" data-name="Layer 1" xmlns="http://www.w3.org/2000/svg" xmlns:xlink="http://www.w3.org/1999/xlink" viewBox="0 0 24 24">
  <defs>
    <linearGradient id="b" x1="12" y1="839.11" x2="12" y2="821.11" gradientTransform="translate(0 842.11) scale(1 -1)" gradientUnits="userSpaceOnUse">
      <stop offset="0" stop-color="#3fcfbf"/>
      <stop offset=".34" stop-color="#3ed2b5"/>
      <stop offset=".65" stop-color="#3ecdc6"/>
      <stop offset="1" stop-color="#3ac8d7"/>
    </linearGradient>
  </defs>
  <rect x="3" y="3" width="18" height="18" rx="4" ry="4" fill="url(#b)" stroke-width="0"/>
  <path d="m10.46,17.5v-7.42h3.08v7.42h-3.08Zm1.54-8.12c-.56,0-.98-.1-1.26-.29-.28-.21-.42-.48-.42-.83s.14-.62.42-.81c.28-.21.7-.31,1.26-.31s.98.1,1.26.31c.28.2.42.47.42.81s-.14.62-.42.83c-.28.2-.7.29-1.26.29Z" fill="#165080" stroke-width="0"/>
</svg>