<?xml version="1.0" encoding="UTF-8"?>
<svg id="a" data-name="Layer 1" xmlns="http://www.w3.org/2000/svg" viewBox="0 0 24 24">
  <g>
    <circle cx="12" cy="12" r="9.5" fill="#eb5757" stroke-width="0"/>
    <path d="m12,22c-5.51,0-10-4.49-10-10S6.49,2,12,2s10,4.49,10,10-4.49,10-10,10Zm0-19C7.04,3,3,7.04,3,12s4.04,9,9,9,9-4.04,9-9S16.96,3,12,3Z" fill="#f3f5f9" stroke-width="0"/>
  </g>
  <path d="m6.1,16.4h-.5c-.1,0-.2,0-.3-.1v-1.2h.6c.3,0,.5-.1.6-.3s.2-.4.2-.8v-5.1h1.6v5.1c0,.6-.1,1-.3,1.4-.2.3-.4.6-.7.7-.4.2-.8.3-1.2.3Zm8.1-4.8c0,.7-.1,1.2-.4,1.7-.2.4-.6.8-1,1s-1,.3-1.6.3h-1.8v-5.7h2c.9,0,1.6.2,2.1.7.5.5.7,1.1.7,2Zm-1.6.1c0-1-.4-1.5-1.3-1.5h-.4v3.2h.3c.5,0,.8-.1,1-.4.3-.4.4-.8.4-1.3Zm6.1,2.9h-3.4v-5.7h3.4v1.2h-1.8v.9h1.7v1.2h-1.7v1.1h1.8v1.3Z" fill="#f3f5f9" stroke-width="0"/>
</svg>