<?xml version="1.0" encoding="UTF-8"?>
<svg id="a" data-name="Layer 1" xmlns="http://www.w3.org/2000/svg" xmlns:xlink="http://www.w3.org/1999/xlink" viewBox="0 0 24 24">
  <defs>
    <linearGradient id="b" x1="4.7" y1="822.69" x2="17.06" y2="835.26" gradientTransform="translate(0 842.11) scale(1 -1)" gradientUnits="userSpaceOnUse">
      <stop offset=".06" stop-color="#9358f7"/>
      <stop offset="1" stop-color="#10d7e2"/>
    </linearGradient>
  </defs>
  <path d="m23,4.8V1.8c0-.4-.3-.7-.7-.7h-3.7c-3.3,0-6.2,2.3-7,5.3-1.3-2.1-3.6-3.5-6.2-3.5h-1.7c-.4,0-.7.3-.7.6v2.2c0,2.5,1.4,4.7,3.4,5.9-3.1,1-5.4,4-5.4,7.5v3c0,.4.3.7.7.7h3.7c3.3,0,6.2-2.3,7-5.3,1.3,2.1,3.6,3.5,6.3,3.5h1.7c.4,0,.7-.3.7-.7v-2.2c0-2.5-1.4-4.7-3.4-5.9,3-1,5.3-3.9,5.3-7.4Zm-18.7,1v-1.6h1c3.3,0,6,2.7,6,6v1.1h-1.4c-3.1,0-5.6-2.5-5.6-5.5Zm7,9.7c0,3.3-2.7,6-6,6h-3v-2.3c0-3.6,2.9-6.5,6.5-6.5h2.5v2.8Zm8.4,2.7v1.6h-1c-3.3,0-6-2.7-6-6v-1.1h1.5c3-.1,5.5,2.4,5.5,5.5Zm-4.6-6.9h-2.5v-2.9c0-3.3,2.7-6,6-6h3v2.3c.1,3.7-2.9,6.6-6.5,6.6Zm2.7-4.4c0,.4-.3.7-.7.7h-2.7c-.4,0-.7-.3-.7-.7s.3-.7.7-.7h2.7c.4.1.7.4.7.7Zm0,2.5c0,.4-.3.7-.7.7h-2.7c-.4,0-.7-.3-.7-.7s.3-.7.7-.7h2.7c.4.1.7.4.7.7Zm-8.3,4.5c.4,0,.7.3.7.7s-.3.7-.7.7h-2.7c-.4,0-.7-.3-.7-.7s.3-.7.7-.7h2.7Zm.7,3.1c0,.4-.3.7-.7.7h-2.7c-.4,0-.7-.3-.7-.7s.3-.7.7-.7h2.7c.4.1.7.4.7.7Z" fill="url(#b)" stroke-width="0"/>
</svg>