<?xml version="1.0" encoding="UTF-8"?>
<svg id="a" data-name="Layer 1" xmlns="http://www.w3.org/2000/svg" viewBox="0 0 24 24">
  <path d="m20.19,22.62c-.18,0-.37-.02-.55-.06-3.03-.66-8.72-2.36-12.67-6.32C3.17,12.45,1.9,7.18,1.48,4.37c-.11-.73.09-1.44.57-2,.5-.58,1.23-.91,2.02-.91h3.75c.31,0,.59.19.7.49l1.46,3.87c.05.13.06.27.04.4l-.73,3.91c.87,2.05,2.34,3.5,4.83,4.8l3.87-.75c.14-.03.28-.01.41.04l3.88,1.48c.29.11.48.39.48.7v3.58c0,.82-.36,1.58-.98,2.08-.45.36-1.01.56-1.58.56ZM4.06,2.96c-.35,0-.67.14-.88.39-.19.22-.27.5-.23.8.4,2.62,1.58,7.54,5.07,11.04,3.69,3.69,9.06,5.28,11.93,5.91.32.07.62,0,.87-.2.27-.22.42-.55.42-.91v-3.07l-3.2-1.22-3.91.76c-.16.03-.33,0-.48-.07-3.07-1.54-4.82-3.3-5.86-5.89-.05-.13-.07-.28-.04-.42l.73-3.92-1.2-3.19h-3.23Z" fill="#f2f2f2" stroke-width="0"/>
</svg>