<?xml version="1.0" encoding="UTF-8"?>
<svg id="a" data-name="Layer 1" xmlns="http://www.w3.org/2000/svg" viewBox="0 0 24 24">
  <path d="m20.69,3.6c0-.74-.61-1.35-1.35-1.35H5.94c-1.52,0-2.75,1.23-2.75,2.75v14c0,1.52,1.23,2.75,2.75,2.75h14c.41,0,.75-.34.75-.75s-.34-.75-.75-.75H5.94c-.69,0-1.25-.56-1.25-1.25s.56-1.25,1.25-1.25h14c.41,0,.75-.34.75-.75,0-.05-.02-.09-.03-.14,0-.05.03-.09.03-.14V3.6Zm-12,.15h3.5v5.88l-1.35-.86c-.25-.16-.56-.16-.81,0l-1.35.86V3.75Zm-4,12.81V5c0-.69.56-1.25,1.25-1.25h1.25v7.25c0,.27.15.53.39.66.24.13.53.12.76-.03l2.1-1.34,2.1,1.34c.12.08.26.12.4.12.12,0,.25-.03.36-.09.24-.13.39-.38.39-.66V3.75h5.5v12.5H5.94c-.45,0-.87.12-1.25.31Z" fill="#f2f2f2" stroke-width="0"/>
</svg>