<?xml version="1.0" encoding="UTF-8"?>
<svg id="a" data-name="Layer 1" xmlns="http://www.w3.org/2000/svg" viewBox="0 0 24 24">
  <path d="m21.04,16.56c-.36-.21-.82-.08-1.02.27-1.22,2.1-3.2,3.61-5.48,4.26.47-.89,1.04-2.13,1.49-3.68.11-.4-.12-.81-.51-.93-.4-.11-.81.12-.93.51-.64,2.25-1.58,3.81-1.97,4.42-.2.01-.4.04-.6.04s-.4-.03-.6-.04c-.4-.61-1.33-2.17-1.97-4.42-.11-.4-.53-.63-.93-.51-.4.11-.63.53-.51.93.44,1.55,1.01,2.79,1.49,3.68-2.28-.65-4.27-2.16-5.48-4.26-.21-.36-.67-.48-1.03-.27-.36.21-.48.67-.27,1.02,1.73,2.99,4.81,4.95,8.21,5.3.04,0,.07.02.11.02.03,0,.05,0,.08-.01.31.03.61.06.92.06s.62-.03.92-.06c.03,0,.05.01.08.01.04,0,.07-.02.11-.02,3.4-.35,6.48-2.31,8.21-5.3.21-.36.08-.82-.27-1.02Z" fill="#f3f5f9" stroke-width="0"/>
  <path d="m2.96,7.86c.12.07.25.1.38.1.26,0,.51-.13.65-.37,1.22-2.1,3.2-3.61,5.48-4.26-.47.89-1.04,2.13-1.49,3.68-.11.4.12.81.51.93.07.02.14.03.21.03.33,0,.63-.21.72-.54.64-2.25,1.58-3.81,1.97-4.42.2-.01.4-.04.6-.04s.4.03.6.04c.4.61,1.33,2.17,1.97,4.42.09.33.39.54.72.54.07,0,.14,0,.21-.03.4-.11.63-.53.51-.93-.44-1.55-1.01-2.79-1.49-3.68,2.28.65,4.27,2.16,5.48,4.26.21.36.66.48,1.02.27.36-.21.48-.67.27-1.02-1.72-2.97-4.77-4.92-8.14-5.3-.07-.02-.14-.02-.21-.01-.32-.03-.64-.06-.96-.06s-.64.04-.96.06c-.07,0-.14,0-.21.01-3.37.37-6.42,2.32-8.15,5.3-.21.36-.08.82.27,1.02Z" fill="#f3f5f9" stroke-width="0"/>
  <path d="m15.22,9.49c-.4-.12-.82.11-.93.5l-.78,2.61-.78-2.61c-.1-.32-.39-.53-.72-.53s-.62.22-.72.53l-.78,2.61-.78-2.61c-.12-.4-.53-.62-.93-.5-.4.12-.62.54-.5.93l1.5,5c.1.32.39.53.72.53s.62-.22.72-.53l.78-2.61.78,2.61c.1.32.39.53.72.53s.62-.22.72-.53l1.5-5c.12-.4-.11-.81-.5-.93Z" fill="#f3f5f9" stroke-width="0"/>
  <path d="m3.22,15.43l.78-2.61.78,2.61c.1.32.39.53.72.53s.62-.22.72-.53l1.5-5c.12-.4-.11-.81-.5-.93-.4-.12-.82.11-.93.5l-.78,2.61-.78-2.61c-.1-.32-.39-.53-.72-.53s-.62.22-.72.53l-.78,2.61-.78-2.61c-.12-.4-.54-.62-.93-.5-.4.12-.62.54-.5.93l1.5,5c.1.32.39.53.72.53s.62-.22.72-.53Z" fill="#f3f5f9" stroke-width="0"/>
  <path d="m23.22,9.49c-.4-.12-.82.11-.93.5l-.78,2.61-.78-2.61c-.1-.32-.39-.53-.72-.53s-.62.22-.72.53l-.78,2.61-.78-2.61c-.12-.4-.54-.62-.93-.5-.4.12-.62.54-.5.93l1.5,5c.1.32.39.53.72.53s.62-.22.72-.53l.78-2.61.78,2.61c.1.32.39.53.72.53s.62-.22.72-.53l1.5-5c.12-.4-.11-.81-.5-.93Z" fill="#f3f5f9" stroke-width="0"/>
</svg>